<svg width="195" height="110" viewBox="0 0 195 110" fill="none" xmlns="http://www.w3.org/2000/svg">
<path d="M55.9072 36.2689C55.9072 27.0742 59.4305 20.064 66.4769 15.2384C73.5234 10.4128 83.6967 8 96.9967 8C109.268 8 118.833 10.4223 125.69 15.2668C132.547 20.1114 135.976 26.8617 135.977 35.5178C135.977 44.7504 132.539 51.8079 125.661 56.6904C118.784 61.5728 108.963 64.0164 96.1982 64.0212C83.4321 64.0212 73.525 61.6187 66.4769 56.8136C59.4289 52.0085 55.9056 45.1603 55.9072 36.2689ZM118.71 35.641C118.71 29.4095 111.396 26.2938 96.7692 26.2938C87.3455 26.2938 81.0572 27.0836 77.9044 28.6632C74.7515 30.2428 73.172 32.5332 73.1657 35.5344C73.1657 38.763 74.7452 41.2421 77.9044 42.9718C81.0635 44.7014 87.2373 45.5654 96.4257 45.5639C111.282 45.5591 118.71 42.2515 118.71 35.641Z" fill="#18C4B8"/>
<path d="M133.869 70.9468V88.2147H75.3976V101.893H57.7861V70.9468H133.869Z" fill="#18C4B8"/>
<path d="M144.242 18.5317H160.37C171.539 18.5317 180.03 21.7138 185.843 28.0779C191.656 34.442 194.562 43.741 194.562 55.9748C194.562 65.2469 193.128 72.7317 190.26 78.4292C187.391 84.1267 183.383 88.2494 178.235 90.7973C173.087 93.342 167.401 94.6143 161.176 94.6143H144.242V18.5317ZM161.51 34.7168V78.3723C166.754 77.9174 170.458 76.0654 172.622 72.8162C174.786 69.567 175.869 64.2193 175.871 56.7732C175.871 52.3662 175.491 48.6329 174.731 45.5733C173.971 42.5136 172.841 40.1585 171.34 38.5078C169.838 36.854 168.375 35.8376 166.952 35.4585C165.168 35.0291 163.344 34.7807 161.51 34.7168Z" fill="#18C4B8"/>
<path d="M0 18.5317H17.5522C27.7705 18.5317 35.1218 20.5362 39.6062 24.5452C44.0907 28.5541 46.3352 33.6546 46.34 39.8465C46.34 46.536 43.0726 51.9121 36.5379 55.9748C43.9445 58.9001 47.6486 64.4665 47.6502 72.674C47.6502 79.2466 45.3512 84.5461 40.753 88.5724C36.1549 92.5988 30.0956 94.6127 22.5753 94.6143H0V18.5317ZM17.2679 33.1223V49.5348C24.9794 49.3453 28.8351 46.6671 28.8351 41.5003C28.8351 38.4217 27.9142 36.2751 26.0725 35.0604C24.2307 33.8457 21.2958 33.1997 17.2679 33.1223ZM17.2679 63.3269V79.7963C21.6339 79.7205 24.9107 79.046 27.0984 77.7729C29.2861 76.4998 30.3784 74.4013 30.3752 71.4775C30.3752 66.0453 26.4808 63.3285 18.6919 63.3269H17.2679Z" fill="#18C4B8"/>
</svg>
