<svg width="782" height="208" viewBox="0 0 782 208" fill="none" xmlns="http://www.w3.org/2000/svg">
<g opacity="0.6">
<path d="M123.947 28.8363C123.655 23.2478 134.049 24.3972 138.717 28.4486C143.181 26.2645 152.64 22.5407 155.16 28.05C158.231 26.5184 168.182 24.0914 167.197 27.9654C169.367 27.1687 171.605 26.5693 173.883 26.1744C175.305 22.8001 182.619 22.1258 187.563 28.2083C187.271 14.438 197.664 17.2745 202.333 27.2528C206.796 21.9019 216.256 12.6962 218.776 26.2755C221.847 22.5025 231.798 16.5183 230.812 26.0625C239.328 18.432 247.807 18.5904 247.277 29.2649H110.502C107.744 26.9662 117.731 25.7376 123.947 28.8363Z" fill="white"/>
<path d="M271.127 7.76017C270.903 3.43304 278.943 4.32577 282.569 7.45987C286.025 5.77816 293.344 2.88703 295.304 7.1541C297.682 5.96653 305.389 4.08552 304.627 7.08585C306.311 6.46898 308.047 6.00482 309.815 5.69898C310.907 3.08632 316.585 2.56488 320.41 7.27696C320.183 -3.38936 328.223 -1.18621 331.852 6.53711C335.305 2.39016 342.624 -4.73801 344.585 5.77816C346.965 2.85427 354.686 -1.77863 353.908 5.61435C360.503 -0.29621 367.072 -0.173358 366.662 8.09324H260.704C258.58 6.31325 266.314 5.355 271.127 7.76017Z" fill="white"/>
<path d="M20.0744 9.90322C19.8478 5.57336 27.8906 6.46609 31.5161 9.60292C34.9723 7.91848 42.2889 5.02735 44.2518 9.29442C46.6297 8.10685 54.3366 6.22857 53.5722 9.22617C55.2563 8.60993 56.9923 8.14578 58.7593 7.8393C59.8513 5.22664 65.5298 4.7052 69.3546 9.41727C69.128 -1.24904 77.1707 0.954112 80.7963 8.67743C84.2443 4.52502 91.5581 -2.60315 93.5238 7.91301C95.9016 4.98913 103.609 0.35623 102.847 7.74921C109.443 1.83865 116.008 1.9615 115.599 10.2281H9.65655C7.52438 8.44811 15.2614 7.48986 20.0744 9.90322Z" fill="white"/>
<path d="M204.459 125.396H-10V184.944H204.459V125.396Z" fill="#18C4B8"/>
<path d="M60.4572 125.303H-10V184.946H60.4572V125.303Z" fill="#18C4B8"/>
<g style="mix-blend-mode:multiply" opacity="0.5">
<path d="M204.459 129.862H-10V133.914H204.459V129.862Z" fill="#18C4B8"/>
</g>
<g style="mix-blend-mode:multiply" opacity="0.5">
<path d="M204.459 138.472H-10V142.524H204.459V138.472Z" fill="#18C4B8"/>
</g>
<g style="mix-blend-mode:multiply" opacity="0.5">
<path d="M204.459 147.086H-10V151.137H204.459V147.086Z" fill="#18C4B8"/>
</g>
<g style="mix-blend-mode:multiply" opacity="0.5">
<path d="M204.459 155.696H-10V159.748H204.459V155.696Z" fill="#18C4B8"/>
</g>
<g style="mix-blend-mode:multiply" opacity="0.5">
<path d="M204.459 164.307H-10V168.358H204.459V164.307Z" fill="#18C4B8"/>
</g>
<g style="mix-blend-mode:multiply" opacity="0.5">
<path d="M204.459 172.917H-10V176.972H204.459V172.917Z" fill="#18C4B8"/>
</g>
<path d="M385.857 138.041H289.227V184.946H385.857V138.041Z" fill="#18C4B8"/>
<path d="M328.182 137.965H289.227V184.943H328.182V137.965Z" fill="#18C4B8"/>
<g style="mix-blend-mode:multiply" opacity="0.5">
<path d="M385.857 141.557H289.227V144.749H385.857V141.557Z" fill="#18C4B8"/>
</g>
<g style="mix-blend-mode:multiply" opacity="0.5">
<path d="M385.857 148.342H289.227V151.533H385.857V148.342Z" fill="#18C4B8"/>
</g>
<g style="mix-blend-mode:multiply" opacity="0.5">
<path d="M385.857 155.123H289.227V158.314H385.857V155.123Z" fill="#18C4B8"/>
</g>
<g style="mix-blend-mode:multiply" opacity="0.5">
<path d="M385.857 161.907H289.227V165.099H385.857V161.907Z" fill="#18C4B8"/>
</g>
<g style="mix-blend-mode:multiply" opacity="0.5">
<path d="M385.857 168.689H289.227V171.88H385.857V168.689Z" fill="#18C4B8"/>
</g>
<g style="mix-blend-mode:multiply" opacity="0.5">
<path d="M385.857 175.473H289.227V178.667H385.857V175.473Z" fill="#18C4B8"/>
</g>
<path d="M231.036 110.429V185.044H288.979V130.127L259.637 110.429H231.036Z" fill="#61BACE"/>
<g style="mix-blend-mode:multiply" opacity="0.3">
<path d="M288.979 130.127H268.921V185.042H288.979V130.127Z" fill="#18C4B8"/>
</g>
<path d="M231.036 110.429V185.044H268.921V129.944L258.706 124.68L253.923 122.218L238.839 114.445L238.105 114.071L233.324 111.609L231.036 110.429Z" fill="#18C4B8"/>
<g style="mix-blend-mode:multiply" opacity="0.5">
<path d="M288.976 132.96H231.036V135.423H288.976V132.96Z" fill="#18C4B8"/>
</g>
<g style="mix-blend-mode:multiply" opacity="0.5">
<path d="M231.036 122.218V124.68H258.706L253.923 122.218H231.036Z" fill="#18C4B8"/>
</g>
<g style="mix-blend-mode:multiply" opacity="0.5">
<path d="M230.954 111.609V114.071H238.104L233.324 111.609H230.954Z" fill="#18C4B8"/>
</g>
<g style="mix-blend-mode:multiply" opacity="0.5">
<path d="M288.976 144.102H231.036V146.564H288.976V144.102Z" fill="#18C4B8"/>
</g>
<g style="mix-blend-mode:multiply" opacity="0.5">
<path d="M288.976 155.243H231.036V157.705H288.976V155.243Z" fill="#18C4B8"/>
</g>
<g style="mix-blend-mode:multiply" opacity="0.5">
<path d="M288.976 166.385H231.036V168.847H288.976V166.385Z" fill="#18C4B8"/>
</g>
<g style="mix-blend-mode:multiply" opacity="0.5">
<path d="M288.976 177.526H231.036V179.988H288.976V177.526Z" fill="#18C4B8"/>
</g>
<g style="mix-blend-mode:color-dodge" opacity="0.4">
<path d="M238.932 185.045H232.991V10.1629L238.561 12.5763L238.566 14.7221L238.569 16.1554L238.58 20.8046L238.582 22.2379L238.593 26.8872L238.596 28.3205L238.604 32.9725L238.61 34.403L238.618 39.055L238.623 40.4856L238.631 45.1376L238.634 46.5682L238.645 51.2202L238.648 52.6507L238.659 57.3027L238.662 58.7333L238.67 63.3853L238.675 64.8186L238.683 69.4678L238.686 70.9011L238.697 75.5531L238.7 76.9837L238.711 81.6357L238.713 83.0662L238.724 87.7182L238.727 89.1488L238.735 93.8008L238.741 95.2313L238.749 99.8834L238.752 101.314L238.763 105.966L238.765 107.399L238.776 112.048L238.779 113.482L238.79 118.134L238.793 119.564L238.801 124.216L238.806 125.647L238.814 130.299L238.817 131.729L238.828 136.381L238.831 137.812L238.842 142.464L238.844 143.895L238.855 148.547L238.858 149.977L238.869 154.629L238.872 156.062L238.88 160.712L238.883 162.142L238.894 166.797L238.896 168.227L238.907 172.879L238.91 174.31L238.918 178.962L238.924 180.393L238.932 185.045Z" fill="#B2662D"/>
</g>
<g style="mix-blend-mode:color-dodge" opacity="0.4">
<path d="M221.795 71.6161L221.104 72.012V185.044H216.649V71.6161H221.795Z" fill="#B2662D"/>
</g>
<g style="mix-blend-mode:color-dodge" opacity="0.4">
<path d="M211.077 140.315V185.045H203.277V142.723L204.009 142.499L208.792 141.023L211.077 140.315Z" fill="#B2662D"/>
</g>
<path d="M212.933 4.70251V185.044H259.511L259.492 180.392V179.988L259.486 178.962L259.484 177.526L259.467 174.312L259.464 172.876L259.448 168.847V168.227L259.44 166.797L259.437 166.384L259.424 162.142L259.418 160.711L259.407 157.706L259.399 156.059L259.396 155.243L259.394 154.632L259.374 149.977L259.372 148.546L259.363 146.564L259.353 144.102L259.35 143.897L259.347 142.464L259.328 137.812L259.323 136.381L259.32 135.423L259.312 132.96L259.306 131.729L259.301 130.299L259.282 125.647L259.279 124.975L259.276 124.216L259.257 119.564L259.254 118.133L259.235 113.481L259.23 112.048L259.224 110.429L259.211 107.396L259.205 105.966L259.189 101.314L259.183 99.8831L259.164 95.2338L259.159 93.8005L259.14 89.1485L259.137 87.7179L259.118 83.0659L259.112 81.6327L259.096 76.9834L259.09 75.5528L259.069 70.8981L259.066 69.4703L259.047 64.8183L259.041 63.385L259.022 58.7357L259.017 57.3024L259 52.6504L258.992 51.2199L258.976 46.5679L258.973 45.1373L258.954 40.4853L258.949 39.0548L258.929 34.4028L258.924 32.9695L258.905 28.3202L258.902 26.8869L258.883 22.2349L258.875 20.8071L258.858 16.1551L258.856 14.7218L258.845 12.576L248.866 10.1626L237.283 7.36432L226.262 4.70251H212.933Z" fill="#18C4B8"/>
<g style="mix-blend-mode:multiply" opacity="0.5">
<path d="M258.858 16.1553H212.933V14.722H258.856L258.858 16.1553Z" fill="#18C4B8"/>
</g>
<g style="mix-blend-mode:multiply" opacity="0.5">
<path d="M258.883 22.2378H212.933V20.8045H258.878L258.883 22.2378Z" fill="#18C4B8"/>
</g>
<g style="mix-blend-mode:multiply" opacity="0.5">
<path d="M258.905 28.3202H212.933V26.887H258.902L258.905 28.3202Z" fill="#18C4B8"/>
</g>
<g style="mix-blend-mode:multiply" opacity="0.5">
<path d="M258.929 34.4028H212.933V32.9723H258.924L258.929 34.4028Z" fill="#18C4B8"/>
</g>
<g style="mix-blend-mode:multiply" opacity="0.5">
<path d="M258.954 40.4855H212.933V39.055H258.948L258.954 40.4855Z" fill="#18C4B8"/>
</g>
<g style="mix-blend-mode:multiply" opacity="0.5">
<path d="M258.976 46.568H212.933V45.1375H258.973L258.976 46.568Z" fill="#18C4B8"/>
</g>
<g style="mix-blend-mode:multiply" opacity="0.5">
<path d="M259 52.6505H212.933V51.2199H258.995L259 52.6505Z" fill="#18C4B8"/>
</g>
<g style="mix-blend-mode:multiply" opacity="0.5">
<path d="M259.022 58.7332H212.933V57.3026H259.019L259.022 58.7332Z" fill="#18C4B8"/>
</g>
<g style="mix-blend-mode:multiply" opacity="0.5">
<path d="M259.047 64.8182H212.933V63.3849H259.041L259.047 64.8182Z" fill="#18C4B8"/>
</g>
<g style="mix-blend-mode:multiply" opacity="0.5">
<path d="M259.069 70.9009H212.933V69.4677H259.066L259.069 70.9009Z" fill="#18C4B8"/>
</g>
<g style="mix-blend-mode:multiply" opacity="0.5">
<path d="M259.093 76.9836H212.933V75.5531H259.09L259.093 76.9836Z" fill="#18C4B8"/>
</g>
<g style="mix-blend-mode:multiply" opacity="0.5">
<path d="M259.118 83.0661H212.933V81.6356H259.112L259.118 83.0661Z" fill="#18C4B8"/>
</g>
<g style="mix-blend-mode:multiply" opacity="0.5">
<path d="M259.14 89.1487H212.933V87.7181H259.137L259.14 89.1487Z" fill="#18C4B8"/>
</g>
<g style="mix-blend-mode:multiply" opacity="0.5">
<path d="M259.164 95.2311H212.933V93.8006H259.159L259.164 95.2311Z" fill="#18C4B8"/>
</g>
<g style="mix-blend-mode:multiply" opacity="0.5">
<path d="M259.186 101.314H212.933V99.8833H259.183L259.186 101.314Z" fill="#18C4B8"/>
</g>
<g style="mix-blend-mode:multiply" opacity="0.5">
<path d="M259.211 107.399H212.933V105.966H259.205L259.211 107.399Z" fill="#18C4B8"/>
</g>
<g style="mix-blend-mode:multiply" opacity="0.5">
<path d="M259.235 113.481H212.933V112.048H259.23L259.235 113.481Z" fill="#18C4B8"/>
</g>
<g style="mix-blend-mode:multiply" opacity="0.5">
<path d="M259.257 119.564H212.933V118.134H259.254L259.257 119.564Z" fill="#18C4B8"/>
</g>
<g style="mix-blend-mode:multiply" opacity="0.5">
<path d="M259.282 125.647H212.933V124.216H259.276L259.282 125.647Z" fill="#18C4B8"/>
</g>
<g style="mix-blend-mode:multiply" opacity="0.5">
<path d="M259.303 131.729H212.933V130.299H259.301L259.303 131.729Z" fill="#18C4B8"/>
</g>
<g style="mix-blend-mode:multiply" opacity="0.5">
<path d="M259.328 137.812H212.933V136.381H259.323L259.328 137.812Z" fill="#18C4B8"/>
</g>
<g style="mix-blend-mode:multiply" opacity="0.5">
<path d="M259.35 143.894H212.933V142.464H259.347L259.35 143.894Z" fill="#18C4B8"/>
</g>
<g style="mix-blend-mode:multiply" opacity="0.5">
<path d="M259.377 149.977H212.933V148.546H259.372L259.377 149.977Z" fill="#18C4B8"/>
</g>
<g style="mix-blend-mode:multiply" opacity="0.5">
<path d="M259.399 156.062H212.933V154.629H259.394L259.399 156.062Z" fill="#18C4B8"/>
</g>
<g style="mix-blend-mode:multiply" opacity="0.5">
<path d="M259.424 162.142H212.933V160.711H259.418L259.424 162.142Z" fill="#18C4B8"/>
</g>
<g style="mix-blend-mode:multiply" opacity="0.5">
<path d="M259.445 168.227H212.933V166.797H259.44L259.445 168.227Z" fill="#18C4B8"/>
</g>
<g style="mix-blend-mode:multiply" opacity="0.5">
<path d="M259.47 174.31H212.933V172.879H259.464L259.47 174.31Z" fill="#18C4B8"/>
</g>
<g style="mix-blend-mode:multiply" opacity="0.5">
<path d="M259.492 180.392H212.933V178.962H259.486L259.492 180.392Z" fill="#18C4B8"/>
</g>
<g style="mix-blend-mode:multiply" opacity="0.5">
<path d="M212.933 4.70251V185.62H237.283V7.36432L226.262 4.70251H212.933Z" fill="#18C4B8"/>
</g>
<path d="M221.104 71.6161V185.044H182.973V85.5695L206.593 71.6161H221.104Z" fill="#18C4B8"/>
<g style="mix-blend-mode:multiply" opacity="0.5">
<path d="M221.794 71.6161L221.104 72.012L216.648 74.5646L197.456 85.5695L182.973 86.14V85.5695L206.593 71.6161H221.794Z" fill="#18C4B8"/>
</g>
<g style="mix-blend-mode:multiply" opacity="0.5">
<path d="M221.104 92.0125H182.973V94.7644H221.104V92.0125Z" fill="#18C4B8"/>
</g>
<g style="mix-blend-mode:multiply" opacity="0.5">
<path d="M221.104 101.445H182.973V104.197H221.104V101.445Z" fill="#18C4B8"/>
</g>
<g style="mix-blend-mode:multiply" opacity="0.5">
<path d="M221.104 110.88H182.973V113.632H221.104V110.88Z" fill="#18C4B8"/>
</g>
<g style="mix-blend-mode:multiply" opacity="0.5">
<path d="M221.104 120.315H182.973V123.067H221.104V120.315Z" fill="#18C4B8"/>
</g>
<g style="mix-blend-mode:multiply" opacity="0.5">
<path d="M221.104 129.75H182.973V132.502H221.104V129.75Z" fill="#18C4B8"/>
</g>
<g style="mix-blend-mode:multiply" opacity="0.5">
<path d="M221.104 139.185H182.973V141.937H221.104V139.185Z" fill="#18C4B8"/>
</g>
<g style="mix-blend-mode:multiply" opacity="0.5">
<path d="M221.104 148.62H182.973V151.372H221.104V148.62Z" fill="#18C4B8"/>
</g>
<g style="mix-blend-mode:multiply" opacity="0.5">
<path d="M221.104 158.055H182.973V160.807H221.104V158.055Z" fill="#18C4B8"/>
</g>
<g style="mix-blend-mode:multiply" opacity="0.5">
<path d="M221.104 167.49H182.973V170.242H221.104V167.49Z" fill="#18C4B8"/>
</g>
<g style="mix-blend-mode:multiply" opacity="0.5">
<path d="M221.104 176.925H182.973V179.677H221.104V176.925Z" fill="#18C4B8"/>
</g>
<g style="mix-blend-mode:multiply" opacity="0.5">
<path d="M197.459 85.5694H182.973V185.044H197.459V85.5694Z" fill="#18C4B8"/>
</g>
<path d="M42.352 68.9134V182.342H4.22131V82.8694L27.8445 68.9134H42.352Z" fill="#18C4B8"/>
<g style="mix-blend-mode:multiply" opacity="0.5">
<path d="M43.0427 68.9134L42.352 69.3093L37.8965 71.8646L18.707 82.8694L4.22131 83.44V82.8694L27.8445 68.9134H43.0427Z" fill="#18C4B8"/>
</g>
<g style="mix-blend-mode:multiply" opacity="0.5">
<path d="M42.352 89.3096H4.22131V92.0615H42.352V89.3096Z" fill="#18C4B8"/>
</g>
<g style="mix-blend-mode:multiply" opacity="0.5">
<path d="M42.352 98.7449H4.22131V101.497H42.352V98.7449Z" fill="#18C4B8"/>
</g>
<g style="mix-blend-mode:multiply" opacity="0.5">
<path d="M42.352 108.18H4.22131V110.932H42.352V108.18Z" fill="#18C4B8"/>
</g>
<g style="mix-blend-mode:multiply" opacity="0.5">
<path d="M42.352 117.615H4.22131V120.367H42.352V117.615Z" fill="#18C4B8"/>
</g>
<g style="mix-blend-mode:multiply" opacity="0.5">
<path d="M42.352 127.05H4.22131V129.802H42.352V127.05Z" fill="#18C4B8"/>
</g>
<g style="mix-blend-mode:multiply" opacity="0.5">
<path d="M42.352 136.482H4.22131V139.234H42.352V136.482Z" fill="#18C4B8"/>
</g>
<g style="mix-blend-mode:multiply" opacity="0.5">
<path d="M42.352 145.917H4.22131V148.669H42.352V145.917Z" fill="#18C4B8"/>
</g>
<g style="mix-blend-mode:multiply" opacity="0.5">
<path d="M42.352 155.352H4.22131V158.104H42.352V155.352Z" fill="#18C4B8"/>
</g>
<g style="mix-blend-mode:multiply" opacity="0.5">
<path d="M42.352 164.788H4.22131V167.539H42.352V164.788Z" fill="#18C4B8"/>
</g>
<g style="mix-blend-mode:multiply" opacity="0.5">
<path d="M42.352 174.223H4.22131V176.975H42.352V174.223Z" fill="#18C4B8"/>
</g>
<g style="mix-blend-mode:multiply" opacity="0.5">
<path d="M18.707 82.8696H4.22131V182.345H18.707V82.8696Z" fill="#18C4B8"/>
</g>
<path d="M168.952 21.2932H133.871V87.6526H168.952V21.2932Z" fill="#18C4B8"/>
<g style="mix-blend-mode:multiply" opacity="0.5">
<path d="M168.95 21.2932H153.853V87.6526H168.95V21.2932Z" fill="#18C4B8"/>
</g>
<path d="M174.614 43.6742H113.101V184.946H174.614V43.6742Z" fill="#18C4B8"/>
<g style="mix-blend-mode:multiply" opacity="0.5">
<path d="M174.615 43.6742H148.141V184.946H174.615V43.6742Z" fill="#18C4B8"/>
</g>
<g style="mix-blend-mode:multiply" opacity="0.5">
<path d="M174.486 52.3584H113.101V55.9047H174.486V52.3584Z" fill="#18C4B8"/>
</g>
<g style="mix-blend-mode:multiply" opacity="0.5">
<path d="M174.486 61.9817H113.101V65.528H174.486V61.9817Z" fill="#18C4B8"/>
</g>
<g style="mix-blend-mode:multiply" opacity="0.5">
<path d="M174.486 71.6053H113.101V75.1516H174.486V71.6053Z" fill="#18C4B8"/>
</g>
<g style="mix-blend-mode:multiply" opacity="0.5">
<path d="M174.486 81.2289H113.101V84.7752H174.486V81.2289Z" fill="#18C4B8"/>
</g>
<g style="mix-blend-mode:multiply" opacity="0.5">
<path d="M174.486 90.8522H113.101V94.3986H174.486V90.8522Z" fill="#18C4B8"/>
</g>
<g style="mix-blend-mode:multiply" opacity="0.5">
<path d="M174.486 100.478H113.101V104.025H174.486V100.478Z" fill="#18C4B8"/>
</g>
<g style="mix-blend-mode:multiply" opacity="0.5">
<path d="M174.486 110.102H113.101V113.648H174.486V110.102Z" fill="#18C4B8"/>
</g>
<g style="mix-blend-mode:multiply" opacity="0.5">
<path d="M174.486 119.725H113.101V123.272H174.486V119.725Z" fill="#18C4B8"/>
</g>
<g style="mix-blend-mode:multiply" opacity="0.5">
<path d="M174.486 129.349H113.101V132.895H174.486V129.349Z" fill="#18C4B8"/>
</g>
<g style="mix-blend-mode:multiply" opacity="0.5">
<path d="M174.486 138.972H113.101V142.518H174.486V138.972Z" fill="#18C4B8"/>
</g>
<g style="mix-blend-mode:multiply" opacity="0.5">
<path d="M174.486 148.595H113.101V152.142H174.486V148.595Z" fill="#18C4B8"/>
</g>
<g style="mix-blend-mode:multiply" opacity="0.5">
<path d="M174.486 158.219H113.101V161.765H174.486V158.219Z" fill="#18C4B8"/>
</g>
<g style="mix-blend-mode:multiply" opacity="0.5">
<path d="M174.486 167.842H113.101V171.389H174.486V167.842Z" fill="#18C4B8"/>
</g>
<g style="mix-blend-mode:multiply" opacity="0.5">
<path d="M174.486 177.466H113.101V181.012H174.486V177.466Z" fill="#18C4B8"/>
</g>
<g style="mix-blend-mode:multiply" opacity="0.5">
<path d="M168.704 21.4651H133.871V23.2178H168.704V21.4651Z" fill="#18C4B8"/>
</g>
<g style="mix-blend-mode:multiply" opacity="0.5">
<path d="M168.704 26.2181H133.871V27.9708H168.704V26.2181Z" fill="#18C4B8"/>
</g>
<g style="mix-blend-mode:multiply" opacity="0.5">
<path d="M168.704 30.9738H133.871V32.7238H168.704V30.9738Z" fill="#18C4B8"/>
</g>
<g style="mix-blend-mode:multiply" opacity="0.5">
<path d="M168.704 35.73H133.871V37.4827H168.704V35.73Z" fill="#18C4B8"/>
</g>
<g style="mix-blend-mode:multiply" opacity="0.5">
<path d="M168.704 40.4856H133.871V42.2356H168.704V40.4856Z" fill="#18C4B8"/>
</g>
<path d="M116.461 48.1403H87.1348V103.615H116.461V48.1403Z" fill="#18C4B8"/>
<g style="mix-blend-mode:multiply" opacity="0.5">
<path d="M116.462 48.1403H103.841V103.615H116.462V48.1403Z" fill="#18C4B8"/>
</g>
<path d="M121.198 66.8496H69.775V184.946H121.198V66.8496Z" fill="#18C4B8"/>
<g style="mix-blend-mode:multiply" opacity="0.5">
<path d="M121.195 66.8496H99.0654V184.946H121.195V66.8496Z" fill="#18C4B8"/>
</g>
<g style="mix-blend-mode:multiply" opacity="0.5">
<path d="M121.092 74.1116H69.775V77.0764H121.092V74.1116Z" fill="#18C4B8"/>
</g>
<g style="mix-blend-mode:multiply" opacity="0.5">
<path d="M121.092 82.1542H69.775V85.119H121.092V82.1542Z" fill="#18C4B8"/>
</g>
<g style="mix-blend-mode:multiply" opacity="0.5">
<path d="M121.092 90.1998H69.775V93.1647H121.092V90.1998Z" fill="#18C4B8"/>
</g>
<g style="mix-blend-mode:multiply" opacity="0.5">
<path d="M121.092 98.2451H69.775V101.21H121.092V98.2451Z" fill="#18C4B8"/>
</g>
<g style="mix-blend-mode:multiply" opacity="0.5">
<path d="M121.092 106.288H69.775V109.253H121.092V106.288Z" fill="#18C4B8"/>
</g>
<g style="mix-blend-mode:multiply" opacity="0.5">
<path d="M121.092 114.333H69.775V117.298H121.092V114.333Z" fill="#18C4B8"/>
</g>
<g style="mix-blend-mode:multiply" opacity="0.5">
<path d="M121.092 122.379H69.775V125.344H121.092V122.379Z" fill="#18C4B8"/>
</g>
<g style="mix-blend-mode:multiply" opacity="0.5">
<path d="M121.092 130.424H69.775V133.389H121.092V130.424Z" fill="#18C4B8"/>
</g>
<g style="mix-blend-mode:multiply" opacity="0.5">
<path d="M121.092 138.467H69.775V141.432H121.092V138.467Z" fill="#18C4B8"/>
</g>
<g style="mix-blend-mode:multiply" opacity="0.5">
<path d="M121.092 146.513H69.775V149.477H121.092V146.513Z" fill="#18C4B8"/>
</g>
<g style="mix-blend-mode:multiply" opacity="0.5">
<path d="M121.092 154.558H69.775V157.523H121.092V154.558Z" fill="#18C4B8"/>
</g>
<g style="mix-blend-mode:multiply" opacity="0.5">
<path d="M121.092 162.603H69.775V165.568H121.092V162.603Z" fill="#18C4B8"/>
</g>
<g style="mix-blend-mode:multiply" opacity="0.5">
<path d="M121.092 170.646H69.775V173.611H121.092V170.646Z" fill="#18C4B8"/>
</g>
<g style="mix-blend-mode:multiply" opacity="0.5">
<path d="M121.092 178.692H69.775V181.656H121.092V178.692Z" fill="#18C4B8"/>
</g>
<g style="mix-blend-mode:multiply" opacity="0.5">
<path d="M116.254 48.2827H87.1348V49.7487H116.254V48.2827Z" fill="#18C4B8"/>
</g>
<g style="mix-blend-mode:multiply" opacity="0.5">
<path d="M116.254 52.2574H87.1348V53.7235H116.254V52.2574Z" fill="#18C4B8"/>
</g>
<g style="mix-blend-mode:multiply" opacity="0.5">
<path d="M116.254 56.2353H87.1348V57.6986H116.254V56.2353Z" fill="#18C4B8"/>
</g>
<g style="mix-blend-mode:multiply" opacity="0.5">
<path d="M116.254 60.2073H87.1348V61.6734H116.254V60.2073Z" fill="#18C4B8"/>
</g>
<g style="mix-blend-mode:multiply" opacity="0.5">
<path d="M116.254 64.1849H87.1348V65.6482H116.254V64.1849Z" fill="#18C4B8"/>
</g>
<path d="M352.453 21.2932H317.372V87.6526H352.453V21.2932Z" fill="#18C4B8"/>
<g style="mix-blend-mode:multiply" opacity="0.5">
<path d="M352.452 21.2932H337.355V87.6526H352.452V21.2932Z" fill="#18C4B8"/>
</g>
<path d="M358.118 43.6742H296.604V184.946H358.118V43.6742Z" fill="#18C4B8"/>
<g style="mix-blend-mode:multiply" opacity="0.5">
<path d="M358.117 43.6742H331.644V184.946H358.117V43.6742Z" fill="#18C4B8"/>
</g>
<g style="mix-blend-mode:multiply" opacity="0.5">
<path d="M357.989 52.3584H296.604V55.9047H357.989V52.3584Z" fill="#18C4B8"/>
</g>
<g style="mix-blend-mode:multiply" opacity="0.5">
<path d="M357.989 61.9817H296.604V65.528H357.989V61.9817Z" fill="#18C4B8"/>
</g>
<g style="mix-blend-mode:multiply" opacity="0.5">
<path d="M357.989 71.6053H296.604V75.1516H357.989V71.6053Z" fill="#18C4B8"/>
</g>
<g style="mix-blend-mode:multiply" opacity="0.5">
<path d="M357.989 81.2289H296.604V84.7752H357.989V81.2289Z" fill="#18C4B8"/>
</g>
<g style="mix-blend-mode:multiply" opacity="0.5">
<path d="M357.989 90.8522H296.604V94.3986H357.989V90.8522Z" fill="#18C4B8"/>
</g>
<g style="mix-blend-mode:multiply" opacity="0.5">
<path d="M357.989 100.478H296.604V104.025H357.989V100.478Z" fill="#18C4B8"/>
</g>
<g style="mix-blend-mode:multiply" opacity="0.5">
<path d="M357.989 110.102H296.604V113.648H357.989V110.102Z" fill="#18C4B8"/>
</g>
<g style="mix-blend-mode:multiply" opacity="0.5">
<path d="M357.989 119.725H296.604V123.272H357.989V119.725Z" fill="#18C4B8"/>
</g>
<g style="mix-blend-mode:multiply" opacity="0.5">
<path d="M357.989 129.349H296.604V132.895H357.989V129.349Z" fill="#18C4B8"/>
</g>
<g style="mix-blend-mode:multiply" opacity="0.5">
<path d="M357.989 138.972H296.604V142.518H357.989V138.972Z" fill="#18C4B8"/>
</g>
<g style="mix-blend-mode:multiply" opacity="0.5">
<path d="M357.989 148.595H296.604V152.142H357.989V148.595Z" fill="#18C4B8"/>
</g>
<g style="mix-blend-mode:multiply" opacity="0.5">
<path d="M357.989 158.219H296.604V161.765H357.989V158.219Z" fill="#18C4B8"/>
</g>
<g style="mix-blend-mode:multiply" opacity="0.5">
<path d="M357.989 167.842H296.604V171.389H357.989V167.842Z" fill="#18C4B8"/>
</g>
<g style="mix-blend-mode:multiply" opacity="0.5">
<path d="M357.989 177.466H296.604V181.012H357.989V177.466Z" fill="#18C4B8"/>
</g>
<g style="mix-blend-mode:multiply" opacity="0.5">
<path d="M352.207 21.4651H317.372V23.2178H352.207V21.4651Z" fill="#18C4B8"/>
</g>
<g style="mix-blend-mode:multiply" opacity="0.5">
<path d="M352.207 26.2181H317.372V27.9708H352.207V26.2181Z" fill="#18C4B8"/>
</g>
<g style="mix-blend-mode:multiply" opacity="0.5">
<path d="M352.207 30.9738H317.372V32.7238H352.207V30.9738Z" fill="#18C4B8"/>
</g>
<g style="mix-blend-mode:multiply" opacity="0.5">
<path d="M352.207 35.73H317.372V37.4827H352.207V35.73Z" fill="#18C4B8"/>
</g>
<g style="mix-blend-mode:multiply" opacity="0.5">
<path d="M352.207 40.4856H317.372V42.2356H352.207V40.4856Z" fill="#18C4B8"/>
</g>
<path d="M367.872 183.576H364.937L365.551 159.674H366.81L367.872 183.576Z" fill="#542919"/>
<path d="M366.789 172.825L365.727 173.231L359.415 163.875L359.871 163.701L366.789 172.825Z" fill="#542919"/>
<path d="M361.773 167.335C373.736 169.303 377.793 161.907 377.49 157.353C377.326 154.88 375.877 153.245 373.709 154.402C375.295 151.536 376.494 146.952 375.787 143.714C375.473 142.27 374.55 140.375 372.92 139.96C371.443 139.586 370.602 140.403 369.917 142.456C370.987 138.786 369.131 130.798 364.845 130.763C364.662 130.761 364.479 130.773 364.299 130.801C359.658 131.462 360.657 144.836 360.657 144.997C360.507 142.972 357.943 139.379 356.21 142.6C354.632 145.538 356.507 149.152 358.077 151.555C356.586 150.19 354.743 150.171 354.255 152.42C354.051 153.406 354.137 154.43 354.502 155.368C354.867 156.305 355.496 157.118 356.313 157.706C350.741 154.973 352.396 165.789 361.773 167.335Z" fill="#8AAF2C"/>
<path d="M367.717 154.05C367.757 154.015 367.757 154.015 367.717 154.05V154.05Z" fill="#4B630F"/>
<path d="M361.774 167.335C373.737 169.303 377.793 161.907 377.49 157.353C376.42 160.654 373.726 163.944 370.392 163.496C365.836 162.882 364.97 157.924 367.22 154.555L367.296 154.441C365.809 155.511 363.633 154.457 362.86 152.901C361.869 150.9 363.554 148.415 365.391 147.569C361.899 148.748 363.534 132.969 364.867 130.763C364.684 130.761 364.501 130.773 364.321 130.801C359.68 131.462 360.679 144.836 360.679 144.997C360.529 142.972 357.965 139.379 356.232 142.6C354.654 145.538 356.529 149.152 358.099 151.555C356.608 150.19 354.765 150.171 354.277 152.42C354.073 153.406 354.159 154.43 354.524 155.368C354.889 156.305 355.518 157.118 356.335 157.706C350.741 154.973 352.396 165.789 361.774 167.335Z" fill="#4B630F"/>
<path d="M374.263 148.639C374.536 147.146 374.58 145.794 373.938 144.402C373.548 143.559 372.158 141.541 371.102 142.521C374.713 138.735 376.029 146.346 374.263 148.639Z" fill="#DFFF7D"/>
<path d="M367.954 138.967C367.954 137.451 367.757 136.111 366.862 134.855C366.316 134.096 364.598 132.36 363.736 133.515C366.624 129.141 369.267 136.398 367.954 138.967Z" fill="#DFFF7D"/>
<path d="M355.282 152.374C355.828 153.785 356.486 154.97 357.758 155.827C358.53 156.346 360.761 157.348 361.157 155.961C360.035 161.075 354.973 155.246 355.282 152.374Z" fill="#8AAF2C"/>
<path d="M374.372 161.544C375.017 160.452 375.464 159.431 375.369 158.159C375.314 157.392 374.823 155.429 373.731 155.866C377.643 153.99 376.409 160.283 374.372 161.544Z" fill="#DFFF7D"/>
<path d="M307.786 183.576H304.852L305.466 159.674H306.724L307.786 183.576Z" fill="#542919"/>
<path d="M306.702 172.825L305.637 173.231L299.328 163.875L299.784 163.701L306.702 172.825Z" fill="#542919"/>
<path d="M301.687 167.335C313.648 169.303 317.707 161.907 317.404 157.354C317.241 154.88 315.791 153.245 313.62 154.402C315.209 151.536 316.405 146.952 315.701 143.714C315.387 142.27 314.464 140.375 312.831 139.96C311.357 139.586 310.514 140.403 309.828 142.456C310.899 138.786 309.042 130.798 304.753 130.763C304.571 130.761 304.388 130.773 304.207 130.801C299.566 131.462 300.565 144.836 300.565 144.997C300.412 142.972 297.852 139.379 296.118 142.6C294.54 145.538 296.413 149.152 297.983 151.555C296.495 150.19 294.652 150.171 294.161 152.42C293.958 153.406 294.044 154.429 294.409 155.367C294.775 156.305 295.403 157.117 296.219 157.706C290.653 154.973 292.31 165.789 301.687 167.335Z" fill="#8AAF2C"/>
<path d="M307.631 154.05C307.669 154.015 307.671 154.015 307.631 154.05V154.05Z" fill="#4B630F"/>
<path d="M301.688 167.335C313.648 169.303 317.708 161.907 317.405 157.354C316.332 160.654 313.64 163.944 310.306 163.496C305.747 162.882 304.885 157.924 307.134 154.555L307.211 154.441C305.723 155.511 303.547 154.457 302.774 152.901C301.783 150.9 303.468 148.415 305.305 147.569C301.813 148.748 303.449 132.969 304.778 130.763C304.595 130.761 304.413 130.773 304.232 130.801C299.591 131.462 300.59 144.836 300.59 144.997C300.437 142.972 297.877 139.379 296.143 142.6C294.565 145.538 296.438 149.152 298.008 151.555C296.52 150.19 294.677 150.171 294.185 152.42C293.983 153.406 294.069 154.429 294.434 155.367C294.799 156.305 295.428 157.117 296.244 157.706C290.653 154.973 292.31 165.789 301.688 167.335Z" fill="#4B630F"/>
<path d="M314.177 148.639C314.45 147.146 314.493 145.794 313.849 144.402C313.459 143.559 312.072 141.541 311.015 142.521C314.627 138.735 315.929 146.346 314.177 148.639Z" fill="#DFFF7D"/>
<path d="M307.865 138.967C307.865 137.451 307.672 136.111 306.773 134.855C306.227 134.096 304.513 132.36 303.65 133.515C306.539 129.141 309.181 136.398 307.865 138.967Z" fill="#DFFF7D"/>
<path d="M295.192 152.374C295.738 153.785 296.399 154.97 297.671 155.827C298.441 156.346 300.674 157.348 301.067 155.961C299.948 161.075 294.887 155.246 295.192 152.374Z" fill="#8AAF2C"/>
<path d="M314.287 161.544C314.928 160.452 315.379 159.431 315.283 158.159C315.229 157.392 314.737 155.429 313.645 155.866C317.557 153.99 316.323 160.283 314.287 161.544Z" fill="#DFFF7D"/>
<path d="M334.144 183.576H331.949L332.411 165.721H333.35L334.144 183.576Z" fill="#542919"/>
<path d="M333.334 175.544L332.539 175.85L327.825 168.858L328.166 168.727L333.334 175.544Z" fill="#542919"/>
<path d="M329.589 171.441C338.524 172.915 341.554 167.389 341.328 163.988C341.205 162.137 340.121 160.916 338.5 161.782C339.687 159.639 340.58 156.215 340.056 153.796C339.818 152.704 339.13 151.301 337.91 150.993C336.818 150.72 336.179 151.323 335.677 152.857C336.477 150.127 335.09 144.148 331.887 144.121C331.751 144.121 331.615 144.13 331.481 144.148C328.019 144.645 328.75 154.634 328.75 154.76C328.636 153.248 326.725 150.564 325.428 152.972C324.249 155.156 325.649 157.886 326.823 159.66C325.709 158.648 324.333 158.626 323.967 160.307C323.815 161.044 323.88 161.808 324.152 162.508C324.425 163.209 324.895 163.816 325.504 164.255C321.347 162.208 322.581 170.289 329.589 171.441Z" fill="#8AAF2C"/>
<path d="M334.027 161.523C334.058 161.492 334.058 161.492 334.027 161.523V161.523Z" fill="#4B630F"/>
<path d="M329.589 171.441C338.524 172.915 341.554 167.389 341.328 163.987C340.525 166.445 338.513 168.902 336.015 168.574C332.611 168.115 331.966 164.413 333.645 161.896C333.667 161.864 333.684 161.836 333.703 161.812C332.592 162.609 330.973 161.812 330.389 160.66C329.649 159.166 330.907 157.31 332.28 156.676C329.671 157.558 330.894 145.756 331.887 144.118C331.751 144.118 331.615 144.127 331.481 144.145C328.019 144.642 328.75 154.632 328.75 154.757C328.636 153.245 326.725 150.561 325.428 152.969C324.249 155.153 325.649 157.883 326.823 159.658C325.709 158.645 324.333 158.623 323.967 160.305C323.815 161.041 323.88 161.805 324.152 162.506C324.425 163.206 324.895 163.813 325.504 164.252C321.347 162.207 322.581 170.288 329.589 171.441Z" fill="#4B630F"/>
<path d="M338.917 157.476C339.114 156.36 339.155 155.35 338.674 154.31C338.382 153.682 337.347 152.175 336.558 152.906C339.253 150.075 340.228 155.762 338.917 157.476Z" fill="#DFFF7D"/>
<path d="M334.205 150.25C334.205 149.117 334.058 148.118 333.386 147.179C332.988 146.613 331.699 145.314 331.052 146.177C333.212 142.909 335.185 148.331 334.205 150.25Z" fill="#DFFF7D"/>
<path d="M324.737 160.267C325.15 161.32 325.635 162.205 326.588 162.846C327.164 163.234 328.832 163.982 329.127 162.948C328.289 166.767 324.508 162.41 324.737 160.267Z" fill="#8AAF2C"/>
<path d="M338.999 167.119C339.48 166.3 339.818 165.538 339.744 164.588C339.703 164.015 339.343 162.538 338.516 162.874C341.445 161.473 340.522 166.174 338.999 167.119Z" fill="#DFFF7D"/>
<path d="M-10 179.24V196.797H385.839V184.946H385.858V179.24H-10Z" fill="#8AAF2C"/>
<path d="M385.839 189.109H-10V208.378H385.839V189.109Z" fill="#717171"/>
<path d="M519.947 28.8363C519.655 23.2478 530.049 24.3972 534.717 28.4486C539.181 26.2645 548.64 22.5407 551.16 28.05C554.231 26.5184 564.182 24.0914 563.197 27.9654C565.367 27.1687 567.605 26.5693 569.883 26.1744C571.305 22.8001 578.619 22.1258 583.563 28.2083C583.271 14.438 593.664 17.2745 598.333 27.2528C602.796 21.9019 612.256 12.6962 614.776 26.2755C617.847 22.5025 627.798 16.5183 626.812 26.0625C635.328 18.432 643.807 18.5904 643.277 29.2649H506.502C503.744 26.9662 513.731 25.7376 519.947 28.8363Z" fill="white"/>
<path d="M667.127 7.76017C666.903 3.43304 674.943 4.32577 678.569 7.45987C682.025 5.77816 689.344 2.88703 691.304 7.1541C693.682 5.96653 701.389 4.08552 700.627 7.08585C702.311 6.46898 704.047 6.00482 705.815 5.69898C706.907 3.08632 712.585 2.56488 716.41 7.27696C716.183 -3.38936 724.223 -1.18621 727.852 6.53711C731.305 2.39016 738.624 -4.73801 740.585 5.77816C742.965 2.85427 750.686 -1.77863 749.908 5.61435C756.503 -0.29621 763.072 -0.173358 762.662 8.09324H656.704C654.58 6.31325 662.314 5.355 667.127 7.76017Z" fill="white"/>
<path d="M416.074 9.90322C415.848 5.57336 423.891 6.46609 427.516 9.60292C430.972 7.91848 438.289 5.02735 440.252 9.29442C442.63 8.10685 450.337 6.22857 449.572 9.22617C451.256 8.60993 452.992 8.14578 454.759 7.8393C455.851 5.22664 461.53 4.7052 465.355 9.41727C465.128 -1.24904 473.171 0.954112 476.796 8.67743C480.244 4.52502 487.558 -2.60315 489.524 7.91301C491.902 4.98913 499.609 0.35623 498.847 7.74921C505.443 1.83865 512.008 1.9615 511.599 10.2281H405.657C403.524 8.44811 411.261 7.48986 416.074 9.90322Z" fill="white"/>
<path d="M600.459 125.396H386V184.944H600.459V125.396Z" fill="#18C4B8"/>
<path d="M456.457 125.303H386V184.946H456.457V125.303Z" fill="#18C4B8"/>
<g style="mix-blend-mode:multiply" opacity="0.5">
<path d="M600.459 129.862H386V133.914H600.459V129.862Z" fill="#18C4B8"/>
</g>
<g style="mix-blend-mode:multiply" opacity="0.5">
<path d="M600.459 138.472H386V142.524H600.459V138.472Z" fill="#18C4B8"/>
</g>
<g style="mix-blend-mode:multiply" opacity="0.5">
<path d="M600.459 147.086H386V151.137H600.459V147.086Z" fill="#18C4B8"/>
</g>
<g style="mix-blend-mode:multiply" opacity="0.5">
<path d="M600.459 155.696H386V159.748H600.459V155.696Z" fill="#18C4B8"/>
</g>
<g style="mix-blend-mode:multiply" opacity="0.5">
<path d="M600.459 164.307H386V168.358H600.459V164.307Z" fill="#18C4B8"/>
</g>
<g style="mix-blend-mode:multiply" opacity="0.5">
<path d="M600.459 172.917H386V176.972H600.459V172.917Z" fill="#18C4B8"/>
</g>
<path d="M781.857 138.041H685.227V184.946H781.857V138.041Z" fill="#18C4B8"/>
<path d="M724.182 137.965H685.227V184.943H724.182V137.965Z" fill="#18C4B8"/>
<g style="mix-blend-mode:multiply" opacity="0.5">
<path d="M781.857 141.557H685.227V144.749H781.857V141.557Z" fill="#18C4B8"/>
</g>
<g style="mix-blend-mode:multiply" opacity="0.5">
<path d="M781.857 148.342H685.227V151.533H781.857V148.342Z" fill="#18C4B8"/>
</g>
<g style="mix-blend-mode:multiply" opacity="0.5">
<path d="M781.857 155.123H685.227V158.314H781.857V155.123Z" fill="#18C4B8"/>
</g>
<g style="mix-blend-mode:multiply" opacity="0.5">
<path d="M781.857 161.907H685.227V165.099H781.857V161.907Z" fill="#18C4B8"/>
</g>
<g style="mix-blend-mode:multiply" opacity="0.5">
<path d="M781.857 168.689H685.227V171.88H781.857V168.689Z" fill="#18C4B8"/>
</g>
<g style="mix-blend-mode:multiply" opacity="0.5">
<path d="M781.857 175.473H685.227V178.667H781.857V175.473Z" fill="#18C4B8"/>
</g>
<path d="M627.036 110.429V185.044H684.979V130.127L655.637 110.429H627.036Z" fill="#61BACE"/>
<g style="mix-blend-mode:multiply" opacity="0.3">
<path d="M684.979 130.127H664.921V185.042H684.979V130.127Z" fill="#18C4B8"/>
</g>
<path d="M627.036 110.429V185.044H664.921V129.944L654.706 124.68L649.923 122.218L634.839 114.445L634.105 114.071L629.324 111.609L627.036 110.429Z" fill="#18C4B8"/>
<g style="mix-blend-mode:multiply" opacity="0.5">
<path d="M684.976 132.96H627.036V135.423H684.976V132.96Z" fill="#18C4B8"/>
</g>
<g style="mix-blend-mode:multiply" opacity="0.5">
<path d="M627.036 122.218V124.68H654.706L649.923 122.218H627.036Z" fill="#18C4B8"/>
</g>
<g style="mix-blend-mode:multiply" opacity="0.5">
<path d="M626.954 111.609V114.071H634.104L629.324 111.609H626.954Z" fill="#18C4B8"/>
</g>
<g style="mix-blend-mode:multiply" opacity="0.5">
<path d="M684.976 144.102H627.036V146.564H684.976V144.102Z" fill="#18C4B8"/>
</g>
<g style="mix-blend-mode:multiply" opacity="0.5">
<path d="M684.976 155.243H627.036V157.705H684.976V155.243Z" fill="#18C4B8"/>
</g>
<g style="mix-blend-mode:multiply" opacity="0.5">
<path d="M684.976 166.385H627.036V168.847H684.976V166.385Z" fill="#18C4B8"/>
</g>
<g style="mix-blend-mode:multiply" opacity="0.5">
<path d="M684.976 177.526H627.036V179.988H684.976V177.526Z" fill="#18C4B8"/>
</g>
<g style="mix-blend-mode:color-dodge" opacity="0.4">
<path d="M634.932 185.045H628.991V10.1629L634.561 12.5763L634.566 14.7221L634.569 16.1554L634.58 20.8046L634.582 22.2379L634.593 26.8872L634.596 28.3205L634.604 32.9725L634.61 34.403L634.618 39.055L634.623 40.4856L634.631 45.1376L634.634 46.5682L634.645 51.2202L634.648 52.6507L634.659 57.3027L634.662 58.7333L634.67 63.3853L634.675 64.8186L634.683 69.4678L634.686 70.9011L634.697 75.5531L634.7 76.9837L634.711 81.6357L634.713 83.0662L634.724 87.7182L634.727 89.1488L634.735 93.8008L634.741 95.2313L634.749 99.8834L634.752 101.314L634.763 105.966L634.765 107.399L634.776 112.048L634.779 113.482L634.79 118.134L634.793 119.564L634.801 124.216L634.806 125.647L634.814 130.299L634.817 131.729L634.828 136.381L634.831 137.812L634.842 142.464L634.844 143.895L634.855 148.547L634.858 149.977L634.869 154.629L634.872 156.062L634.88 160.712L634.883 162.142L634.894 166.797L634.896 168.227L634.907 172.879L634.91 174.31L634.918 178.962L634.924 180.393L634.932 185.045Z" fill="#B2662D"/>
</g>
<g style="mix-blend-mode:color-dodge" opacity="0.4">
<path d="M617.795 71.6161L617.104 72.012V185.044H612.649V71.6161H617.795Z" fill="#B2662D"/>
</g>
<g style="mix-blend-mode:color-dodge" opacity="0.4">
<path d="M607.077 140.315V185.045H599.277V142.723L600.009 142.499L604.792 141.023L607.077 140.315Z" fill="#B2662D"/>
</g>
<path d="M608.933 4.70251V185.044H655.511L655.492 180.392V179.988L655.486 178.962L655.484 177.526L655.467 174.312L655.464 172.876L655.448 168.847V168.227L655.44 166.797L655.437 166.384L655.424 162.142L655.418 160.711L655.407 157.706L655.399 156.059L655.396 155.243L655.394 154.632L655.374 149.977L655.372 148.546L655.363 146.564L655.353 144.102L655.35 143.897L655.347 142.464L655.328 137.812L655.323 136.381L655.32 135.423L655.312 132.96L655.306 131.729L655.301 130.299L655.282 125.647L655.279 124.975L655.276 124.216L655.257 119.564L655.254 118.133L655.235 113.481L655.23 112.048L655.224 110.429L655.211 107.396L655.205 105.966L655.189 101.314L655.183 99.8831L655.164 95.2338L655.159 93.8005L655.14 89.1485L655.137 87.7179L655.118 83.0659L655.112 81.6327L655.096 76.9834L655.09 75.5528L655.069 70.8981L655.066 69.4703L655.047 64.8183L655.041 63.385L655.022 58.7357L655.017 57.3024L655 52.6504L654.992 51.2199L654.976 46.5679L654.973 45.1373L654.954 40.4853L654.949 39.0548L654.929 34.4028L654.924 32.9695L654.905 28.3202L654.902 26.8869L654.883 22.2349L654.875 20.8071L654.858 16.1551L654.856 14.7218L654.845 12.576L644.866 10.1626L633.283 7.36432L622.262 4.70251H608.933Z" fill="#18C4B8"/>
<g style="mix-blend-mode:multiply" opacity="0.5">
<path d="M654.858 16.1553H608.933V14.722H654.856L654.858 16.1553Z" fill="#18C4B8"/>
</g>
<g style="mix-blend-mode:multiply" opacity="0.5">
<path d="M654.883 22.2378H608.933V20.8045H654.878L654.883 22.2378Z" fill="#18C4B8"/>
</g>
<g style="mix-blend-mode:multiply" opacity="0.5">
<path d="M654.905 28.3202H608.933V26.887H654.902L654.905 28.3202Z" fill="#18C4B8"/>
</g>
<g style="mix-blend-mode:multiply" opacity="0.5">
<path d="M654.929 34.4028H608.933V32.9723H654.924L654.929 34.4028Z" fill="#18C4B8"/>
</g>
<g style="mix-blend-mode:multiply" opacity="0.5">
<path d="M654.954 40.4855H608.933V39.055H654.948L654.954 40.4855Z" fill="#18C4B8"/>
</g>
<g style="mix-blend-mode:multiply" opacity="0.5">
<path d="M654.976 46.568H608.933V45.1375H654.973L654.976 46.568Z" fill="#18C4B8"/>
</g>
<g style="mix-blend-mode:multiply" opacity="0.5">
<path d="M655 52.6505H608.933V51.2199H654.995L655 52.6505Z" fill="#18C4B8"/>
</g>
<g style="mix-blend-mode:multiply" opacity="0.5">
<path d="M655.022 58.7332H608.933V57.3026H655.019L655.022 58.7332Z" fill="#18C4B8"/>
</g>
<g style="mix-blend-mode:multiply" opacity="0.5">
<path d="M655.047 64.8182H608.933V63.3849H655.041L655.047 64.8182Z" fill="#18C4B8"/>
</g>
<g style="mix-blend-mode:multiply" opacity="0.5">
<path d="M655.069 70.9009H608.933V69.4677H655.066L655.069 70.9009Z" fill="#18C4B8"/>
</g>
<g style="mix-blend-mode:multiply" opacity="0.5">
<path d="M655.093 76.9836H608.933V75.5531H655.09L655.093 76.9836Z" fill="#18C4B8"/>
</g>
<g style="mix-blend-mode:multiply" opacity="0.5">
<path d="M655.118 83.0661H608.933V81.6356H655.112L655.118 83.0661Z" fill="#18C4B8"/>
</g>
<g style="mix-blend-mode:multiply" opacity="0.5">
<path d="M655.14 89.1487H608.933V87.7181H655.137L655.14 89.1487Z" fill="#18C4B8"/>
</g>
<g style="mix-blend-mode:multiply" opacity="0.5">
<path d="M655.164 95.2311H608.933V93.8006H655.159L655.164 95.2311Z" fill="#18C4B8"/>
</g>
<g style="mix-blend-mode:multiply" opacity="0.5">
<path d="M655.186 101.314H608.933V99.8833H655.183L655.186 101.314Z" fill="#18C4B8"/>
</g>
<g style="mix-blend-mode:multiply" opacity="0.5">
<path d="M655.211 107.399H608.933V105.966H655.205L655.211 107.399Z" fill="#18C4B8"/>
</g>
<g style="mix-blend-mode:multiply" opacity="0.5">
<path d="M655.235 113.481H608.933V112.048H655.23L655.235 113.481Z" fill="#18C4B8"/>
</g>
<g style="mix-blend-mode:multiply" opacity="0.5">
<path d="M655.257 119.564H608.933V118.134H655.254L655.257 119.564Z" fill="#18C4B8"/>
</g>
<g style="mix-blend-mode:multiply" opacity="0.5">
<path d="M655.282 125.647H608.933V124.216H655.276L655.282 125.647Z" fill="#18C4B8"/>
</g>
<g style="mix-blend-mode:multiply" opacity="0.5">
<path d="M655.303 131.729H608.933V130.299H655.301L655.303 131.729Z" fill="#18C4B8"/>
</g>
<g style="mix-blend-mode:multiply" opacity="0.5">
<path d="M655.328 137.812H608.933V136.381H655.323L655.328 137.812Z" fill="#18C4B8"/>
</g>
<g style="mix-blend-mode:multiply" opacity="0.5">
<path d="M655.35 143.894H608.933V142.464H655.347L655.35 143.894Z" fill="#18C4B8"/>
</g>
<g style="mix-blend-mode:multiply" opacity="0.5">
<path d="M655.377 149.977H608.933V148.546H655.372L655.377 149.977Z" fill="#18C4B8"/>
</g>
<g style="mix-blend-mode:multiply" opacity="0.5">
<path d="M655.399 156.062H608.933V154.629H655.394L655.399 156.062Z" fill="#18C4B8"/>
</g>
<g style="mix-blend-mode:multiply" opacity="0.5">
<path d="M655.424 162.142H608.933V160.711H655.418L655.424 162.142Z" fill="#18C4B8"/>
</g>
<g style="mix-blend-mode:multiply" opacity="0.5">
<path d="M655.445 168.227H608.933V166.797H655.44L655.445 168.227Z" fill="#18C4B8"/>
</g>
<g style="mix-blend-mode:multiply" opacity="0.5">
<path d="M655.47 174.31H608.933V172.879H655.464L655.47 174.31Z" fill="#18C4B8"/>
</g>
<g style="mix-blend-mode:multiply" opacity="0.5">
<path d="M655.492 180.392H608.933V178.962H655.486L655.492 180.392Z" fill="#18C4B8"/>
</g>
<g style="mix-blend-mode:multiply" opacity="0.5">
<path d="M608.933 4.70251V185.62H633.283V7.36432L622.262 4.70251H608.933Z" fill="#18C4B8"/>
</g>
<path d="M617.104 71.6161V185.044H578.973V85.5695L602.593 71.6161H617.104Z" fill="#18C4B8"/>
<g style="mix-blend-mode:multiply" opacity="0.5">
<path d="M617.794 71.6161L617.104 72.012L612.648 74.5646L593.456 85.5695L578.973 86.14V85.5695L602.593 71.6161H617.794Z" fill="#18C4B8"/>
</g>
<g style="mix-blend-mode:multiply" opacity="0.5">
<path d="M617.104 92.0125H578.973V94.7644H617.104V92.0125Z" fill="#18C4B8"/>
</g>
<g style="mix-blend-mode:multiply" opacity="0.5">
<path d="M617.104 101.445H578.973V104.197H617.104V101.445Z" fill="#18C4B8"/>
</g>
<g style="mix-blend-mode:multiply" opacity="0.5">
<path d="M617.104 110.88H578.973V113.632H617.104V110.88Z" fill="#18C4B8"/>
</g>
<g style="mix-blend-mode:multiply" opacity="0.5">
<path d="M617.104 120.315H578.973V123.067H617.104V120.315Z" fill="#18C4B8"/>
</g>
<g style="mix-blend-mode:multiply" opacity="0.5">
<path d="M617.104 129.75H578.973V132.502H617.104V129.75Z" fill="#18C4B8"/>
</g>
<g style="mix-blend-mode:multiply" opacity="0.5">
<path d="M617.104 139.185H578.973V141.937H617.104V139.185Z" fill="#18C4B8"/>
</g>
<g style="mix-blend-mode:multiply" opacity="0.5">
<path d="M617.104 148.62H578.973V151.372H617.104V148.62Z" fill="#18C4B8"/>
</g>
<g style="mix-blend-mode:multiply" opacity="0.5">
<path d="M617.104 158.055H578.973V160.807H617.104V158.055Z" fill="#18C4B8"/>
</g>
<g style="mix-blend-mode:multiply" opacity="0.5">
<path d="M617.104 167.49H578.973V170.242H617.104V167.49Z" fill="#18C4B8"/>
</g>
<g style="mix-blend-mode:multiply" opacity="0.5">
<path d="M617.104 176.925H578.973V179.677H617.104V176.925Z" fill="#18C4B8"/>
</g>
<g style="mix-blend-mode:multiply" opacity="0.5">
<path d="M593.459 85.5694H578.973V185.044H593.459V85.5694Z" fill="#18C4B8"/>
</g>
<path d="M438.352 68.9134V182.342H400.221V82.8694L423.844 68.9134H438.352Z" fill="#18C4B8"/>
<g style="mix-blend-mode:multiply" opacity="0.5">
<path d="M439.043 68.9134L438.352 69.3093L433.897 71.8646L414.707 82.8694L400.221 83.44V82.8694L423.844 68.9134H439.043Z" fill="#18C4B8"/>
</g>
<g style="mix-blend-mode:multiply" opacity="0.5">
<path d="M438.352 89.3096H400.221V92.0615H438.352V89.3096Z" fill="#18C4B8"/>
</g>
<g style="mix-blend-mode:multiply" opacity="0.5">
<path d="M438.352 98.7449H400.221V101.497H438.352V98.7449Z" fill="#18C4B8"/>
</g>
<g style="mix-blend-mode:multiply" opacity="0.5">
<path d="M438.352 108.18H400.221V110.932H438.352V108.18Z" fill="#18C4B8"/>
</g>
<g style="mix-blend-mode:multiply" opacity="0.5">
<path d="M438.352 117.615H400.221V120.367H438.352V117.615Z" fill="#18C4B8"/>
</g>
<g style="mix-blend-mode:multiply" opacity="0.5">
<path d="M438.352 127.05H400.221V129.802H438.352V127.05Z" fill="#18C4B8"/>
</g>
<g style="mix-blend-mode:multiply" opacity="0.5">
<path d="M438.352 136.482H400.221V139.234H438.352V136.482Z" fill="#18C4B8"/>
</g>
<g style="mix-blend-mode:multiply" opacity="0.5">
<path d="M438.352 145.917H400.221V148.669H438.352V145.917Z" fill="#18C4B8"/>
</g>
<g style="mix-blend-mode:multiply" opacity="0.5">
<path d="M438.352 155.352H400.221V158.104H438.352V155.352Z" fill="#18C4B8"/>
</g>
<g style="mix-blend-mode:multiply" opacity="0.5">
<path d="M438.352 164.788H400.221V167.539H438.352V164.788Z" fill="#18C4B8"/>
</g>
<g style="mix-blend-mode:multiply" opacity="0.5">
<path d="M438.352 174.223H400.221V176.975H438.352V174.223Z" fill="#18C4B8"/>
</g>
<g style="mix-blend-mode:multiply" opacity="0.5">
<path d="M414.707 82.8696H400.221V182.345H414.707V82.8696Z" fill="#18C4B8"/>
</g>
<path d="M564.952 21.2932H529.871V87.6526H564.952V21.2932Z" fill="#18C4B8"/>
<g style="mix-blend-mode:multiply" opacity="0.5">
<path d="M564.95 21.2932H549.853V87.6526H564.95V21.2932Z" fill="#18C4B8"/>
</g>
<path d="M570.614 43.6742H509.101V184.946H570.614V43.6742Z" fill="#18C4B8"/>
<g style="mix-blend-mode:multiply" opacity="0.5">
<path d="M570.615 43.6742H544.141V184.946H570.615V43.6742Z" fill="#18C4B8"/>
</g>
<g style="mix-blend-mode:multiply" opacity="0.5">
<path d="M570.486 52.3584H509.101V55.9047H570.486V52.3584Z" fill="#18C4B8"/>
</g>
<g style="mix-blend-mode:multiply" opacity="0.5">
<path d="M570.486 61.9817H509.101V65.528H570.486V61.9817Z" fill="#18C4B8"/>
</g>
<g style="mix-blend-mode:multiply" opacity="0.5">
<path d="M570.486 71.6053H509.101V75.1516H570.486V71.6053Z" fill="#18C4B8"/>
</g>
<g style="mix-blend-mode:multiply" opacity="0.5">
<path d="M570.486 81.2289H509.101V84.7752H570.486V81.2289Z" fill="#18C4B8"/>
</g>
<g style="mix-blend-mode:multiply" opacity="0.5">
<path d="M570.486 90.8522H509.101V94.3986H570.486V90.8522Z" fill="#18C4B8"/>
</g>
<g style="mix-blend-mode:multiply" opacity="0.5">
<path d="M570.486 100.478H509.101V104.025H570.486V100.478Z" fill="#18C4B8"/>
</g>
<g style="mix-blend-mode:multiply" opacity="0.5">
<path d="M570.486 110.102H509.101V113.648H570.486V110.102Z" fill="#18C4B8"/>
</g>
<g style="mix-blend-mode:multiply" opacity="0.5">
<path d="M570.486 119.725H509.101V123.272H570.486V119.725Z" fill="#18C4B8"/>
</g>
<g style="mix-blend-mode:multiply" opacity="0.5">
<path d="M570.486 129.349H509.101V132.895H570.486V129.349Z" fill="#18C4B8"/>
</g>
<g style="mix-blend-mode:multiply" opacity="0.5">
<path d="M570.486 138.972H509.101V142.518H570.486V138.972Z" fill="#18C4B8"/>
</g>
<g style="mix-blend-mode:multiply" opacity="0.5">
<path d="M570.486 148.595H509.101V152.142H570.486V148.595Z" fill="#18C4B8"/>
</g>
<g style="mix-blend-mode:multiply" opacity="0.5">
<path d="M570.486 158.219H509.101V161.765H570.486V158.219Z" fill="#18C4B8"/>
</g>
<g style="mix-blend-mode:multiply" opacity="0.5">
<path d="M570.486 167.842H509.101V171.389H570.486V167.842Z" fill="#18C4B8"/>
</g>
<g style="mix-blend-mode:multiply" opacity="0.5">
<path d="M570.486 177.466H509.101V181.012H570.486V177.466Z" fill="#18C4B8"/>
</g>
<g style="mix-blend-mode:multiply" opacity="0.5">
<path d="M564.704 21.4651H529.871V23.2178H564.704V21.4651Z" fill="#18C4B8"/>
</g>
<g style="mix-blend-mode:multiply" opacity="0.5">
<path d="M564.704 26.2181H529.871V27.9708H564.704V26.2181Z" fill="#18C4B8"/>
</g>
<g style="mix-blend-mode:multiply" opacity="0.5">
<path d="M564.704 30.9738H529.871V32.7238H564.704V30.9738Z" fill="#18C4B8"/>
</g>
<g style="mix-blend-mode:multiply" opacity="0.5">
<path d="M564.704 35.73H529.871V37.4827H564.704V35.73Z" fill="#18C4B8"/>
</g>
<g style="mix-blend-mode:multiply" opacity="0.5">
<path d="M564.704 40.4856H529.871V42.2356H564.704V40.4856Z" fill="#18C4B8"/>
</g>
<path d="M512.461 48.1403H483.135V103.615H512.461V48.1403Z" fill="#18C4B8"/>
<g style="mix-blend-mode:multiply" opacity="0.5">
<path d="M512.462 48.1403H499.841V103.615H512.462V48.1403Z" fill="#18C4B8"/>
</g>
<path d="M517.198 66.8496H465.775V184.946H517.198V66.8496Z" fill="#18C4B8"/>
<g style="mix-blend-mode:multiply" opacity="0.5">
<path d="M517.195 66.8496H495.065V184.946H517.195V66.8496Z" fill="#18C4B8"/>
</g>
<g style="mix-blend-mode:multiply" opacity="0.5">
<path d="M517.092 74.1116H465.775V77.0764H517.092V74.1116Z" fill="#18C4B8"/>
</g>
<g style="mix-blend-mode:multiply" opacity="0.5">
<path d="M517.092 82.1542H465.775V85.119H517.092V82.1542Z" fill="#18C4B8"/>
</g>
<g style="mix-blend-mode:multiply" opacity="0.5">
<path d="M517.092 90.1998H465.775V93.1647H517.092V90.1998Z" fill="#18C4B8"/>
</g>
<g style="mix-blend-mode:multiply" opacity="0.5">
<path d="M517.092 98.2451H465.775V101.21H517.092V98.2451Z" fill="#18C4B8"/>
</g>
<g style="mix-blend-mode:multiply" opacity="0.5">
<path d="M517.092 106.288H465.775V109.253H517.092V106.288Z" fill="#18C4B8"/>
</g>
<g style="mix-blend-mode:multiply" opacity="0.5">
<path d="M517.092 114.333H465.775V117.298H517.092V114.333Z" fill="#18C4B8"/>
</g>
<g style="mix-blend-mode:multiply" opacity="0.5">
<path d="M517.092 122.379H465.775V125.344H517.092V122.379Z" fill="#18C4B8"/>
</g>
<g style="mix-blend-mode:multiply" opacity="0.5">
<path d="M517.092 130.424H465.775V133.389H517.092V130.424Z" fill="#18C4B8"/>
</g>
<g style="mix-blend-mode:multiply" opacity="0.5">
<path d="M517.092 138.467H465.775V141.432H517.092V138.467Z" fill="#18C4B8"/>
</g>
<g style="mix-blend-mode:multiply" opacity="0.5">
<path d="M517.092 146.513H465.775V149.477H517.092V146.513Z" fill="#18C4B8"/>
</g>
<g style="mix-blend-mode:multiply" opacity="0.5">
<path d="M517.092 154.558H465.775V157.523H517.092V154.558Z" fill="#18C4B8"/>
</g>
<g style="mix-blend-mode:multiply" opacity="0.5">
<path d="M517.092 162.603H465.775V165.568H517.092V162.603Z" fill="#18C4B8"/>
</g>
<g style="mix-blend-mode:multiply" opacity="0.5">
<path d="M517.092 170.646H465.775V173.611H517.092V170.646Z" fill="#18C4B8"/>
</g>
<g style="mix-blend-mode:multiply" opacity="0.5">
<path d="M517.092 178.692H465.775V181.656H517.092V178.692Z" fill="#18C4B8"/>
</g>
<g style="mix-blend-mode:multiply" opacity="0.5">
<path d="M512.254 48.2827H483.135V49.7487H512.254V48.2827Z" fill="#18C4B8"/>
</g>
<g style="mix-blend-mode:multiply" opacity="0.5">
<path d="M512.254 52.2574H483.135V53.7235H512.254V52.2574Z" fill="#18C4B8"/>
</g>
<g style="mix-blend-mode:multiply" opacity="0.5">
<path d="M512.254 56.2353H483.135V57.6986H512.254V56.2353Z" fill="#18C4B8"/>
</g>
<g style="mix-blend-mode:multiply" opacity="0.5">
<path d="M512.254 60.2073H483.135V61.6734H512.254V60.2073Z" fill="#18C4B8"/>
</g>
<g style="mix-blend-mode:multiply" opacity="0.5">
<path d="M512.254 64.1849H483.135V65.6482H512.254V64.1849Z" fill="#18C4B8"/>
</g>
<path d="M748.453 21.2932H713.372V87.6526H748.453V21.2932Z" fill="#18C4B8"/>
<g style="mix-blend-mode:multiply" opacity="0.5">
<path d="M748.452 21.2932H733.355V87.6526H748.452V21.2932Z" fill="#18C4B8"/>
</g>
<path d="M754.118 43.6742H692.604V184.946H754.118V43.6742Z" fill="#18C4B8"/>
<g style="mix-blend-mode:multiply" opacity="0.5">
<path d="M754.117 43.6742H727.644V184.946H754.117V43.6742Z" fill="#18C4B8"/>
</g>
<g style="mix-blend-mode:multiply" opacity="0.5">
<path d="M753.989 52.3584H692.604V55.9047H753.989V52.3584Z" fill="#18C4B8"/>
</g>
<g style="mix-blend-mode:multiply" opacity="0.5">
<path d="M753.989 61.9817H692.604V65.528H753.989V61.9817Z" fill="#18C4B8"/>
</g>
<g style="mix-blend-mode:multiply" opacity="0.5">
<path d="M753.989 71.6053H692.604V75.1516H753.989V71.6053Z" fill="#18C4B8"/>
</g>
<g style="mix-blend-mode:multiply" opacity="0.5">
<path d="M753.989 81.2289H692.604V84.7752H753.989V81.2289Z" fill="#18C4B8"/>
</g>
<g style="mix-blend-mode:multiply" opacity="0.5">
<path d="M753.989 90.8522H692.604V94.3986H753.989V90.8522Z" fill="#18C4B8"/>
</g>
<g style="mix-blend-mode:multiply" opacity="0.5">
<path d="M753.989 100.478H692.604V104.025H753.989V100.478Z" fill="#18C4B8"/>
</g>
<g style="mix-blend-mode:multiply" opacity="0.5">
<path d="M753.989 110.102H692.604V113.648H753.989V110.102Z" fill="#18C4B8"/>
</g>
<g style="mix-blend-mode:multiply" opacity="0.5">
<path d="M753.989 119.725H692.604V123.272H753.989V119.725Z" fill="#18C4B8"/>
</g>
<g style="mix-blend-mode:multiply" opacity="0.5">
<path d="M753.989 129.349H692.604V132.895H753.989V129.349Z" fill="#18C4B8"/>
</g>
<g style="mix-blend-mode:multiply" opacity="0.5">
<path d="M753.989 138.972H692.604V142.518H753.989V138.972Z" fill="#18C4B8"/>
</g>
<g style="mix-blend-mode:multiply" opacity="0.5">
<path d="M753.989 148.595H692.604V152.142H753.989V148.595Z" fill="#18C4B8"/>
</g>
<g style="mix-blend-mode:multiply" opacity="0.5">
<path d="M753.989 158.219H692.604V161.765H753.989V158.219Z" fill="#18C4B8"/>
</g>
<g style="mix-blend-mode:multiply" opacity="0.5">
<path d="M753.989 167.842H692.604V171.389H753.989V167.842Z" fill="#18C4B8"/>
</g>
<g style="mix-blend-mode:multiply" opacity="0.5">
<path d="M753.989 177.466H692.604V181.012H753.989V177.466Z" fill="#18C4B8"/>
</g>
<g style="mix-blend-mode:multiply" opacity="0.5">
<path d="M748.207 21.4651H713.372V23.2178H748.207V21.4651Z" fill="#18C4B8"/>
</g>
<g style="mix-blend-mode:multiply" opacity="0.5">
<path d="M748.207 26.2181H713.372V27.9708H748.207V26.2181Z" fill="#18C4B8"/>
</g>
<g style="mix-blend-mode:multiply" opacity="0.5">
<path d="M748.207 30.9738H713.372V32.7238H748.207V30.9738Z" fill="#18C4B8"/>
</g>
<g style="mix-blend-mode:multiply" opacity="0.5">
<path d="M748.207 35.73H713.372V37.4827H748.207V35.73Z" fill="#18C4B8"/>
</g>
<g style="mix-blend-mode:multiply" opacity="0.5">
<path d="M748.207 40.4856H713.372V42.2356H748.207V40.4856Z" fill="#18C4B8"/>
</g>
<path d="M763.872 183.576H760.937L761.551 159.674H762.81L763.872 183.576Z" fill="#542919"/>
<path d="M762.789 172.825L761.727 173.231L755.415 163.875L755.871 163.701L762.789 172.825Z" fill="#542919"/>
<path d="M757.773 167.335C769.736 169.303 773.793 161.907 773.49 157.353C773.326 154.88 771.877 153.245 769.709 154.402C771.295 151.536 772.494 146.952 771.787 143.714C771.473 142.27 770.55 140.375 768.92 139.96C767.443 139.586 766.602 140.403 765.917 142.456C766.987 138.786 765.131 130.798 760.845 130.763C760.662 130.761 760.479 130.773 760.299 130.801C755.658 131.462 756.657 144.836 756.657 144.997C756.507 142.972 753.943 139.379 752.21 142.6C750.632 145.538 752.507 149.152 754.077 151.555C752.586 150.19 750.743 150.171 750.255 152.42C750.051 153.406 750.137 154.43 750.502 155.368C750.867 156.305 751.496 157.118 752.313 157.706C746.741 154.973 748.396 165.789 757.773 167.335Z" fill="#8AAF2C"/>
<path d="M763.716 154.05C763.757 154.015 763.757 154.015 763.716 154.05V154.05Z" fill="#4B630F"/>
<path d="M757.774 167.335C769.737 169.303 773.793 161.907 773.49 157.353C772.42 160.654 769.726 163.944 766.392 163.496C761.836 162.882 760.97 157.924 763.22 154.555L763.296 154.441C761.809 155.511 759.633 154.457 758.86 152.901C757.869 150.9 759.554 148.415 761.391 147.569C757.899 148.748 759.534 132.969 760.867 130.763C760.684 130.761 760.501 130.773 760.321 130.801C755.68 131.462 756.679 144.836 756.679 144.997C756.529 142.972 753.965 139.379 752.232 142.6C750.654 145.538 752.529 149.152 754.099 151.555C752.608 150.19 750.765 150.171 750.277 152.42C750.073 153.406 750.159 154.43 750.524 155.368C750.889 156.305 751.518 157.118 752.335 157.706C746.741 154.973 748.396 165.789 757.774 167.335Z" fill="#4B630F"/>
<path d="M770.263 148.639C770.536 147.146 770.58 145.794 769.938 144.402C769.548 143.559 768.158 141.541 767.102 142.521C770.713 138.735 772.029 146.346 770.263 148.639Z" fill="#DFFF7D"/>
<path d="M763.954 138.967C763.954 137.451 763.757 136.111 762.862 134.855C762.316 134.096 760.598 132.36 759.736 133.515C762.624 129.141 765.267 136.398 763.954 138.967Z" fill="#DFFF7D"/>
<path d="M751.282 152.374C751.828 153.785 752.486 154.97 753.758 155.827C754.53 156.346 756.761 157.348 757.157 155.961C756.035 161.075 750.973 155.246 751.282 152.374Z" fill="#8AAF2C"/>
<path d="M770.372 161.544C771.017 160.452 771.464 159.431 771.369 158.159C771.314 157.392 770.823 155.429 769.731 155.866C773.643 153.99 772.409 160.283 770.372 161.544Z" fill="#DFFF7D"/>
<path d="M703.786 183.576H700.852L701.466 159.674H702.724L703.786 183.576Z" fill="#542919"/>
<path d="M702.702 172.825L701.637 173.231L695.328 163.875L695.784 163.701L702.702 172.825Z" fill="#542919"/>
<path d="M697.687 167.335C709.648 169.303 713.707 161.907 713.404 157.354C713.241 154.88 711.791 153.245 709.62 154.402C711.209 151.536 712.405 146.952 711.701 143.714C711.387 142.27 710.464 140.375 708.831 139.96C707.357 139.586 706.514 140.403 705.828 142.456C706.899 138.786 705.042 130.798 700.753 130.763C700.571 130.761 700.388 130.773 700.207 130.801C695.566 131.462 696.565 144.836 696.565 144.997C696.412 142.972 693.852 139.379 692.118 142.6C690.54 145.538 692.413 149.152 693.983 151.555C692.495 150.19 690.652 150.171 690.161 152.42C689.958 153.406 690.044 154.429 690.409 155.367C690.775 156.305 691.403 157.117 692.219 157.706C686.653 154.973 688.31 165.789 697.687 167.335Z" fill="#8AAF2C"/>
<path d="M703.631 154.05C703.669 154.015 703.671 154.015 703.631 154.05V154.05Z" fill="#4B630F"/>
<path d="M697.688 167.335C709.648 169.303 713.708 161.907 713.405 157.354C712.332 160.654 709.64 163.944 706.306 163.496C701.747 162.882 700.885 157.924 703.134 154.555L703.211 154.441C701.723 155.511 699.547 154.457 698.774 152.901C697.783 150.9 699.468 148.415 701.305 147.569C697.813 148.748 699.449 132.969 700.778 130.763C700.595 130.761 700.413 130.773 700.232 130.801C695.591 131.462 696.59 144.836 696.59 144.997C696.437 142.972 693.877 139.379 692.143 142.6C690.565 145.538 692.438 149.152 694.008 151.555C692.52 150.19 690.677 150.171 690.185 152.42C689.983 153.406 690.069 154.429 690.434 155.367C690.799 156.305 691.428 157.117 692.244 157.706C686.653 154.973 688.31 165.789 697.688 167.335Z" fill="#4B630F"/>
<path d="M710.177 148.639C710.45 147.146 710.493 145.794 709.849 144.402C709.459 143.559 708.072 141.541 707.015 142.521C710.627 138.735 711.929 146.346 710.177 148.639Z" fill="#DFFF7D"/>
<path d="M703.865 138.967C703.865 137.451 703.672 136.111 702.773 134.855C702.227 134.096 700.513 132.36 699.65 133.515C702.539 129.141 705.181 136.398 703.865 138.967Z" fill="#DFFF7D"/>
<path d="M691.192 152.374C691.738 153.785 692.399 154.97 693.671 155.827C694.441 156.346 696.674 157.348 697.067 155.961C695.948 161.075 690.887 155.246 691.192 152.374Z" fill="#8AAF2C"/>
<path d="M710.287 161.544C710.928 160.452 711.379 159.431 711.283 158.159C711.229 157.392 710.737 155.429 709.645 155.866C713.557 153.99 712.323 160.283 710.287 161.544Z" fill="#DFFF7D"/>
<path d="M730.144 183.576H727.949L728.411 165.721H729.35L730.144 183.576Z" fill="#542919"/>
<path d="M729.334 175.544L728.539 175.85L723.825 168.858L724.166 168.727L729.334 175.544Z" fill="#542919"/>
<path d="M725.589 171.441C734.524 172.915 737.554 167.389 737.328 163.988C737.205 162.137 736.121 160.916 734.5 161.782C735.687 159.639 736.58 156.215 736.056 153.796C735.818 152.704 735.13 151.301 733.91 150.993C732.818 150.72 732.179 151.323 731.677 152.857C732.477 150.127 731.09 144.148 727.887 144.121C727.751 144.121 727.615 144.13 727.481 144.148C724.019 144.645 724.75 154.634 724.75 154.76C724.636 153.248 722.725 150.564 721.428 152.972C720.249 155.156 721.649 157.886 722.823 159.66C721.709 158.648 720.333 158.626 719.967 160.307C719.815 161.044 719.88 161.808 720.152 162.508C720.425 163.209 720.895 163.816 721.504 164.255C717.347 162.208 718.581 170.289 725.589 171.441Z" fill="#8AAF2C"/>
<path d="M730.027 161.523C730.058 161.492 730.058 161.492 730.027 161.523V161.523Z" fill="#4B630F"/>
<path d="M725.589 171.441C734.524 172.915 737.554 167.389 737.328 163.987C736.525 166.445 734.513 168.902 732.015 168.574C728.611 168.115 727.966 164.413 729.645 161.896C729.667 161.864 729.684 161.836 729.703 161.812C728.592 162.609 726.973 161.812 726.389 160.66C725.649 159.166 726.907 157.31 728.28 156.676C725.671 157.558 726.894 145.756 727.887 144.118C727.751 144.118 727.615 144.127 727.481 144.145C724.019 144.642 724.75 154.632 724.75 154.757C724.636 153.245 722.725 150.561 721.428 152.969C720.249 155.153 721.649 157.883 722.823 159.658C721.709 158.645 720.333 158.623 719.967 160.305C719.815 161.041 719.88 161.805 720.152 162.506C720.425 163.206 720.895 163.813 721.504 164.252C717.347 162.207 718.581 170.288 725.589 171.441Z" fill="#4B630F"/>
<path d="M734.917 157.476C735.114 156.36 735.155 155.35 734.674 154.31C734.382 153.682 733.347 152.175 732.558 152.906C735.253 150.075 736.228 155.762 734.917 157.476Z" fill="#DFFF7D"/>
<path d="M730.205 150.25C730.205 149.117 730.058 148.118 729.386 147.179C728.988 146.613 727.699 145.314 727.052 146.177C729.212 142.909 731.185 148.331 730.205 150.25Z" fill="#DFFF7D"/>
<path d="M720.737 160.267C721.15 161.32 721.635 162.205 722.588 162.846C723.164 163.234 724.832 163.982 725.127 162.948C724.289 166.767 720.508 162.41 720.737 160.267Z" fill="#8AAF2C"/>
<path d="M734.999 167.119C735.48 166.3 735.818 165.538 735.744 164.588C735.703 164.015 735.343 162.538 734.516 162.874C737.445 161.473 736.522 166.174 734.999 167.119Z" fill="#DFFF7D"/>
<path d="M386 179.24V196.797H781.839V184.946H781.858V179.24H386Z" fill="#8AAF2C"/>
<path d="M781.839 189.109H386V208.378H781.839V189.109Z" fill="#717171"/>
</g>
</svg>
