<svg width="25" height="24" viewBox="0 0 25 24" fill="none" xmlns="http://www.w3.org/2000/svg">
<g clip-path="url(#clip0_1487_1527)">
<path d="M5.55859 1.99609C3.76659 1.99609 2.30859 3.45409 2.30859 5.24609V5.99609H20.3086V5.24609C20.3086 3.45409 18.8506 1.99609 17.0586 1.99609H5.55859ZM2.30859 7.49609V16.7461C2.30859 18.5381 3.76659 19.9961 5.55859 19.9961H11.3369C10.6889 18.9851 10.3086 17.7861 10.3086 16.4961C10.3086 14.9471 10.8528 13.5262 11.7568 12.4092C11.6173 12.4632 11.4671 12.4961 11.3086 12.4961C10.6181 12.4961 10.0586 11.9366 10.0586 11.2461C10.0586 10.5556 10.6181 9.99609 11.3086 9.99609C11.9991 9.99609 12.5586 10.5556 12.5586 11.2461C12.5586 11.3891 12.5294 11.5239 12.4854 11.6514C13.6344 10.6249 15.1466 9.99609 16.8086 9.99609C18.0986 9.99609 19.2976 10.3764 20.3086 11.0244V7.49609H2.30859ZM7.05859 9.99609C7.74909 9.99609 8.30859 10.5556 8.30859 11.2461C8.30859 11.9366 7.74909 12.4961 7.05859 12.4961C6.36809 12.4961 5.80859 11.9366 5.80859 11.2461C5.80859 10.5556 6.36809 9.99609 7.05859 9.99609ZM16.8555 11.0107C13.818 11.0107 11.3555 13.4732 11.3555 16.5107C11.3555 19.5482 13.818 22.0107 16.8555 22.0107C19.893 22.0107 22.3555 19.5482 22.3555 16.5107C22.3555 13.4732 19.8935 11.0107 16.8555 11.0107ZM16.8555 12.5107C17.1315 12.5107 17.3555 12.7347 17.3555 13.0107V16.0107H20.3555C20.6315 16.0107 20.8555 16.2347 20.8555 16.5107C20.8555 16.7867 20.6315 17.0107 20.3555 17.0107H17.3555V20.0107C17.3555 20.2867 17.1315 20.5107 16.8555 20.5107C16.5795 20.5107 16.3555 20.2867 16.3555 20.0107V17.0107H13.3555C13.0795 17.0107 12.8555 16.7867 12.8555 16.5107C12.8555 16.2347 13.0795 16.0107 13.3555 16.0107H16.3555V13.0107C16.3555 12.7347 16.5795 12.5107 16.8555 12.5107ZM7.05859 14.4961C7.74909 14.4961 8.30859 15.0556 8.30859 15.7461C8.30859 16.4366 7.74909 16.9961 7.05859 16.9961C6.36809 16.9961 5.80859 16.4366 5.80859 15.7461C5.80859 15.0556 6.36809 14.4961 7.05859 14.4961Z" fill="black"/>
</g>
<defs>
<clipPath id="clip0_1487_1527">
<rect width="24" height="24" fill="white" transform="translate(0.332031)"/>
</clipPath>
</defs>
</svg>
