<svg width="32" height="33" viewBox="0 0 32 33" fill="none" xmlns="http://www.w3.org/2000/svg">
<circle cx="16" cy="16.5" r="16" fill="#EEEEEE"/>
<path d="M23.95 25.5C21.8667 25.5 19.8083 25.046 17.775 24.138C15.7417 23.23 13.8917 21.9423 12.225 20.275C10.5583 18.6077 9.271 16.7577 8.363 14.725C7.455 12.6923 7.00067 10.634 7 8.55C7 8.25 7.1 8 7.3 7.8C7.5 7.6 7.75 7.5 8.05 7.5H12.1C12.3333 7.5 12.5417 7.57933 12.725 7.738C12.9083 7.89667 13.0167 8.084 13.05 8.3L13.7 11.8C13.7333 12.0667 13.725 12.2917 13.675 12.475C13.625 12.6583 13.5333 12.8167 13.4 12.95L10.975 15.4C11.3083 16.0167 11.704 16.6123 12.162 17.187C12.62 17.7617 13.1243 18.316 13.675 18.85C14.1917 19.3667 14.7333 19.846 15.3 20.288C15.8667 20.73 16.4667 21.134 17.1 21.5L19.45 19.15C19.6 19 19.796 18.8877 20.038 18.813C20.28 18.7383 20.5173 18.7173 20.75 18.75L24.2 19.45C24.4333 19.5167 24.625 19.6377 24.775 19.813C24.925 19.9883 25 20.184 25 20.4V24.45C25 24.75 24.9 25 24.7 25.2C24.5 25.4 24.25 25.5 23.95 25.5Z" fill="black"/>
</svg>
