<svg width="24" height="24" viewBox="0 0 24 24" fill="none" xmlns="http://www.w3.org/2000/svg">
<circle cx="12" cy="12" r="12" fill="#EEEEEE"/>
<path d="M17.3 18C15.9111 18 14.5389 17.6973 13.1833 17.092C11.8278 16.4867 10.5944 15.6282 9.48333 14.5167C8.37222 13.4051 7.514 12.1718 6.90867 10.8167C6.30333 9.46156 6.00044 8.08933 6 6.7C6 6.5 6.06667 6.33333 6.2 6.2C6.33333 6.06667 6.5 6 6.7 6H9.4C9.55556 6 9.69444 6.05289 9.81667 6.15867C9.93889 6.26444 10.0111 6.38933 10.0333 6.53333L10.4667 8.86667C10.4889 9.04444 10.4833 9.19444 10.45 9.31667C10.4167 9.43889 10.3556 9.54444 10.2667 9.63333L8.65 11.2667C8.87222 11.6778 9.136 12.0749 9.44133 12.458C9.74667 12.8411 10.0829 13.2107 10.45 13.5667C10.7944 13.9111 11.1556 14.2307 11.5333 14.5253C11.9111 14.82 12.3111 15.0893 12.7333 15.3333L14.3 13.7667C14.4 13.6667 14.5307 13.5918 14.692 13.542C14.8533 13.4922 15.0116 13.4782 15.1667 13.5L17.4667 13.9667C17.6222 14.0111 17.75 14.0918 17.85 14.2087C17.95 14.3256 18 14.456 18 14.6V17.3C18 17.5 17.9333 17.6667 17.8 17.8C17.6667 17.9333 17.5 18 17.3 18Z" fill="black"/>
</svg>
