<svg width="390" height="116" viewBox="0 0 390 116" fill="none" xmlns="http://www.w3.org/2000/svg">
<g style="mix-blend-mode:multiply" opacity="0.6">
<path d="M195.001 116.748C302.697 116.748 390.002 115.673 390.002 114.348C390.002 113.023 302.697 111.949 195.001 111.949C87.3049 111.949 0 113.023 0 114.348C0 115.673 87.3049 116.748 195.001 116.748Z" fill="#5E5E5E"/>
</g>
<path d="M213.858 0L214.301 1.61713V9.98106H190.083L192.923 0H213.858Z" fill="#FFCA22"/>
<path d="M214.282 0L214.817 1.61713L217.591 9.98106H203.623L206.221 0H214.282Z" fill="#C99A18"/>
<path d="M37.1956 46.9933C36.2424 46.9933 35.5261 45.412 35.5261 43.3155C35.5261 41.219 36.2507 39.6377 37.1956 39.6377C38.1405 39.6377 38.8678 41.219 38.8678 43.3155C38.8678 45.412 38.1488 46.9933 37.1956 46.9933ZM37.1956 40.1721C36.6446 40.1721 36.0606 41.5165 36.0606 43.3155C36.0606 45.1145 36.6584 46.4561 37.1956 46.4561C37.7328 46.4561 38.3306 45.1145 38.3306 43.3155C38.3306 41.5165 37.7328 40.1721 37.1956 40.1721Z" fill="#040405"/>
<path d="M38.4553 47.5968C38.1798 46.74 38.5958 45.7069 38.2542 44.9741L36.7721 46.6849C36.8437 47.8172 35.8216 49.6878 34.761 50.2195C36.0475 50.7319 38.2074 49.7153 39.6096 49.6299C39.3231 48.9384 38.706 48.3875 38.4553 47.5968Z" fill="#040405"/>
<path d="M346.617 69.5753C346.466 67.5725 346.212 65.9553 345.873 65.1674C345.322 63.8836 344.408 62.3795 343.474 60.6852C343.088 59.9799 342.7 59.2444 342.331 58.4813C341.369 56.4674 340.556 54.2387 340.358 51.8392C340.175 49.3046 339.644 46.8073 338.78 44.4174C337.793 41.8333 336.35 39.7754 334.372 38.9682C327.396 36.1059 320.123 40.8057 304.497 32.99C288.872 25.1744 264.055 15.0638 249.347 10.4659C241.283 7.94237 193.736 7.71096 164.325 12.3034C134.913 16.8958 116.067 37.1279 93.088 38.9682C73.3821 40.544 42.5299 47.7013 37.4773 48.6104C32.7031 49.4782 29.5019 52.5003 26.5734 55.4481C26.3998 55.6189 26.229 55.7952 26.0582 55.966C25.7827 56.2415 25.5403 56.517 25.2951 56.809C23.3033 59.1975 21.8267 62.4649 20.7881 65.4677C19.8863 68.1025 19.1936 70.8043 18.7164 73.5479L19.4189 78.9365L19.6641 80.8098L20.0222 83.5648L17.9092 85.2535L17.7246 85.4023C17.7246 85.4023 18.1489 91.7937 19.226 92.4604C25.5348 96.342 40.7943 97.4357 46.8744 97.7195C48.475 97.7966 49.4364 97.8132 49.4364 97.8132H54.8774L110.427 97.6864L119.604 97.6672L245.504 97.3917H250.289L253.625 97.1465C263.513 96.4082 292.66 94.1849 303.599 92.7937C305.225 92.5843 307.285 92.2841 309.619 91.9204C312.173 91.521 315.054 91.0471 318.038 90.543C329.578 88.6145 342.661 86.2012 344.507 85.8927C346.573 85.5042 347.083 75.727 346.617 69.5753ZM276.323 36.4199C275.973 36.6954 274.246 37.5081 265.951 38.2877C260.118 38.8387 251.901 39.2878 241.55 39.6294C224.688 40.1886 202.13 40.4641 174.474 40.4641C147.817 40.4641 123.783 40.1886 114.86 40.0784C125.456 34.7064 158.851 18.243 173.212 16.7305C177.477 16.2815 192.731 14.8159 209.852 14.8159C227.933 14.8159 241.369 16.5102 248.697 19.7224C251.485 20.9428 254.096 22.0475 256.628 23.1109C268.648 28.1882 276.634 31.5547 276.323 36.4199Z" fill="#131B23"/>
<g style="mix-blend-mode:screen" opacity="0.5">
<path d="M344.496 85.8486C342.65 86.1572 329.567 88.5567 318.027 90.4989C315.043 91.0031 312.161 91.4769 309.608 91.8764C307.274 92.24 305.2 92.5403 303.588 92.7497C292.648 94.1409 263.501 96.3641 253.614 97.1024L250.278 97.3476H245.493L119.593 97.6231L110.416 97.6424L54.8663 97.7691H49.4253C49.4253 97.7691 48.4639 97.7526 46.8632 97.6754C40.7832 97.4 25.5237 96.298 19.2149 92.4163C18.1378 91.7496 17.7135 85.3582 17.7135 85.3582L17.8981 85.2095L20.0111 83.5207L19.653 80.7658L19.4078 78.8924L18.7053 73.5038C19.1825 70.7602 19.8752 68.0584 20.777 65.4237C71.7153 42.1391 121.249 45.8114 190.981 45.8114C250.856 45.8114 304.933 51.4976 343.463 60.6384C344.397 62.3327 345.311 63.8368 345.862 65.1206C346.201 65.9113 346.455 67.5284 346.606 69.5285C347.083 75.7271 346.573 85.5042 344.496 85.8486Z" fill="#1E2C38"/>
</g>
<path d="M59.0591 56.8943C56.6072 54.2386 44.5572 55.0568 36.1933 57.7208L27.193 76.3054C34.9012 74.9004 63.657 61.8779 59.0591 56.8943Z" fill="#040405"/>
<path d="M31.7003 72.4765C30.962 74.0275 22.4934 80.2564 19.7385 82.2316L19.4299 79.1682L20.7578 73.5481C20.7578 73.5481 22.4714 62.6277 27.3476 56.812C27.5927 56.5173 27.8489 56.2363 28.1107 55.969C28.2842 55.7982 28.7581 54.9222 28.9371 54.7486C32.9869 53.7844 35.1219 52.462 37.3121 53.8312C39.8328 55.4126 33.1329 69.4351 31.7003 72.4765Z" fill="#040405"/>
<path d="M29.6556 72.4764C28.9173 74.0275 22.4184 78.8348 19.6635 80.8101L19.4183 78.9367L18.7158 73.5481C18.7158 73.5481 20.4266 62.6276 25.3056 56.812C25.5508 56.5172 25.8042 56.2362 26.0687 55.969C26.2395 55.7982 26.4103 55.6219 26.5839 55.4511C30.6308 54.4869 32.7824 53.1424 34.9726 54.5116C37.5071 56.093 31.0909 69.435 29.6556 72.4764Z" fill="white"/>
<path d="M28.5205 71.4019C27.8373 72.84 21.4239 77.5123 19.4293 78.9366L19.3301 78.1707L18.7268 73.548C18.7268 73.548 20.2999 63.4981 24.738 57.5475C24.9217 57.294 25.1145 57.0488 25.3166 56.8119C29.1734 55.9854 31.1349 54.63 33.1267 55.8752C35.3059 57.2389 29.7602 68.771 28.5205 71.4019Z" fill="#B6BBC1"/>
<path d="M29.2176 56.2747C29.2176 56.3463 29.1873 56.418 29.1735 56.4841C28.9898 57.2738 28.8007 58.0645 28.606 58.8561C26.9971 59.385 25.2202 59.8589 23.7215 59.8589C23.4736 60.9168 22.9777 61.2997 22.6829 62.3383C24.4268 61.9113 26.2643 61.6606 28.0302 61.2694C27.8062 62.2152 27.5885 63.162 27.3773 64.1097C25.7739 64.702 23.6912 64.87 22.1182 65.3108C21.8427 66.2503 21.5038 67.2393 21.2917 68.1098C23.1347 67.5754 24.9392 67.512 26.7161 66.9748C26.5233 67.7792 26.3167 68.5782 26.1018 69.3716C26.0687 69.3851 26.0346 69.3961 25.9998 69.4046C24.3249 69.9336 22.592 70.0658 20.8785 70.4129C20.7325 71.5149 20.2503 73.3993 20.1346 74.4682C21.8732 74.0154 23.5635 73.3945 25.1816 72.6141C25.0163 73.1651 24.8501 73.7161 24.683 74.2671C23.3909 75.7244 21.2146 77.0633 19.3082 78.1708L18.7048 73.548C18.7048 73.548 20.2779 63.4981 24.7161 57.5475C26.2453 57.2322 27.7497 56.8068 29.2176 56.2747Z" fill="#040405"/>
<g style="mix-blend-mode:screen" opacity="0.5">
<path d="M57.7811 58.454C56.7315 61.9252 36.9181 71.9531 35.4911 71.1073C35.5792 70.9393 35.8272 70.6693 35.8906 70.4985C36.1798 69.672 37.3589 68.7601 37.8052 67.9392C38.3708 66.838 38.7179 65.6377 38.8273 64.4046C39.1028 62.3054 37.7253 59.5064 40.0587 58.2722C41.0973 57.7212 43.1993 57.1702 45.5851 56.779C47.8091 56.4044 50.0632 56.2384 52.3181 56.2831C54.7975 56.3713 57.5855 57.2804 57.8004 58.0022C57.8403 58.1512 57.8335 58.3089 57.7811 58.454Z" fill="#292645"/>
</g>
<g style="mix-blend-mode:screen" opacity="0.5">
<path d="M57.7811 58.4538C57.1199 60.6577 48.9929 65.443 42.7227 68.4762C39.0504 70.2531 36.0173 71.4239 35.4911 71.1071C35.5792 70.9391 35.8272 70.6691 35.8906 70.4983C36.1798 69.6718 37.3589 68.7599 37.8052 67.939C38.3708 66.8378 38.7179 65.6375 38.8273 64.4044C38.9265 63.6358 38.7997 62.7708 38.7226 61.925C38.5849 60.4621 38.5793 59.0516 40.0587 58.272C41.0973 57.721 43.1993 57.17 45.5851 56.7788C45.2101 57.2741 44.8809 57.8025 44.6016 58.3574C44.0506 59.4841 43.7751 60.6935 44.4032 61.5393C44.5649 61.753 44.7671 61.9327 44.9983 62.0682C46.8689 63.1978 50.5384 61.8258 52.3181 61.2225C54.3898 60.52 55.9876 59.5034 57.7811 58.4538Z" fill="#292645"/>
</g>
<g style="mix-blend-mode:color-dodge">
<path d="M45.0672 65.5011C46.4804 65.1126 48.048 64.7655 49.3703 64.1953C47.0204 65.2724 44.9377 67.0714 42.7227 68.4764C39.0504 70.2533 36.0173 71.4242 35.4911 71.1073C35.5792 70.9393 35.8272 70.6693 35.8906 70.4985C36.1798 69.672 37.3589 68.7601 37.8052 67.9392C38.3708 66.838 38.7179 65.6377 38.8273 64.4046C38.9265 63.636 38.7997 62.771 38.7226 61.9252C39.0642 61.1318 39.4692 60.3301 40.3755 59.8315C41.7071 59.1451 43.1303 58.6533 44.6016 58.3714C44.8771 58.3163 45.125 58.2694 45.373 58.2336C48.6017 57.7598 51.9462 57.297 55.1446 57.1096C52.1142 58.2584 48.9571 59.1345 45.9901 60.6111C45.4378 60.8842 44.9073 61.1991 44.4032 61.5533C42.5574 62.8398 41.2902 64.5341 40.2709 66.6967C41.8825 66.738 43.4941 65.9364 45.0672 65.5011Z" fill="#8B8BA0"/>
</g>
<path d="M103.031 71.8011C102.43 65.3216 102.422 58.3296 102.416 53.2247V52.9107C102.416 46.3512 104.414 43.9462 109.207 40.7285L109.72 41.4916C105.003 44.657 103.328 46.8581 103.337 52.9107V53.2247C103.337 58.3103 103.337 65.2803 103.948 71.7185L103.031 71.8011Z" fill="#060607"/>
<path d="M184.54 94.3668C183.122 86.1764 183.631 76.6307 184.083 68.2089C184.133 67.2805 184.182 66.3603 184.229 65.454C184.452 61.0461 184.835 56.3627 186.794 51.8777C187.108 51.156 187.458 50.4452 187.794 49.7592C189.172 46.952 190.475 44.299 189.447 41.095L190.323 40.8195C191.45 44.3761 190.006 47.3184 188.609 50.1669C188.276 50.8446 187.932 51.5444 187.626 52.2469C185.731 56.5914 185.356 61.1783 185.147 65.5036C185.099 66.4127 185.05 67.331 185.001 68.2585C184.552 76.6307 184.045 86.1213 185.447 94.2098L184.54 94.3668Z" fill="#060607"/>
<path d="M282.954 88.8489L282.051 88.6919C283.453 80.6034 282.943 71.1155 282.494 62.7406C282.444 61.8122 282.395 60.892 282.351 59.9857C282.13 55.6604 281.756 51.0735 279.871 46.7318C279.566 46.0293 279.221 45.3268 278.888 44.6491C277.491 41.8032 276.045 38.8637 277.174 35.3044L278.05 35.5799C277.034 38.7811 278.326 41.4341 279.703 44.2413C280.039 44.9273 280.389 45.6381 280.703 46.3599C282.659 50.8449 283.042 55.5255 283.268 59.9361C283.314 60.8544 283.363 61.7727 283.414 62.691C283.863 71.1128 284.376 80.6585 282.954 88.8489Z" fill="#060607"/>
<g style="mix-blend-mode:multiply" opacity="0.7">
<path d="M276.322 36.4201C275.973 36.6956 274.245 37.5083 265.95 38.2879C260.118 38.8389 251.9 39.288 241.55 39.6296C231.588 39.9602 219.632 40.1806 205.808 40.3293C196.243 40.4267 185.798 40.4744 174.473 40.4726C147.817 40.4726 123.783 40.1971 114.86 40.0869C125.455 34.7148 158.85 18.2515 173.211 16.739C177.476 16.29 192.73 14.8243 209.852 14.8243C215.125 14.8243 220.001 14.9704 224.453 15.2541C235.255 15.9428 243.511 17.458 248.696 19.7308C251.484 20.9513 254.096 22.056 256.628 23.1194C268.647 28.1884 276.634 31.5549 276.322 36.4201Z" fill="#546F72"/>
</g>
<g style="mix-blend-mode:multiply" opacity="0.7">
<path d="M276.322 36.42C275.972 36.6954 274.244 37.5081 265.949 38.2878C260.117 38.8388 251.899 39.2878 241.549 39.6294C239.505 39.6992 237.377 39.7626 235.166 39.8195C226.606 40.0537 216.799 40.2217 205.807 40.3292C213.628 32.957 220.923 24.516 224.433 15.2595C230.361 15.6396 235.524 16.265 239.836 17.1328C243.378 17.8408 246.345 18.7114 248.687 19.7362C251.475 20.9566 254.087 22.0613 256.619 23.1247C268.646 28.1883 276.633 31.5548 276.322 36.42Z" fill="#546F72"/>
</g>
<g style="mix-blend-mode:multiply" opacity="0.7">
<path d="M276.323 36.42C275.973 36.6955 274.246 37.5082 265.951 38.2879C260.119 38.8389 251.901 39.2879 241.551 39.6295C239.506 39.6993 237.379 39.7627 235.167 39.8196C237.106 35.7559 238.492 31.4513 239.289 27.0203C239.804 23.7495 239.989 20.4351 239.84 17.1274C243.383 17.8354 246.35 18.7059 248.691 19.7308C251.479 20.9512 254.091 22.0559 256.623 23.1193C268.648 28.1884 276.634 31.5549 276.323 36.42Z" fill="#546F72"/>
</g>
<path d="M188.57 20.3201C188.126 17.5183 184.6 17.5651 183.093 19.309C181.33 21.3339 180.482 24.9511 179.625 27.4773C178.082 32.0284 177.145 38.9267 172.649 41.6266C174.063 42.577 177.399 41.8717 179.173 41.7836C181.413 41.6734 184.148 42.0591 186.292 41.7423C186.658 39.1361 187.118 36.3454 187.496 33.6456C187.834 31.3204 188.84 28.8933 188.978 26.6536L188.57 20.3201Z" fill="#2A363F"/>
<path d="M246.296 22.2322C245.905 19.7527 242.789 19.8078 241.456 21.3396C239.897 23.1303 239.145 26.3287 238.39 28.5602C237.012 32.5851 236.186 38.6845 232.222 41.0703C233.472 41.8967 236.42 41.2879 237.988 41.2108C239.971 41.1116 242.395 41.4504 244.283 41.175C244.608 38.8691 245.002 36.4034 245.349 34.0122C245.646 31.9543 246.536 29.8109 246.657 27.8302L246.296 22.2322Z" fill="#2A363F"/>
<path d="M193.802 41.2633C193.832 40.8886 193.857 40.4809 193.879 40.0373C194.182 33.9765 194.155 19.5545 194.182 14.2927H188.874L187.978 14.4993C187.747 16.1798 184.901 37.1585 184.3 41.2633H193.802Z" fill="#060607"/>
<path d="M133.225 34.8276C133.501 33.1251 135.897 29.72 135.468 28.4913L123.406 34.6238C119.952 34.756 113.649 38.0481 111.781 41.1309C118.866 42.8279 127.39 41.5965 134.622 41.1309C133.98 40.2264 133.526 39.2028 133.287 38.1204C133.047 37.0379 133.026 35.9183 133.225 34.8276Z" fill="#131B23"/>
<path d="M247.701 17.5544C247.247 17.6366 246.785 17.6699 246.324 17.6536C245.503 17.6241 244.695 17.4419 243.941 17.1164C244.158 23.0615 244.712 38.2163 244.817 41.6351L250.159 41.0263C250.131 40.6516 250.101 40.2467 250.062 39.8031C249.643 34.7919 248.428 24.045 247.701 17.5544Z" fill="#060607"/>
<path d="M257.33 21.4224C254.81 20.3645 252.201 19.2626 249.421 18.0477C241.751 14.6867 228.434 12.9869 209.838 12.9869C192.642 12.9869 177.308 14.458 173.019 14.9153C155.572 16.7528 112.546 39.1944 110.722 40.1476L107.513 41.8281L111.138 41.8832C111.427 41.8832 140.853 42.3184 174.474 42.3184C203.083 42.3184 226.23 42.0127 243.267 41.4176C253.807 41.0484 262.019 40.5608 267.675 39.9713C277.141 38.9822 278.025 37.8885 278.144 36.7645C278.766 30.4558 270.24 26.8634 257.33 21.4224ZM276.323 36.4202C275.973 36.6957 274.246 37.5084 265.951 38.288C260.118 38.839 251.9 39.288 241.55 39.6297C224.687 40.1889 202.13 40.4644 174.474 40.4644C147.817 40.4644 123.783 40.1889 114.86 40.0787C125.455 34.7066 158.851 18.2433 173.212 16.7308C177.476 16.2818 192.73 14.8161 209.852 14.8161C227.933 14.8161 241.368 16.5104 248.697 19.7226C251.484 20.9431 254.096 22.0478 256.628 23.1112C268.648 28.1885 276.634 31.555 276.323 36.4202Z" fill="#DDE3E8"/>
<path d="M147.927 39.5359C145.313 40.5745 132.461 40.1778 131.436 40.142H131.373L130.949 39.0538L130.078 36.8196L129.94 36.4614C130.197 36.2769 131.097 35.5523 132.227 34.7203C134.026 33.3952 136.406 31.7919 137.704 31.6045C140.577 31.1913 144.61 31.5439 147.101 32.6266C149.754 33.7754 150.955 38.3375 147.927 39.5359Z" fill="#131B23"/>
<path d="M147.743 34.8249C141.572 34.8249 136.021 36.5302 131.436 40.1418H131.373L130.949 39.0537L130.078 36.8194L129.94 36.4613C130.197 36.2767 131.097 35.5522 132.227 34.7202C137.23 32.913 143.346 33.3482 147.743 34.8249Z" fill="#DDE3E8"/>
<path d="M342.323 58.473C339.959 58.1369 337.656 57.7788 335.212 56.2002C332.292 54.3104 328.625 52.1974 326.768 49.0127C324.013 44.2853 331.567 43.7398 338.772 44.4092C338.838 44.5773 338.898 44.7453 338.959 44.9161C339.543 46.6361 339.95 48.4112 340.174 50.2138C340.21 50.459 340.237 50.707 340.265 50.9549C340.298 51.2469 340.325 51.5417 340.35 51.831C340.455 53.0009 340.689 54.1558 341.047 55.2746C341.395 56.3701 341.821 57.439 342.323 58.473Z" fill="#810220"/>
<path d="M340.181 50.2136C338.154 50.0566 336.129 49.8444 334.01 49.9381C332.253 50.0235 328.225 49.9602 327.927 47.2383C327.652 44.69 334.41 44.5523 338.966 44.9076C339.551 46.6303 339.958 48.4082 340.181 50.2136Z" fill="#EE4423"/>
<path d="M341.055 55.2745C340.421 55.2498 339.785 55.247 339.126 55.2745C337.658 55.3434 334.289 55.2911 334.046 53.0183C333.876 51.4122 337.055 50.9521 340.264 50.9521C340.297 51.2441 340.325 51.5389 340.35 51.8281C340.457 52.9994 340.694 54.1551 341.055 55.2745Z" fill="#EE4423"/>
<path d="M346.088 82.7686C345.99 83.2568 345.863 83.7389 345.708 84.2122C345.383 85.1654 344.981 85.766 344.496 85.8486C342.65 86.1572 329.567 88.5567 318.027 90.4989C315.043 91.0031 312.161 91.4769 309.608 91.8764C307.274 92.24 305.2 92.5403 303.588 92.7497C292.648 94.1409 263.501 96.3641 253.614 97.1025L250.278 97.3476H245.493L119.593 97.6231L110.416 97.6424L54.8663 97.7691H49.4253C49.4253 97.7691 48.4639 97.7526 46.8632 97.6755C44.0835 97.546 39.3864 97.2457 34.5019 96.5873C28.7166 95.8076 22.6558 94.5238 19.2149 92.4163C18.416 91.9232 17.978 88.284 17.8044 86.4354C17.7411 85.7853 17.7135 85.3583 17.7135 85.3583L17.8981 85.2095C21.664 85.4602 25.2262 85.8156 26.9067 85.8156C33.2733 85.8156 43.1138 86.7522 48.4942 83.5069C53.329 80.5922 57.4173 73.4763 62.7536 69.7324C68.2469 65.8755 75.0157 63.0682 81.5862 62.3685C89.0245 61.5778 94.9282 63.239 100.89 67.4127C104.485 69.9307 114.94 74.1678 112.849 79.8484V82.6033C135.133 86.2123 163.864 82.1488 245.223 78.471C257.755 77.9062 267.174 62.5283 280.141 61.9084C287.119 61.5696 294.348 63.1895 299.913 67.3081C305.092 71.1429 309.776 76.1651 316.443 76.1568C326.597 76.1431 336.909 73.3386 346.601 69.545C346.929 73.6499 346.805 79.3085 346.088 82.7686Z" fill="#0B1014"/>
<path d="M119.664 95.5624C119.664 96.2622 119.642 96.9647 119.604 97.6589L110.427 97.6782L54.8771 97.8049H49.4362C49.4362 97.8049 48.4747 97.7884 46.8741 97.7112C46.83 96.9977 46.808 96.2759 46.808 95.5514C46.808 90.7676 47.7502 86.0306 49.5809 81.6109C51.4116 77.1912 54.0949 73.1754 57.4776 69.7928C60.8602 66.4101 64.8761 63.7268 69.2957 61.8961C73.7154 60.0654 78.4524 59.1232 83.2362 59.1232C88.02 59.1232 92.757 60.0654 97.1767 61.8961C101.596 63.7268 105.612 66.4101 108.995 69.7928C112.378 73.1754 115.061 77.1912 116.891 81.6109C118.722 86.0306 119.664 90.7676 119.664 95.5514V95.5624Z" fill="#0B1014"/>
<path d="M318.028 90.4992C315.044 91.0033 312.162 91.4772 309.609 91.8766C307.275 92.2403 305.201 92.5406 303.589 92.7499C292.649 94.1412 263.502 96.3644 253.615 97.1027L250.279 97.3479H245.494C245.4 96.2955 245.353 95.2321 245.353 94.1577C245.344 84.8084 248.93 75.8135 255.369 69.0349C261.808 62.2562 270.607 58.2127 279.944 57.7412C289.282 57.2697 298.443 60.4064 305.532 66.502C312.621 72.5976 317.095 81.1855 318.028 90.4881V90.4992Z" fill="#0B1014"/>
<path d="M110.793 93.108C110.793 94.6342 110.671 96.1579 110.427 97.6646L54.8768 97.7913C54.2348 93.9525 54.3956 90.0223 55.3493 86.2488C56.3029 82.4753 58.0285 78.9405 60.4172 75.8676C62.8059 72.7947 65.8058 70.2504 69.2274 68.3954C72.6491 66.5404 76.4182 65.415 80.2967 65.0902C84.1753 64.7654 88.079 65.2482 91.7615 66.5083C95.444 67.7684 98.8253 69.7783 101.692 72.4111C104.558 75.0439 106.848 78.2424 108.416 81.8048C109.984 85.3671 110.796 89.2158 110.801 93.108H110.793Z" fill="#040405"/>
<path d="M309.607 91.8765C307.274 92.2402 305.2 92.5404 303.588 92.7498C292.648 94.141 263.501 96.3643 253.614 97.1026C253.426 95.7794 253.334 94.4444 253.338 93.108C253.342 85.7505 256.226 78.6867 261.372 73.4289C266.519 68.171 273.519 65.1368 280.875 64.9759C288.231 64.8149 295.357 67.54 300.729 72.5677C306.1 77.5954 309.29 84.5262 309.616 91.8765H309.607Z" fill="#040405"/>
<g style="mix-blend-mode:screen" opacity="0.5">
<path d="M121.136 80.7934C121.136 80.7934 232.435 63.644 247.523 70.22C265.461 78.0357 121.136 80.7934 121.136 80.7934Z" fill="#2A4051"/>
</g>
<path d="M251.506 94.6505C224.871 95.6561 141.182 95.6561 114.548 94.6505C114.272 94.6505 114.305 94.5982 114.548 94.5872C138.758 93.4577 227.295 93.4577 251.506 94.5872C251.751 94.5982 251.773 94.6423 251.506 94.6505Z" fill="white"/>
<path d="M346.088 82.7687C345.99 83.257 345.863 83.739 345.708 84.2123C331.295 85.6669 318.875 86.8185 311.189 87.3694C310.914 87.3915 310.941 87.3447 311.189 87.3061C318.289 86.1959 331.027 84.5567 346.088 82.7687Z" fill="white"/>
<path d="M46.5738 78.0359C44.4883 75.2617 39.152 76.8733 36.0114 77.0552C32.2372 77.2756 22.2892 82.6421 17.0824 85.094L18.3083 90.6038C18.2808 90.6204 23.2672 91.7278 24.7411 91.816C27.496 91.9785 30.0966 92.4441 33.0058 92.4441C39.0005 92.4441 43.5433 91.4578 48.8879 89.0197C48.9485 86.196 48.3286 80.3721 46.5738 78.0359Z" fill="#0B1014"/>
<path d="M40.0468 79.2533C35.7271 79.7189 30.6636 82.3691 26.8866 83.5592L26.5808 83.8678C30.2559 83.2534 35.6583 82.1652 38.5289 82.0275C43.5786 81.7851 45.5704 83.9229 46.4961 88.6779C46.4658 83.4683 46.4437 78.5673 40.0468 79.2533Z" fill="white"/>
<g style="mix-blend-mode:screen" opacity="0.8">
<path d="M34.5132 96.6203C33.8823 96.5349 33.2459 96.4468 32.6096 96.3448C32.458 93.5899 32.1825 90.835 32.3561 88.2013C29.1577 88.1407 25.6644 88.4603 22.2897 88.4603C20.8486 88.4537 19.4108 88.3237 17.992 88.0718C17.9149 87.4768 17.857 86.9203 17.8157 86.4657C19.8876 86.9432 22.004 87.2018 24.1299 87.2371C27.502 87.2371 30.9952 86.9175 34.1936 86.9781C33.9898 90.0857 34.4085 93.375 34.5132 96.6203Z" fill="#2D4456"/>
</g>
<path d="M82.6382 69.0853C87.1403 69.0836 91.5417 70.4171 95.2859 72.9172C99.03 75.4172 101.949 78.9714 103.673 83.1303C105.397 87.2892 105.849 91.866 104.971 96.2818C104.094 100.698 101.927 104.754 98.7439 107.938C95.5611 111.122 91.5054 113.291 87.09 114.17C82.6745 115.048 78.0976 114.598 73.9381 112.876C69.7786 111.153 66.2233 108.236 63.7219 104.493C61.2205 100.749 59.8854 96.3484 59.8854 91.8464C59.8846 85.811 62.2813 80.0224 66.5482 75.7539C70.8151 71.4855 76.6028 69.0867 82.6382 69.0853Z" fill="#1D2225"/>
<path d="M82.6413 109.367C82.2005 109.367 81.7377 109.351 81.2639 109.315C77.5762 109.038 74.0734 107.59 71.2663 105.183C70.5617 104.583 69.9075 103.927 69.3103 103.221C66.9024 100.413 65.4545 96.9095 65.1779 93.2208C65.1421 92.7497 65.1228 92.2897 65.1228 91.8434C65.1228 91.3971 65.1421 90.959 65.1751 90.5017V90.4631C65.4523 86.7755 66.9001 83.2727 69.3075 80.4656C69.9034 79.765 70.5547 79.1137 71.2552 78.5178C74.0624 76.1105 77.5652 74.6627 81.2528 74.3855C81.7212 74.3497 82.1812 74.3331 82.6303 74.3331C83.0793 74.3331 83.5394 74.3497 84.0077 74.3855C87.6964 74.6621 91.2002 76.1099 94.0081 78.5178C94.7093 79.1139 95.3607 79.7663 95.9558 80.4683C98.3627 83.2748 99.8104 86.7764 100.088 90.4631C100.124 90.9315 100.141 91.3943 100.141 91.8406C100.141 92.2869 100.124 92.747 100.088 93.2181C99.8121 96.9077 98.3643 100.412 95.9558 103.221C95.3586 103.922 94.7073 104.575 94.0081 105.174C91.2016 107.581 87.7 109.029 84.0133 109.307C83.5477 109.351 83.0849 109.367 82.6413 109.367ZM66.9603 90.5871V90.6037C66.9273 91.0279 66.9107 91.4467 66.9107 91.8461C66.9107 92.2456 66.9273 92.6726 66.9603 93.0858C67.2553 96.8182 68.8714 100.323 71.5183 102.971C74.1651 105.619 77.6694 107.236 81.4016 107.533C81.8259 107.563 82.2446 107.579 82.6413 107.579C83.038 107.579 83.4678 107.563 83.881 107.533C87.6135 107.236 91.1177 105.618 93.7646 102.969C96.4114 100.321 98.0274 96.8157 98.3223 93.0831C98.3553 92.6643 98.3691 92.2566 98.3691 91.8461C98.3691 91.4356 98.3553 91.0196 98.3223 90.6064C98.0273 86.8741 96.4112 83.3692 93.7643 80.7214C91.1175 78.0735 87.6132 76.4561 83.881 76.1596C83.0558 76.0963 82.2269 76.0963 81.4016 76.1596C78.0905 76.4126 74.9469 77.7166 72.4288 79.8815C71.8007 80.416 71.2167 81 70.6822 81.6281C68.5199 84.1423 67.216 87.2808 66.9603 90.5871Z" fill="white"/>
<path d="M84.6529 90.5734H80.6307C80.6307 90.5734 80.6528 90.3227 80.6913 89.8929C80.7106 89.667 80.7327 89.3887 80.7602 89.0664C80.7933 88.6394 80.8346 88.138 80.8787 87.587C81.1156 84.609 81.4297 80.1653 81.4297 77.9641C81.4297 77.3443 81.3911 76.3856 81.3305 75.2671C81.7603 75.234 82.1983 75.2147 82.6363 75.2147C83.0743 75.2147 83.5124 75.234 83.9449 75.2671C83.8843 76.3911 83.843 77.3525 83.843 77.9641C83.843 80.2011 84.1625 84.6227 84.394 87.587C84.4408 88.138 84.4821 88.6394 84.5152 89.0664C84.5427 89.386 84.5675 89.6642 84.5868 89.8929C84.6309 90.3282 84.6529 90.5734 84.6529 90.5734Z" fill="white"/>
<path d="M83.1623 89.521L82.6416 90.0444L82.1126 90.5733L81.3661 91.3172L80.8399 91.8461L80.3302 92.3668L79.8922 91.8461L79.3605 91.218C79.085 90.8901 78.7572 90.5072 78.3963 90.083C76.4678 87.8102 73.5421 84.4409 71.9883 82.8844C71.5503 82.4463 70.845 81.7824 70.0131 81.0496C70.5779 80.3842 71.1962 79.7659 71.8616 79.201C72.6137 80.0275 73.2639 80.7466 73.6936 81.1763C75.2777 82.7604 78.6277 85.6613 80.8895 87.5898L82.0245 88.554L82.6526 89.0857C82.9694 89.3639 83.1623 89.521 83.1623 89.521Z" fill="white"/>
<path d="M81.3661 89.8324V93.8573L80.6911 93.7995L79.8646 93.7306L78.3798 93.6094C75.4017 93.3725 70.9608 93.0584 68.7596 93.0584C68.1397 93.0584 67.181 93.097 66.0625 93.1576C66.0322 92.7278 66.0129 92.2898 66.0129 91.8518C66.0129 91.4137 66.0322 90.9757 66.0625 90.5432C67.1893 90.6038 68.148 90.6451 68.7596 90.6451C70.9993 90.6451 75.4155 90.3255 78.3798 90.0941L79.8646 89.9729L80.6911 89.904L81.3661 89.8324Z" fill="white"/>
<path d="M83.162 94.1851C83.162 94.1851 82.9692 94.3421 82.6413 94.6204L82.0132 95.1521L80.8809 96.1135C78.6081 98.042 75.2389 100.968 73.6823 102.524C73.2443 102.965 72.5969 103.667 71.8503 104.502C71.1847 103.937 70.5656 103.318 69.999 102.654C70.8393 101.899 71.5445 101.249 71.977 100.819C73.5584 99.2348 76.4565 95.8849 78.385 93.6203L79.352 92.4853L79.8809 91.8572C80.1564 91.5266 80.3189 91.3365 80.3189 91.3365L80.8396 91.8572L81.3658 92.3861L83.162 94.1851Z" fill="white"/>
<path d="M84.6516 93.1188C84.6516 93.1188 84.6296 93.3695 84.5938 93.7966C84.5745 94.0252 84.5497 94.3007 84.5221 94.623C84.4891 95.0528 84.4477 95.5569 84.4037 96.1079C84.1667 99.086 83.8527 103.53 83.8527 105.731C83.8527 106.351 83.894 107.312 83.9546 108.431C83.5221 108.461 83.0868 108.48 82.646 108.48C82.2052 108.48 81.77 108.461 81.3374 108.431C81.4008 107.304 81.4394 106.34 81.4394 105.731C81.4394 103.494 81.1198 99.0722 80.8884 96.1079C80.8443 95.5569 80.803 95.0528 80.7672 94.6258C80.7396 94.3062 80.7176 94.0307 80.6983 93.7993C80.6597 93.3695 80.6377 93.1188 80.6377 93.1188H84.6516Z" fill="white"/>
<path d="M95.2831 102.643C94.7159 103.308 94.0968 103.927 93.4318 104.494C92.6797 103.667 92.0295 102.948 91.5998 102.513C90.0157 100.929 86.6657 98.0418 84.4039 96.1134L83.2689 95.1492L82.6408 94.6175L82.1201 94.1849L82.6408 93.6615L83.1697 93.1326L83.9136 92.3887L84.4425 91.8598L84.9632 91.3391L85.4012 91.8598L85.9329 92.4907C86.2084 92.8185 86.5362 93.2014 86.8971 93.6202C88.8256 95.8957 91.7513 99.265 93.3051 100.822C93.7431 101.246 94.4484 101.899 95.2831 102.643Z" fill="white"/>
<path d="M99.2646 91.8462C99.2646 92.2843 99.2453 92.7223 99.215 93.1521C98.0882 93.0915 97.1268 93.0529 96.5179 93.0529C94.2809 93.0529 89.8621 93.3725 86.8978 93.6039C86.3468 93.6507 85.8426 93.6893 85.4156 93.7278L84.5892 93.794L83.9087 93.8546V89.8324L84.5892 89.8902L85.4156 89.9619C85.8426 89.9977 86.344 90.039 86.895 90.0803C89.8731 90.3173 94.3168 90.6313 96.5179 90.6313C97.1378 90.6313 98.0965 90.59 99.215 90.5294C99.2453 90.9702 99.2646 91.4055 99.2646 91.8462Z" fill="white"/>
<path d="M95.2831 81.0524C94.4566 81.8045 93.7348 82.4546 93.3051 82.8844C91.7238 84.4684 88.8256 87.8184 86.8944 90.0802L85.9329 91.2152L85.4012 91.8461L84.9632 92.3668L82.1201 89.521L82.6408 89.0857L83.2717 88.5512L84.4012 87.5898C86.674 85.6613 90.0433 82.7329 91.5998 81.1763C92.0351 80.7411 92.688 80.0358 93.4346 79.201C94.1 79.7669 94.7183 80.386 95.2831 81.0524Z" fill="white"/>
<path d="M84.1698 90.8792H81.1118C81.1118 90.8792 81.1283 90.6891 81.1587 90.3613C81.1724 90.1905 81.1917 89.9783 81.211 89.7359C81.2358 89.4136 81.2688 89.0307 81.3019 88.6119C81.481 86.3474 81.7234 82.9726 81.7234 81.3004C81.7234 80.8265 81.6931 80.0992 81.649 79.248C81.9741 79.2232 82.3075 79.2122 82.6408 79.2122C82.9741 79.2122 83.3075 79.2122 83.6353 79.248C83.5885 80.1048 83.5582 80.8348 83.5582 81.3004C83.5582 83.0002 83.8006 86.3584 83.9797 88.6119C84.0127 89.0307 84.0458 89.4136 84.0706 89.7359C84.0899 89.9783 84.1092 90.1905 84.1229 90.3613C84.1532 90.6891 84.1698 90.8792 84.1698 90.8792Z" fill="#D3C2C1"/>
<path d="M83.0356 90.0801L82.6416 90.4768L82.2394 90.879L81.6747 91.43L81.2725 91.8322L80.8813 92.2565L80.5479 91.8598L80.1457 91.3832L79.4129 90.5209C77.939 88.7935 75.7241 86.2315 74.545 85.0496C74.2116 84.7163 73.6744 84.2231 73.0408 83.6556C73.4712 83.1508 73.941 82.681 74.4458 82.2506C75.0188 82.8898 75.5119 83.4242 75.8398 83.752C77.0437 84.9559 79.5892 87.1599 81.3083 88.6255L82.1706 89.3583L82.6472 89.7605L83.0356 90.0801Z" fill="#D3C2C1"/>
<path d="M81.6741 90.3282V93.3861L81.1562 93.331L80.5309 93.2759L79.4041 93.1878C77.1423 93.006 73.7648 92.7635 72.0953 92.7635C71.6242 92.7635 70.8942 92.7911 70.0457 92.8379C70.0209 92.5101 70.0071 92.1795 70.0071 91.8461C70.0071 91.5128 70.0071 91.1795 70.0457 90.8516C70.8997 90.8985 71.6297 90.9288 72.0953 90.9288C73.7951 90.9288 77.1506 90.6863 79.4041 90.5073L80.5309 90.4136L81.1562 90.3612L81.6741 90.3282Z" fill="#D3C2C1"/>
<path d="M83.0351 93.6121L82.6412 93.9455L82.1646 94.3477L81.305 95.0805C79.5777 96.5544 77.0156 98.7693 75.8338 99.9539C75.5004 100.287 75.0073 100.822 74.4398 101.455C73.935 101.025 73.4652 100.555 73.0348 100.05C73.6739 99.4773 74.2111 98.9815 74.539 98.6564C75.7401 97.4525 77.9413 94.9069 79.4069 93.1879C79.6824 92.8655 79.9276 92.5735 80.1397 92.3228L80.5419 91.8462L80.8753 91.4495L81.272 91.8462L81.6742 92.2484L83.0351 93.6121Z" fill="#D3C2C1"/>
<path d="M84.1698 92.8079C84.1698 92.8079 84.1532 92.9979 84.1229 93.323C84.1229 93.4966 84.0899 93.706 84.0706 93.9484C84.0458 94.2735 84.0155 94.6564 83.9797 95.0752C83.8006 97.3397 83.5582 100.714 83.5582 102.389C83.5582 102.861 83.5885 103.588 83.6326 104.439C83.3075 104.461 82.9769 104.478 82.6408 104.478C82.3047 104.478 81.9741 104.461 81.6463 104.439C81.6931 103.582 81.7234 102.852 81.7234 102.389C81.7234 100.687 81.481 97.3259 81.3047 95.0752C81.2688 94.6564 81.2385 94.2735 81.211 93.9484C81.1917 93.706 81.1724 93.4966 81.1587 93.3258C81.1283 92.998 81.1118 92.8079 81.1118 92.8079H84.1698Z" fill="#D3C2C1"/>
<path d="M92.2475 100.05C91.8171 100.555 91.3473 101.025 90.8425 101.455C90.2695 100.819 89.7763 100.282 89.4485 99.9539C88.2446 98.75 85.7018 96.5461 83.98 95.0805L83.1177 94.3477L82.6411 93.9454L82.2582 93.6121L82.6549 93.2154L83.0571 92.8132L83.6081 92.2622L84.0103 91.86L84.407 91.4633L84.7376 91.86L85.1426 92.3393C85.3547 92.5873 85.5999 92.8903 85.8754 93.1988C87.3465 94.9262 89.5642 97.4883 90.7433 98.6701C91.0739 98.9869 91.6249 99.4828 92.2475 100.05Z" fill="#D3C2C1"/>
<path d="M95.2728 91.8461C95.2728 92.1795 95.2591 92.5101 95.2343 92.8379C94.3802 92.7911 93.6474 92.7635 93.1846 92.7635C91.4848 92.7635 88.1293 93.006 85.8758 93.185L84.7491 93.2759L84.1237 93.3283L83.6085 93.3751V90.3282L84.1237 90.3723L84.7491 90.4246L85.8731 90.5155C88.1376 90.6973 91.5124 90.9398 93.1846 90.9398C93.6557 90.9398 94.3857 90.9095 95.2343 90.8626C95.2591 91.1795 95.2728 91.51 95.2728 91.8461Z" fill="#D3C2C1"/>
<path d="M92.2475 83.6449C91.6111 84.2151 91.0711 84.711 90.7433 85.0223C89.5422 86.2262 87.341 88.7718 85.8726 90.4909L85.1426 91.3531L84.7376 91.8463L84.407 92.2567L82.2582 90.0804L82.6549 89.747L83.1342 89.342L83.9938 88.612C85.7183 87.1381 88.2804 84.9204 89.4623 83.7386C89.7956 83.4052 90.2887 82.8708 90.8563 82.2371C91.357 82.6683 91.8222 83.1391 92.2475 83.6449Z" fill="#D3C2C1"/>
<path d="M85.9918 91.846C85.9918 92.5092 85.7951 93.1575 85.4266 93.7089C85.0581 94.2603 84.5343 94.6901 83.9215 94.9437C83.3087 95.1974 82.6345 95.2636 81.984 95.1341C81.3336 95.0045 80.7362 94.6849 80.2674 94.2157C79.7986 93.7465 79.4795 93.1489 79.3505 92.4983C79.2214 91.8478 79.2882 91.1736 79.5424 90.561C79.7966 89.9484 80.2267 89.425 80.7784 89.0569C81.3301 88.6888 81.9786 88.4927 82.6419 88.4932C83.082 88.4932 83.5179 88.58 83.9245 88.7485C84.3311 88.917 84.7005 89.164 85.0116 89.4754C85.3227 89.7867 85.5694 90.1564 85.7376 90.5631C85.9058 90.9699 85.9922 91.4058 85.9918 91.846Z" fill="white"/>
<path d="M84.966 91.8461C84.9654 92.3058 84.8286 92.7551 84.5728 93.1371C84.3169 93.5191 83.9536 93.8167 83.5287 93.9923C83.1038 94.1678 82.6364 94.2135 82.1855 94.1235C81.7347 94.0334 81.3206 93.8118 80.9957 93.4865C80.6708 93.1612 80.4496 92.7469 80.3602 92.2959C80.2707 91.845 80.3169 91.3776 80.4929 90.9529C80.669 90.5282 80.967 90.1652 81.3493 89.9099C81.7316 89.6545 82.1811 89.5182 82.6408 89.5182C82.9464 89.5182 83.249 89.5784 83.5313 89.6954C83.8135 89.8125 84.07 89.984 84.2859 90.2002C84.5019 90.4164 84.6731 90.673 84.7898 90.9555C84.9065 91.2379 84.9663 91.5405 84.966 91.8461Z" fill="#111114"/>
<path d="M281.513 69.0853C286.015 69.0836 290.417 70.4171 294.161 72.9172C297.905 75.4172 300.824 78.9714 302.548 83.1303C304.272 87.2892 304.724 91.866 303.846 96.2818C302.969 100.698 300.802 104.754 297.619 107.938C294.436 111.122 290.38 113.291 285.965 114.17C281.55 115.048 276.973 114.598 272.813 112.876C268.654 111.153 265.098 108.236 262.597 104.493C260.096 100.749 258.76 96.3484 258.76 91.8464C258.76 85.811 261.156 80.0224 265.423 75.7539C269.69 71.4855 275.478 69.0867 281.513 69.0853Z" fill="#1D2225"/>
<path d="M281.516 109.367C281.072 109.367 280.612 109.351 280.138 109.315C276.45 109.038 272.946 107.591 270.138 105.183C269.438 104.587 268.786 103.935 268.19 103.235C265.782 100.427 264.335 96.9232 264.058 93.2346C264.022 92.7635 264.003 92.3034 264.003 91.8571C264.003 91.4108 264.022 90.9728 264.055 90.5155V90.4769C264.332 86.7892 265.78 83.2865 268.188 80.4793C268.783 79.7788 269.435 79.1274 270.135 78.5316C272.943 76.1242 276.445 74.6764 280.133 74.3992C280.601 74.3634 281.061 74.3469 281.51 74.3469C281.959 74.3469 282.417 74.3634 282.888 74.3992C286.576 74.6758 290.08 76.1237 292.888 78.5316C293.589 79.1277 294.241 79.78 294.836 80.4821C297.243 83.2885 298.691 86.7902 298.968 90.4769C299.004 90.9452 299.021 91.408 299.021 91.8543C299.021 92.3006 299.004 92.7607 298.968 93.2318C298.692 96.9214 297.244 100.426 294.836 103.235C294.239 103.936 293.587 104.589 292.888 105.188C290.082 107.595 286.58 109.043 282.893 109.32C282.422 109.351 281.959 109.367 281.516 109.367ZM265.835 90.5871V90.6036C265.802 91.0279 265.785 91.4466 265.785 91.8461C265.785 92.2455 265.802 92.6726 265.835 93.0858C266.087 96.3969 267.389 99.5411 269.551 102.061C270.088 102.689 270.673 103.274 271.301 103.811C273.82 105.976 276.964 107.28 280.276 107.533C280.7 107.563 281.119 107.579 281.516 107.579C281.913 107.579 282.342 107.563 282.756 107.533C286.488 107.236 289.992 105.618 292.639 102.969C295.286 100.321 296.902 96.8156 297.197 93.083C297.23 92.6643 297.244 92.2566 297.244 91.8461C297.244 91.4356 297.244 91.0196 297.197 90.6064C296.901 86.8744 295.284 83.3702 292.638 80.7225C289.991 78.0749 286.487 76.4571 282.756 76.1596C281.93 76.0962 281.101 76.0962 280.276 76.1596C276.547 76.456 273.046 78.0708 270.399 80.7146C267.753 83.3584 266.135 86.8584 265.835 90.5871Z" fill="white"/>
<path d="M283.526 90.5734H279.51C279.51 90.5734 279.532 90.3227 279.57 89.8929C279.59 89.667 279.612 89.3887 279.639 89.0664C279.672 88.6394 279.714 88.138 279.758 87.587C279.995 84.609 280.309 80.1653 280.309 77.9641C280.309 77.3443 280.27 76.3856 280.21 75.2671C280.639 75.234 281.077 75.2147 281.515 75.2147C281.953 75.2147 282.391 75.234 282.824 75.2671C282.763 76.3911 282.722 77.3525 282.722 77.9641C282.722 80.2011 283.042 84.6227 283.273 87.587C283.317 88.138 283.358 88.6394 283.394 89.0664C283.422 89.386 283.447 89.6642 283.466 89.8929C283.504 90.3282 283.526 90.5734 283.526 90.5734Z" fill="white"/>
<path d="M282.036 89.521L281.516 90.0444L280.987 90.5733L280.24 91.3172L279.714 91.8461L279.193 92.3668L278.755 91.8461C278.606 91.6753 278.427 91.4604 278.223 91.218L277.259 90.083C275.331 87.8102 272.405 84.4409 270.851 82.8844C270.413 82.4463 269.708 81.7824 268.876 81.0496C269.44 80.3835 270.058 79.7652 270.725 79.201C271.477 80.0275 272.127 80.7466 272.557 81.1763C274.141 82.7604 277.491 85.6613 279.752 87.5898C280.174 87.9507 280.56 88.2757 280.887 88.554L281.516 89.0857C281.843 89.3639 282.036 89.521 282.036 89.521Z" fill="white"/>
<path d="M280.24 89.8324V93.8573L279.565 93.7995L278.739 93.7306L277.254 93.6094C274.276 93.3725 269.835 93.0584 267.634 93.0584C267.014 93.0584 266.055 93.097 264.937 93.1576C264.904 92.7278 264.887 92.2898 264.887 91.8518C264.887 91.4137 264.904 90.9757 264.937 90.5432C266.063 90.6038 267.022 90.6451 267.634 90.6451C269.873 90.6451 274.29 90.3255 277.254 90.0941L278.739 89.9729L279.565 89.904L280.24 89.8324Z" fill="white"/>
<path d="M282.036 94.1849C282.036 94.1849 281.843 94.342 281.515 94.6202L280.887 95.1519L279.755 96.1161C277.482 98.0446 274.113 100.97 272.556 102.527C272.118 102.968 271.471 103.67 270.724 104.505C270.058 103.94 269.439 103.322 268.873 102.656C269.713 101.901 270.419 101.251 270.851 100.822C272.432 99.2375 275.331 95.8875 277.259 93.6229L278.226 92.4879C278.427 92.2455 278.606 92.0334 278.755 91.8598C279.03 91.5292 279.193 91.3391 279.193 91.3391L279.714 91.8598L280.24 92.3887L282.036 94.1849Z" fill="white"/>
<path d="M283.527 93.1188C283.527 93.1188 283.505 93.3695 283.469 93.7966C283.45 94.0252 283.425 94.3007 283.397 94.623C283.364 95.0528 283.323 95.5569 283.279 96.1079C283.042 99.086 282.728 103.53 282.728 105.731C282.728 106.351 282.769 107.312 282.827 108.431C282.397 108.461 281.962 108.48 281.521 108.48C281.08 108.48 280.645 108.461 280.213 108.431C280.276 107.304 280.315 106.34 280.315 105.731C280.315 103.494 279.995 99.0722 279.764 96.1079C279.719 95.5569 279.678 95.0528 279.642 94.6258C279.615 94.3062 279.593 94.0307 279.573 93.7993C279.535 93.3695 279.513 93.1188 279.513 93.1188H283.527Z" fill="white"/>
<path d="M294.158 102.643C293.591 103.308 292.972 103.927 292.307 104.494C291.555 103.667 290.905 102.948 290.472 102.513C288.891 100.929 285.541 98.0308 283.279 96.1024L282.144 95.1382L281.516 94.6065L280.995 94.1712L281.516 93.6478L282.042 93.1188L282.789 92.375L283.317 91.8461L283.838 91.3254L284.276 91.8461L284.808 92.4769C285.083 92.8048 285.411 93.1877 285.772 93.6065C287.701 95.882 290.626 99.2513 292.18 100.808C292.618 101.246 293.323 101.899 294.158 102.643Z" fill="white"/>
<path d="M298.138 91.8462C298.138 92.2843 298.119 92.7223 298.086 93.1521C296.962 93.0915 296.001 93.0529 295.389 93.0529C293.155 93.0529 288.736 93.3725 285.772 93.6039C285.221 93.6507 284.717 93.6893 284.29 93.7278L283.463 93.794L282.783 93.8546V89.8324L283.463 89.8902L284.29 89.9619C284.714 89.9977 285.218 90.039 285.769 90.0803C288.747 90.3173 293.191 90.6313 295.389 90.6313C296.012 90.6313 296.97 90.59 298.086 90.5294C298.119 90.9702 298.138 91.4055 298.138 91.8462Z" fill="white"/>
<path d="M294.158 81.0524C293.318 81.8045 292.61 82.4546 292.18 82.8844C290.599 84.4684 287.701 87.8184 285.769 90.0802L284.808 91.2152L284.276 91.8461L283.838 92.3668L280.995 89.521L281.516 89.0857L282.144 88.5512C282.472 88.2757 282.855 87.9507 283.276 87.5898C285.549 85.6613 288.918 82.7329 290.472 81.1763C290.91 80.7411 291.574 80.0358 292.31 79.201C292.975 79.7669 293.593 80.386 294.158 81.0524Z" fill="white"/>
<path d="M283.042 90.8792H279.987C279.987 90.8792 280.003 90.6891 280.034 90.3613C280.034 90.1905 280.064 89.9783 280.086 89.7359C280.111 89.4136 280.141 89.0307 280.177 88.6119C280.356 86.3474 280.598 82.9726 280.598 81.3004C280.598 80.8265 280.568 80.0992 280.524 79.248C280.849 79.2232 281.182 79.2122 281.516 79.2122C281.849 79.2122 282.182 79.2122 282.51 79.248C282.463 80.1048 282.433 80.8348 282.433 81.3004C282.433 83.0002 282.676 86.3584 282.855 88.6119C282.888 89.0307 282.918 89.4136 282.946 89.7359C282.965 89.9783 282.984 90.1905 282.998 90.3613C283.028 90.6891 283.042 90.8792 283.042 90.8792Z" fill="#D3C2C1"/>
<path d="M281.91 90.0801L281.516 90.4769L281.114 90.8791L280.546 91.4301L280.147 91.8323L279.75 92.229L279.417 91.8323L279.015 91.3557L278.282 90.4934C276.808 88.7661 274.593 86.204 273.411 85.0221C273.081 84.6888 272.543 84.1957 271.91 83.6281C272.34 83.1234 272.81 82.6535 273.315 82.2231C273.888 82.8623 274.381 83.3967 274.709 83.7246C275.913 84.9285 278.458 87.1324 280.177 88.598L281.04 89.3308L281.516 89.733L281.91 90.0801Z" fill="#D3C2C1"/>
<path d="M280.547 90.3282V93.3861L280.034 93.3421L279.409 93.287L278.282 93.1988C276.02 93.017 272.643 92.7746 270.97 92.7746C270.502 92.7746 269.772 92.8021 268.921 92.8489C268.899 92.5211 268.885 92.1905 268.885 91.8572C268.885 91.5238 268.899 91.1905 268.921 90.8626C269.778 90.9095 270.508 90.9398 270.97 90.9398C272.673 90.9398 276.029 90.6973 278.282 90.5183L279.409 90.4246L280.034 90.3723L280.547 90.3282Z" fill="#D3C2C1"/>
<path d="M281.91 93.6121L281.516 93.9455L281.04 94.3477L280.177 95.0805C278.453 96.5544 275.891 98.7693 274.709 99.9539C274.375 100.287 273.882 100.822 273.315 101.455C272.81 101.025 272.34 100.555 271.91 100.05C272.546 99.4773 273.083 98.9815 273.411 98.6564C274.615 97.4525 276.816 94.9069 278.282 93.1879C278.557 92.8655 278.803 92.5735 279.015 92.3228L279.417 91.8462L279.75 91.4495L280.147 91.8462L280.546 92.2484L281.91 93.6121Z" fill="#D3C2C1"/>
<path d="M283.042 92.8079C283.042 92.8079 283.042 92.9979 282.998 93.323C282.984 93.4966 282.965 93.706 282.946 93.9484C282.921 94.2735 282.888 94.6564 282.855 95.0752C282.676 97.3397 282.433 100.714 282.433 102.389C282.433 102.861 282.463 103.588 282.508 104.439C282.182 104.461 281.849 104.478 281.516 104.478C281.182 104.478 280.849 104.461 280.521 104.439C280.568 103.582 280.598 102.852 280.598 102.389C280.598 100.687 280.356 97.3259 280.177 95.0752C280.144 94.6564 280.114 94.2735 280.086 93.9484C280.064 93.706 280.047 93.4966 280.034 93.3258C280.003 92.998 279.987 92.8079 279.987 92.8079H283.042Z" fill="#D3C2C1"/>
<path d="M291.121 100.05C290.691 100.555 290.221 101.025 289.716 101.455C289.143 100.819 288.647 100.282 288.322 99.9539C287.118 98.75 284.573 96.5461 282.854 95.0805L281.992 94.3477L281.515 93.9454L281.118 93.6121L281.515 93.2154L281.917 92.8132L282.468 92.2622L282.87 91.86L283.267 91.4633L283.598 91.86L284.003 92.3393C284.212 92.5873 284.46 92.8903 284.735 93.1988C286.207 94.9262 288.424 97.4883 289.603 98.6701C289.951 98.9869 290.488 99.4828 291.121 100.05Z" fill="#D3C2C1"/>
<path d="M294.147 91.8461C294.147 92.1795 294.133 92.5101 294.108 92.8379C293.251 92.7911 292.521 92.7635 292.059 92.7635C290.359 92.7635 287.001 93.006 284.75 93.185L283.623 93.2759L282.998 93.3283L282.483 93.3751V90.3282L282.998 90.3723L283.623 90.4246L284.747 90.5155C287.012 90.6973 290.386 90.9398 292.059 90.9398C292.53 90.9398 293.26 90.9095 294.108 90.8626C294.133 91.1795 294.147 91.51 294.147 91.8461Z" fill="#D3C2C1"/>
<path d="M291.121 83.6447C290.482 84.2149 289.945 84.7108 289.617 85.0221C288.416 86.226 286.215 88.7716 284.747 90.4906L284.016 91.3529L283.611 91.8323L283.281 92.229L281.118 90.0664L281.515 89.733L281.992 89.3281C282.242 89.1187 282.543 88.8707 282.854 88.598C284.578 87.1241 287.141 84.9064 288.322 83.7246C288.656 83.3912 289.149 82.8568 289.716 82.2231C290.222 82.6582 290.692 83.1336 291.121 83.6447Z" fill="#D3C2C1"/>
<path d="M284.866 91.846C284.866 92.5092 284.669 93.1575 284.301 93.7089C283.932 94.2603 283.408 94.6901 282.796 94.9437C282.183 95.1974 281.508 95.2636 280.858 95.1341C280.208 95.0045 279.61 94.6849 279.141 94.2157C278.673 93.7465 278.354 93.1489 278.224 92.4983C278.095 91.8478 278.162 91.1736 278.416 90.561C278.671 89.9484 279.101 89.425 279.652 89.0569C280.204 88.6888 280.853 88.4927 281.516 88.4932C281.956 88.4932 282.392 88.58 282.799 88.7485C283.205 88.917 283.575 89.164 283.886 89.4754C284.197 89.7867 284.443 90.1564 284.612 90.5631C284.78 90.9699 284.866 91.4058 284.866 91.846Z" fill="white"/>
<path d="M283.841 91.8461C283.841 92.3066 283.705 92.7568 283.449 93.1397C283.193 93.5226 282.829 93.8209 282.404 93.9971C281.978 94.1732 281.51 94.2191 281.058 94.1291C280.607 94.039 280.192 93.817 279.867 93.4912C279.541 93.1654 279.32 92.7503 279.23 92.2986C279.141 91.8468 279.187 91.3787 279.364 90.9533C279.54 90.528 279.839 90.1646 280.222 89.9092C280.605 89.6537 281.056 89.5176 281.516 89.5182C281.822 89.5182 282.124 89.5784 282.407 89.6955C282.689 89.8125 282.945 89.984 283.161 90.2002C283.377 90.4164 283.549 90.673 283.665 90.9555C283.782 91.2379 283.842 91.5405 283.841 91.8461Z" fill="#111114"/>
<path d="M183.614 49.4149C183.614 50.9384 180.184 52.1698 175.956 52.1698C171.727 52.1698 168.294 50.9356 168.294 49.4149C168.294 47.8942 171.724 46.66 175.956 46.66C180.187 46.66 183.614 47.9024 183.614 49.4149Z" fill="#060607"/>
<path d="M182.286 49.4147C182.286 49.8996 181.994 50.2935 181.633 50.2935H170.274C169.914 50.2935 169.622 49.8996 169.622 49.4147C169.622 48.9298 169.914 48.5359 170.274 48.5359H181.633C181.994 48.5359 182.286 48.9298 182.286 49.4147Z" fill="#131B23"/>
<path d="M274.236 47.875C274.236 49.3985 270.807 50.6299 266.575 50.6299C262.343 50.6299 258.914 49.3957 258.914 47.875C258.914 46.3543 262.343 45.1201 266.575 45.1201C270.807 45.1201 274.236 46.3516 274.236 47.875Z" fill="#060607"/>
<path d="M272.899 47.8749C272.899 48.3625 272.607 48.7564 272.246 48.7564H260.896C260.535 48.7564 260.243 48.3625 260.243 47.8749C260.243 47.39 260.535 46.996 260.896 46.996H272.257C272.618 46.996 272.91 47.39 272.91 47.8749H272.899Z" fill="#131B23"/>
<path d="M154.743 55.7318H148.068V62.4097H154.743V55.7318Z" fill="#FFCA22"/>
<path d="M142.318 55.7318H135.643V62.4097H142.318V55.7318Z" fill="#FFCA22"/>
<path d="M160.632 62.4125H153.954V69.0904H160.632V62.4125Z" fill="#FFCA22"/>
<path d="M148.531 62.4125H141.855V69.0904H148.531V62.4125Z" fill="#FFCA22"/>
<path d="M136.428 62.4125H129.753V69.0904H136.428V62.4125Z" fill="#FFCA22"/>
<path d="M238.608 53.9993H231.932V60.6772H238.608V53.9993Z" fill="#FFCA22"/>
<path d="M226.184 53.9993H219.508V60.6772H226.184V53.9993Z" fill="#FFCA22"/>
<path d="M244.498 60.6771H237.82V67.355H244.498V60.6771Z" fill="#FFCA22"/>
<path d="M232.396 60.6771H225.721V67.355H232.396V60.6771Z" fill="#FFCA22"/>
<path d="M220.299 60.6771H213.621V67.355H220.299V60.6771Z" fill="#FFCA22"/>
</svg>
