<svg width="16" height="12" viewBox="0 0 16 12" fill="none" xmlns="http://www.w3.org/2000/svg">
<path fill-rule="evenodd" clip-rule="evenodd" d="M15.1704 0.929596C15.381 1.14053 15.4994 1.42647 15.4994 1.7246C15.4994 2.02272 15.381 2.30866 15.1704 2.5196L6.02486 11.6651C5.91928 11.7706 5.79377 11.854 5.65564 11.9105C5.51751 11.967 5.36952 11.9954 5.22028 11.9942C5.07105 11.9929 4.92356 11.962 4.7864 11.9032C4.64924 11.8444 4.52515 11.7588 4.42136 11.6516L0.816862 7.9256C0.713195 7.81961 0.631498 7.69419 0.576468 7.55652C0.521437 7.41886 0.494159 7.27168 0.4962 7.12344C0.498242 6.9752 0.529564 6.82883 0.588364 6.69273C0.647165 6.55664 0.732286 6.43351 0.838832 6.33042C0.945379 6.22733 1.07125 6.14632 1.20921 6.09204C1.34717 6.03777 1.4945 6.01129 1.64272 6.01414C1.79095 6.01699 1.93715 6.04911 2.07292 6.10865C2.20869 6.1682 2.33136 6.25399 2.43386 6.3611L5.24336 9.2651L13.5804 0.929596C13.7913 0.71892 14.0772 0.600586 14.3754 0.600586C14.6735 0.600586 14.9594 0.71892 15.1704 0.929596Z" fill="#15D356"/>
</svg>
