<svg width="20" height="20" viewBox="0 0 20 20" fill="none" xmlns="http://www.w3.org/2000/svg">
<path d="M13.1817 10L19.341 3.84069C20.2197 2.96207 20.2197 1.53758 19.341 0.658962C18.4624 -0.219654 17.038 -0.219654 16.1593 0.658962L10 6.81828L3.84069 0.658962C2.96207 -0.219654 1.53758 -0.219654 0.658962 0.658962C-0.219654 1.53758 -0.219654 2.96207 0.658962 3.84069L6.81828 10L0.658962 16.1593C-0.219654 17.0379 -0.219654 18.4624 0.658962 19.341C1.09827 19.7803 1.67404 20 2.2498 20C2.82557 20 3.40138 19.7803 3.84064 19.341L10 13.1817L16.1593 19.341C16.5986 19.7803 17.1744 20 17.7502 20C18.3259 20 18.9017 19.7803 19.341 19.341C20.2196 18.4624 20.2196 17.0379 19.341 16.1593L13.1817 10Z" fill="black"/>
</svg>
