<svg width="48" height="48" viewBox="0 0 48 48" fill="none" xmlns="http://www.w3.org/2000/svg">
<circle cx="24" cy="24" r="24" fill="#F8E3ED"/>
<path d="M40.0018 28.4427L39.3906 28.1094C39.1684 27.9983 39.0573 27.776 39.1129 27.5538C39.2795 26.4983 39.3906 22.8316 33.724 21.1649C33.6129 21.1094 33.5017 21.1094 33.3906 21.1094L22.5017 21.1649C22.2795 21.1649 22.0573 21.2205 21.8906 21.3316L16.1684 25.1649C16.0573 25.2205 15.9462 25.276 15.8351 25.276C14.7795 25.2205 13.7795 25.3316 12.724 25.4983C9.72397 26.1094 8.50174 27.7205 8.0573 28.5538C7.94619 28.7205 7.94619 28.9427 7.94619 29.1094C8.00174 30.4427 7.11286 31.9427 8.44619 33.1649L19.224 33.1094L30.5573 32.8316L39.5017 32.7205C40.0017 32.6649 40.8351 31.9427 41.0573 31.4983C42.0017 29.9983 40.1129 28.4983 40.0018 28.4427Z" fill="#EA5A47"/>
<path d="M13.6128 29.7812C12.3906 29.7812 11.3906 30.7812 11.3906 32.0035C11.3906 33.2257 12.3906 34.2257 13.6128 34.2257C14.8351 34.2257 15.8351 33.2257 15.8351 32.0035C15.8351 30.7812 14.8351 29.7812 13.6128 29.7812ZM35.724 29.7812C34.5017 29.7812 33.5017 30.7812 33.5017 32.0035C33.5017 33.2257 34.5017 34.2257 35.724 34.2257C36.9462 34.2257 37.9462 33.2257 37.9462 32.0035C37.9462 30.7812 36.9462 29.7812 35.724 29.7812Z" fill="#9B9B9A"/>
<path d="M35.1667 25.8333V23.4444C35.1667 22.9444 34.7223 22.5 34.2223 22.5H22.4445C22.3889 22.5 22.3334 22.5 22.3334 22.5556L17.8889 25.7222C17.7778 25.7778 17.7778 25.9444 17.8334 26.0556C17.8889 26.1111 17.9445 26.1667 18 26.1667C21.1111 26.1667 33.1111 26.0556 34.8889 26.1111C35.0556 26.1111 35.1667 26 35.1667 25.8333C35.1667 25.8889 35.1667 25.8889 35.1667 25.8333Z" fill="#92D3F5"/>
<path d="M8.94488 26.5L11.1671 27.3889L10.0004 29L7.22266 29.0556L8.94488 26.5Z" fill="#FCEA2B"/>
<path d="M30.4431 32.3316L18.9987 32.5538M8.4987 32.5538C7.9987 32.4427 7.55425 32.276 7.4987 31.9983C7.44314 31.4427 7.33203 29.8872 7.33203 29.1649C7.33203 28.8872 7.38759 28.5538 7.55425 28.3316C8.16536 27.2205 10.2209 24.5538 15.832 24.776L21.5543 20.9427C21.832 20.776 22.1654 20.6649 22.4431 20.6649L33.332 20.6094C33.4987 20.6094 33.6654 20.6094 33.832 20.6649C35.0543 20.9983 40.332 22.8872 39.6098 27.6649L40.2209 27.9983C40.4987 28.1094 40.7209 28.3872 40.7765 28.6649C40.9987 29.4427 40.9431 30.276 40.6654 31.0538" stroke="black" stroke-width="1.5" stroke-linecap="round" stroke-linejoin="round"/>
<path d="M17.832 26.1658L34.6098 26.0547V23.5547" stroke="black" stroke-width="1.5" stroke-linecap="round" stroke-linejoin="round"/>
<path d="M13.6098 34.7743C15.1439 34.7743 16.3876 33.5307 16.3876 31.9965C16.3876 30.4624 15.1439 29.2188 13.6098 29.2188C12.0757 29.2188 10.832 30.4624 10.832 31.9965C10.832 33.5307 12.0757 34.7743 13.6098 34.7743Z" stroke="black" stroke-width="1.5" stroke-linecap="round" stroke-linejoin="round"/>
<path d="M35.7192 34.7743C37.2533 34.7743 38.497 33.5307 38.497 31.9965C38.497 30.4624 37.2533 29.2188 35.7192 29.2188C34.1851 29.2188 32.9414 30.4624 32.9414 31.9965C32.9414 33.5307 34.1851 34.7743 35.7192 34.7743Z" stroke="black" stroke-width="1.5" stroke-linecap="round" stroke-linejoin="round"/>
<path d="M10.8329 27.8318L9.8329 29.054L7.77734 28.9984M14.1485 19.4779C15.0846 16.8668 17.264 14.7545 20.1562 14.0273C21.3878 13.7162 22.6731 13.682 23.9195 13.9272C25.1659 14.1723 26.3425 14.6907 27.3646 15.4451" stroke="black" stroke-width="1.5" stroke-linecap="round" stroke-linejoin="round"/>
<path d="M11.8789 18.9162C12.9656 15.5795 15.6911 12.8578 19.3456 11.9384C22.6439 11.1089 25.9711 11.9312 28.4528 13.8828" stroke="black" stroke-width="1.5" stroke-linecap="round" stroke-linejoin="round"/>
<path d="M16.3398 19.9578C16.718 19.03 17.3095 18.2042 18.0663 17.5476C18.8231 16.891 19.724 16.4219 20.696 16.1784C21.6098 15.9477 22.5634 15.9224 23.4882 16.1043C24.413 16.2863 25.2859 16.6709 26.0443 17.2306" stroke="black" stroke-width="1.5" stroke-linecap="round" stroke-linejoin="round"/>
</svg>
