<svg width="102" height="106" viewBox="0 0 102 106" fill="none" xmlns="http://www.w3.org/2000/svg">
<g filter="url(#filter0_d_2093_4181)">
<circle cx="49" cy="49" r="24" fill="white"/>
</g>
<g filter="url(#filter1_d_2093_4181)">
<path d="M58.0239 23.5039C58.1997 23.0072 57.9399 22.4603 57.4375 22.3015C54.1152 21.2516 50.6233 20.8301 47.1411 21.0618C43.3413 21.3146 39.6331 22.3399 36.2431 24.0749C32.8531 25.8099 29.8527 28.2182 27.4253 31.1525C24.998 34.0867 23.1947 37.4853 22.1257 41.1404C21.0568 44.7955 20.7446 48.6302 21.2084 52.41C21.6722 56.1898 22.9021 59.8353 24.823 63.1235C26.7439 66.4117 29.3154 69.2736 32.3801 71.534C35.1887 73.6054 38.3575 75.1319 41.722 76.0376C42.2308 76.1745 42.7443 75.8538 42.8638 75.3406C42.9834 74.8274 42.6637 74.3162 42.1552 74.178C39.0434 73.332 36.1125 71.9157 33.5128 69.9982C30.6569 67.8919 28.2607 65.2251 26.4707 62.161C24.6807 59.0969 23.5346 55.6998 23.1024 52.1776C22.6703 48.6554 22.9611 45.082 23.9572 41.676C24.9533 38.2701 26.6337 35.1031 28.8957 32.3688C31.1576 29.6345 33.9536 27.3903 37.1125 25.7736C40.2714 24.1568 43.727 23.2014 47.2678 22.9658C50.491 22.7513 53.7231 23.1374 56.8005 24.1015C57.3033 24.2591 57.8481 24.0007 58.0239 23.5039Z" fill="#18C4BA"/>
</g>
<path d="M56.95 58C54.8667 58 52.8083 57.546 50.775 56.638C48.7417 55.73 46.8917 54.4423 45.225 52.775C43.5583 51.1077 42.271 49.2577 41.363 47.225C40.455 45.1923 40.0007 43.134 40 41.05C40 40.75 40.1 40.5 40.3 40.3C40.5 40.1 40.75 40 41.05 40H45.1C45.3333 40 45.5417 40.0793 45.725 40.238C45.9083 40.3967 46.0167 40.584 46.05 40.8L46.7 44.3C46.7333 44.5667 46.725 44.7917 46.675 44.975C46.625 45.1583 46.5333 45.3167 46.4 45.45L43.975 47.9C44.3083 48.5167 44.704 49.1123 45.162 49.687C45.62 50.2617 46.1243 50.816 46.675 51.35C47.1917 51.8667 47.7333 52.346 48.3 52.788C48.8667 53.23 49.4667 53.634 50.1 54L52.45 51.65C52.6 51.5 52.796 51.3877 53.038 51.313C53.28 51.2383 53.5173 51.2173 53.75 51.25L57.2 51.95C57.4333 52.0167 57.625 52.1377 57.775 52.313C57.925 52.4883 58 52.684 58 52.9V56.95C58 57.25 57.9 57.5 57.7 57.7C57.5 57.9 57.25 58 56.95 58Z" fill="black"/>
<defs>
<filter id="filter0_d_2093_4181" x="4" y="4" width="98" height="98" filterUnits="userSpaceOnUse" color-interpolation-filters="sRGB">
<feFlood flood-opacity="0" result="BackgroundImageFix"/>
<feColorMatrix in="SourceAlpha" type="matrix" values="0 0 0 0 0 0 0 0 0 0 0 0 0 0 0 0 0 0 127 0" result="hardAlpha"/>
<feOffset dx="4" dy="4"/>
<feGaussianBlur stdDeviation="12.5"/>
<feComposite in2="hardAlpha" operator="out"/>
<feColorMatrix type="matrix" values="0 0 0 0 0 0 0 0 0 0 0 0 0 0 0 0 0 0 0.12 0"/>
<feBlend mode="normal" in2="BackgroundImageFix" result="effect1_dropShadow_2093_4181"/>
<feBlend mode="normal" in="SourceGraphic" in2="effect1_dropShadow_2093_4181" result="shape"/>
</filter>
<filter id="filter1_d_2093_4181" x="0" y="0" width="87.0786" height="105.068" filterUnits="userSpaceOnUse" color-interpolation-filters="sRGB">
<feFlood flood-opacity="0" result="BackgroundImageFix"/>
<feColorMatrix in="SourceAlpha" type="matrix" values="0 0 0 0 0 0 0 0 0 0 0 0 0 0 0 0 0 0 127 0" result="hardAlpha"/>
<feOffset dx="4" dy="4"/>
<feGaussianBlur stdDeviation="12.5"/>
<feComposite in2="hardAlpha" operator="out"/>
<feColorMatrix type="matrix" values="0 0 0 0 0 0 0 0 0 0 0 0 0 0 0 0 0 0 0.12 0"/>
<feBlend mode="normal" in2="BackgroundImageFix" result="effect1_dropShadow_2093_4181"/>
<feBlend mode="normal" in="SourceGraphic" in2="effect1_dropShadow_2093_4181" result="shape"/>
</filter>
</defs>
</svg>
