<svg width="20" height="20" viewBox="0 0 20 20" fill="none" xmlns="http://www.w3.org/2000/svg">
<path fill-rule="evenodd" clip-rule="evenodd" d="M10.0013 1.66797C5.39893 1.66797 1.66797 5.39893 1.66797 10.0013C1.66797 14.6037 5.39893 18.3346 10.0013 18.3346C14.6037 18.3346 18.3346 14.6037 18.3346 10.0013C18.3346 5.39893 14.6037 1.66797 10.0013 1.66797ZM9.1188 6.63876C9.36338 6.87428 9.65755 6.99205 10.0013 6.99205C10.3467 6.99365 10.6411 6.87589 10.8844 6.63876C11.1278 6.40163 11.25 6.11816 11.2513 5.78834C11.2525 5.45853 11.1303 5.17526 10.8844 4.93853C10.6386 4.7018 10.3442 4.58384 10.0013 4.58464C9.65838 4.58544 9.36422 4.7034 9.1188 4.93853C8.87339 5.17365 8.75089 5.45692 8.7513 5.78834C8.75172 6.11976 8.87422 6.40323 9.1188 6.63876ZM9.33755 15.155C9.51963 15.3303 9.74088 15.418 10.0013 15.418C10.2621 15.4184 10.4836 15.3307 10.6657 15.155C10.8478 14.9792 10.9388 14.766 10.9388 14.5152V9.09853C10.9396 8.84856 10.8486 8.6355 10.6657 8.45936C10.4828 8.28322 10.2613 8.19535 10.0013 8.19575C9.7413 8.19615 9.52005 8.28402 9.33755 8.45936C9.15505 8.6347 9.0638 8.84775 9.0638 9.09853V14.5152C9.06422 14.7664 9.15547 14.9796 9.33755 15.155Z" fill="#C07000"/>
</svg>
