<svg width="24" height="24" viewBox="0 0 24 24" fill="none" xmlns="http://www.w3.org/2000/svg">
<path fill-rule="evenodd" clip-rule="evenodd" d="M17.0002 15C17.198 15 17.3913 14.9413 17.5557 14.8314C17.7201 14.7215 17.8482 14.5654 17.9239 14.3827C17.9996 14.2 18.0194 13.9989 17.9808 13.805C17.9422 13.611 17.847 13.4329 17.7072 13.293L12.7072 8.293C12.5197 8.10553 12.2654 8.00021 12.0002 8.00021C11.735 8.00021 11.4807 8.10553 11.2932 8.293L6.29321 13.293C6.1534 13.4329 6.0582 13.611 6.01963 13.805C5.98106 13.9989 6.00087 14.2 6.07654 14.3827C6.15221 14.5654 6.28034 14.7215 6.44475 14.8314C6.60916 14.9413 6.80246 15 7.00021 15L17.0002 15Z" fill="white"/>
</svg>
