<svg width="14" height="20" viewBox="0 0 14 20" fill="none" xmlns="http://www.w3.org/2000/svg">
<path fill-rule="evenodd" clip-rule="evenodd" d="M2.30819e-07 6.99821C0.000344624 5.65652 0.386267 4.34319 1.11182 3.2146C1.83737 2.08601 2.87197 1.18971 4.09245 0.632419C5.31292 0.0751278 6.66785 -0.119674 7.99589 0.0712092C9.32393 0.262092 10.5691 0.830616 11.5833 1.70909C12.5974 2.58756 13.3377 3.73897 13.716 5.02622C14.0943 6.31347 14.0947 7.68233 13.7171 8.9698C13.3396 10.2573 12.6 11.4091 11.5864 12.2882C10.5728 13.1673 9.32793 13.7365 8 13.9282V18.9982C8 19.2634 7.89464 19.5178 7.70711 19.7053C7.51957 19.8929 7.26522 19.9982 7 19.9982C6.73478 19.9982 6.48043 19.8929 6.29289 19.7053C6.10536 19.5178 6 19.2634 6 18.9982V13.9282C4.3337 13.6877 2.8099 12.8547 1.70791 11.5819C0.605919 10.3091 -0.000431902 8.68178 2.30819e-07 6.99821ZM5.94 5.93821C6.22103 5.65682 6.60231 5.49856 7 5.49821C7.26522 5.49821 7.51957 5.39285 7.70711 5.20531C7.89464 5.01778 8 4.76342 8 4.49821C8 4.23299 7.89464 3.97864 7.70711 3.7911C7.51957 3.60356 7.26522 3.49821 7 3.49821C6.07174 3.49821 5.1815 3.86696 4.52513 4.52333C3.86875 5.17971 3.5 6.06995 3.5 6.99821C3.5 7.26342 3.60536 7.51778 3.79289 7.70531C3.98043 7.89285 4.23478 7.99821 4.5 7.99821C4.76522 7.99821 5.01957 7.89285 5.20711 7.70531C5.39464 7.51778 5.5 7.26342 5.5 6.99821C5.5 6.60021 5.658 6.21821 5.94 5.93821Z" fill="black"/>
</svg>
