<svg width="40" height="41" viewBox="0 0 40 41" fill="none" xmlns="http://www.w3.org/2000/svg">
<rect y="40.5" width="40" height="40" rx="20" transform="rotate(-90 0 40.5)" fill="#EEEEEE"/>
<path d="M26.3008 21.6992C25.903 21.6992 25.5214 21.5412 25.2401 21.2599C24.9588 20.9786 24.8008 20.597 24.8008 20.1992C24.8008 19.8014 24.9588 19.4199 25.2401 19.1386C25.5214 18.8573 25.903 18.6992 26.3008 18.6992C26.6986 18.6992 27.0801 18.8573 27.3614 19.1386C27.6427 19.4199 27.8008 19.8014 27.8008 20.1992C27.8008 20.597 27.6427 20.9786 27.3614 21.2599C27.0801 21.5412 26.6986 21.6992 26.3008 21.6992ZM20.3008 21.6992C19.903 21.6992 19.5214 21.5412 19.2401 21.2599C18.9588 20.9786 18.8008 20.597 18.8008 20.1992C18.8008 19.8014 18.9588 19.4199 19.2401 19.1386C19.5214 18.8573 19.903 18.6992 20.3008 18.6992C20.6986 18.6992 21.0801 18.8573 21.3614 19.1386C21.6427 19.4199 21.8008 19.8014 21.8008 20.1992C21.8008 20.597 21.6427 20.9786 21.3614 21.2599C21.0801 21.5412 20.6986 21.6992 20.3008 21.6992ZM14.3008 21.6992C13.903 21.6992 13.5214 21.5412 13.2401 21.2599C12.9588 20.9786 12.8008 20.597 12.8008 20.1992C12.8008 19.8014 12.9588 19.4199 13.2401 19.1386C13.5214 18.8573 13.903 18.6992 14.3008 18.6992C14.6986 18.6992 15.0801 18.8573 15.3614 19.1386C15.6427 19.4199 15.8008 19.8014 15.8008 20.1992C15.8008 20.597 15.6427 20.9786 15.3614 21.2599C15.0801 21.5412 14.6986 21.6992 14.3008 21.6992Z" fill="black"/>
</svg>
