<svg width="48" height="48" viewBox="0 0 48 48" fill="none" xmlns="http://www.w3.org/2000/svg">
<circle cx="24" cy="24" r="24" fill="#EEEEEE"/>
<path d="M23.0676 39.6472C22.9701 39.6472 22.8743 39.6215 22.7898 39.5728L10.1842 32.1661C10.0998 32.1174 10.0297 32.0472 9.9809 31.9628C9.93214 31.8783 9.90647 31.7825 9.90647 31.685L9.76758 16.455C9.76758 16.3575 9.79325 16.2617 9.84201 16.1772C9.89077 16.0928 9.9609 16.0226 10.0454 15.9739L23.4842 8.01167C23.6565 7.91278 23.8676 7.91278 24.0398 8.01167L36.6454 15.2794C36.7298 15.3281 36.7999 15.3981 36.8487 15.4824C36.8975 15.5667 36.9233 15.6624 36.9235 15.7598C36.9236 15.8572 36.8982 15.953 36.8497 16.0375C36.8011 16.1219 36.7313 16.1922 36.647 16.2411L23.762 24.0189L23.6231 39.0928C23.6228 39.2399 23.5642 39.381 23.46 39.4849C23.3559 39.5888 23.2147 39.6472 23.0676 39.6472Z" fill="#F4AA41"/>
<path d="M24.0005 39.8726L37.7555 32.0348L37.5632 16.2148L23.7627 24.0176L24.0005 39.8726Z" fill="#F4AA41"/>
<path d="M28.6897 25.0978C28.4776 24.9773 28.3015 24.8025 28.1794 24.5912C28.0573 24.38 27.9938 24.1401 27.9953 23.8961V21.5784L15.2842 12.9506C15.6686 12.6973 18.7386 10.9328 18.9286 10.8828L33.4564 18.1061C33.5409 18.1549 33.611 18.225 33.6597 18.3095C33.7085 18.3939 33.7342 18.4897 33.7342 18.5873V21.9339C33.7337 22.2537 33.6492 22.5678 33.4894 22.8447C33.3295 23.1217 33.0997 23.3519 32.8231 23.5123L30.0758 25.0978C29.6481 25.3478 29.1181 25.3478 28.6897 25.0978ZM28.9097 37.0406V35.1873C28.9103 34.8977 28.9868 34.6134 29.1315 34.3627C29.2763 34.112 29.4843 33.9036 29.7347 33.7584L33.1086 31.81C33.2646 31.72 33.4416 31.6727 33.6217 31.6727C33.8018 31.6728 33.9787 31.7202 34.1346 31.8103C34.2906 31.9004 34.4201 32.0299 34.5101 32.1859C34.6001 32.3419 34.6475 32.5188 34.6475 32.6989C34.6475 32.6989 34.6353 33.5906 34.4642 33.725C33.3308 34.6195 28.9097 37.2134 28.9097 37.0406Z" fill="#D0CFCE"/>
<path d="M28.6816 29.5275V30.0102C28.6817 30.1562 28.7201 30.2997 28.7931 30.4261C28.8662 30.5525 28.9712 30.6575 29.0977 30.7305C29.2241 30.8035 29.3676 30.8419 29.5136 30.8418C29.6596 30.8418 29.803 30.8033 29.9294 30.7302L33.7094 28.6414C33.902 28.5302 34.0619 28.3702 34.1731 28.1776C34.2843 27.985 34.3428 27.7665 34.3428 27.5441V26.923C34.3427 26.7822 34.3056 26.6439 34.2352 26.522C34.1647 26.4001 34.0635 26.2989 33.9415 26.2285C33.8196 26.1581 33.6812 26.1211 33.5405 26.1211C33.3997 26.1211 33.2614 26.1582 33.1394 26.2286L29.3922 28.2975C29.1763 28.4222 28.9971 28.6015 28.8724 28.8174C28.7477 29.0333 28.6819 29.2781 28.6816 29.5275Z" fill="#3F3F3F"/>
<path d="M21.2682 25.6202L16.6582 23.0352V27.1696L21.2682 29.7546V25.6202Z" fill="white"/>
<path d="M23.7625 40.4795L9.49023 32.2395V15.7595L23.7625 7.51953L38.0347 15.7595V32.2395L23.7625 40.4795ZM23.7625 40.4795V24.0179L28.5491 21.2545M23.7947 24.0179L9.52246 15.7779M33.1763 18.5829L38.0347 15.7779" stroke="black" stroke-width="2" stroke-linecap="round" stroke-linejoin="round"/>
<path d="M18.9356 10.3633L33.1789 18.5861V21.9333C33.1789 22.1557 33.1204 22.3742 33.0093 22.5668C32.8981 22.7594 32.7382 22.9193 32.5456 23.0305L29.7989 24.6161C29.6725 24.6891 29.5291 24.7276 29.3831 24.7276C29.237 24.7277 29.0936 24.6893 28.9671 24.6163C28.8407 24.5433 28.7356 24.4384 28.6626 24.3119C28.5896 24.1855 28.5511 24.0421 28.5511 23.8961V21.2577L14.3467 13.0261M34.0928 34.3683V32.6983C34.0929 32.6156 34.0712 32.5344 34.0299 32.4628C33.9886 32.3912 33.9291 32.3317 33.8576 32.2904C33.786 32.249 33.7048 32.2273 33.6221 32.2273C33.5394 32.2273 33.4582 32.2491 33.3867 32.2905L30.0128 34.2383C29.8463 34.3344 29.7081 34.4726 29.6121 34.6391C29.516 34.8056 29.4655 34.9944 29.4656 35.1866V37.0399M21.2683 25.6188L16.6583 23.0338V27.1683L21.2683 29.7533V25.6188ZM28.6817 29.5238V30.0066C28.6817 30.1526 28.7201 30.2961 28.7932 30.4225C28.8662 30.5489 28.9712 30.6539 29.0977 30.7269C29.2242 30.7998 29.3676 30.8382 29.5136 30.8382C29.6596 30.8382 29.803 30.7997 29.9295 30.7266L33.7095 28.6377C33.9021 28.5265 34.062 28.3666 34.1732 28.174C34.2843 27.9814 34.3428 27.7629 34.3428 27.5405V26.9194C34.3427 26.7786 34.3056 26.6403 34.2352 26.5184C34.1648 26.3965 34.0635 26.2952 33.9415 26.2249C33.8196 26.1545 33.6813 26.1175 33.5405 26.1175C33.3997 26.1175 33.2614 26.1546 33.1395 26.2249L29.3922 28.2938C29.1764 28.4186 28.9971 28.5979 28.8724 28.8138C28.7477 29.0297 28.6819 29.2745 28.6817 29.5238Z" stroke="black" stroke-width="2" stroke-linecap="round" stroke-linejoin="round"/>
</svg>
