<svg width="20" height="21" viewBox="0 0 20 21" fill="none" xmlns="http://www.w3.org/2000/svg">
<path d="M16.0265 13.2161L13.9098 12.9745C13.6609 12.9452 13.4087 12.9728 13.172 13.0551C12.9353 13.1373 12.7203 13.2722 12.5432 13.4495L11.0098 14.9828C8.64416 13.7797 6.72132 11.8568 5.51817 9.49115L7.05983 7.94948C7.41817 7.59115 7.59316 7.09115 7.53483 6.58281L7.29317 4.48281C7.24592 4.07629 7.05083 3.70134 6.74503 3.42935C6.43923 3.15736 6.04409 3.00733 5.63483 3.00781H4.19317C3.2515 3.00781 2.46817 3.79115 2.5265 4.73281C2.96817 11.8495 8.65983 17.5328 15.7682 17.9745C16.7098 18.0328 17.4932 17.2495 17.4932 16.3078V14.8661C17.5015 14.0245 16.8682 13.3161 16.0265 13.2161Z" fill="#777777"/>
</svg>
