<svg width="48" height="48" viewBox="0 0 48 48" fill="none" xmlns="http://www.w3.org/2000/svg">
<g clip-path="url(#clip0_742_8934)">
<rect width="48" height="48" rx="24" fill="#EEEEEE"/>
<path d="M28 36C25.3778 36 23.0444 35.2556 21 33.7667C18.9556 32.2778 17.5111 30.3556 16.6667 28H12V25.3333H16.0667C16 24.8 15.9724 24.3058 15.984 23.8507C15.9956 23.3956 16.0231 23.0009 16.0667 22.6667H12V20H16.6667C17.5111 17.6444 18.9556 15.7222 21 14.2333C23.0444 12.7444 25.3778 12 28 12C29.5333 12 30.9836 12.2724 32.3507 12.8173C33.7178 13.3622 34.9342 14.112 36 15.0667L34.1 16.9333C33.2778 16.2222 32.3502 15.6667 31.3173 15.2667C30.2844 14.8667 29.1787 14.6667 28 14.6667C26.1111 14.6667 24.4222 15.1613 22.9333 16.1507C21.4444 17.14 20.3222 18.4231 19.5667 20H28V22.6667H18.7667C18.6778 23.2667 18.6444 23.7947 18.6667 24.2507C18.6889 24.7067 18.7222 25.0676 18.7667 25.3333H28V28H19.5667C20.3222 29.5778 21.4444 30.8613 22.9333 31.8507C24.4222 32.84 26.1111 33.3342 28 33.3333C29.1778 33.3333 30.2836 33.1333 31.3173 32.7333C32.3511 32.3333 33.2787 31.7778 34.1 31.0667L36 32.9333C34.9333 33.8889 33.7164 34.6391 32.3493 35.184C30.9822 35.7289 29.5324 36.0009 28 36Z" fill="black"/>
</g>
<defs>
<clipPath id="clip0_742_8934">
<rect width="48" height="48" fill="white"/>
</clipPath>
</defs>
</svg>
