<svg width="30" height="24" viewBox="0 0 30 24" fill="none" xmlns="http://www.w3.org/2000/svg">
<path d="M21.6665 15.9998H24.3332V18.6665H21.6665V15.9998ZM24.3332 10.6665H21.6665V13.3332H24.3332V10.6665Z" fill="#5935E8"/>
<path fill-rule="evenodd" clip-rule="evenodd" d="M16.3333 5.33333H29.6666V24H0.333252V0H16.3333V5.33333ZM9.66659 2.66667H13.6666V5.33333H9.66659V2.66667ZM13.6666 21.3333V18.6667H9.66659V21.3333H13.6666ZM13.6666 16V13.3333H9.66659V16H13.6666ZM13.6666 10.6667V8H9.66659V10.6667H13.6666ZM26.9999 21.3333V8H16.3333V10.6667H18.9999V13.3333H16.3333V16H18.9999V18.6667H16.3333V21.3333H26.9999ZM2.99992 21.3333V18.6667H6.99992V21.3333H2.99992ZM2.99992 16H6.99992V13.3333H2.99992V16ZM6.99992 10.6667V8H2.99992V10.6667H6.99992ZM2.99992 5.33333H6.99992V2.66667H2.99992V5.33333Z" fill="#5935E8"/>
</svg>
