<svg width="18" height="20" viewBox="0 0 18 20" fill="none" xmlns="http://www.w3.org/2000/svg">
<path d="M6.86094 0.0234375C6.33654 0.0234375 5.91094 0.449038 5.91094 0.973438C5.91094 1.49784 6.33654 1.92344 6.86094 1.92344H10.6609C11.1853 1.92344 11.6109 1.49784 11.6109 0.973438C11.6109 0.449038 11.1853 0.0234375 10.6609 0.0234375H6.86094ZM15.4054 2.11826C15.1631 2.13809 14.9274 2.2518 14.7578 2.45225C14.4187 2.8522 14.4692 3.45179 14.8691 3.79189L16.2218 4.93857C16.6217 5.27772 17.2213 5.2272 17.5614 4.82725C17.9006 4.4273 17.85 3.8277 17.4501 3.4876L16.0975 2.34092C15.8975 2.17134 15.6476 2.09843 15.4054 2.11826ZM8.76094 2.87344C4.04704 2.87344 0.210938 6.70954 0.210938 11.4234C0.210938 16.1373 4.04704 19.9734 8.76094 19.9734C13.4748 19.9734 17.3109 16.1373 17.3109 11.4234C17.3109 6.70954 13.4748 2.87344 8.76094 2.87344ZM8.76094 5.72344C9.28534 5.72344 9.71094 6.14904 9.71094 6.67344V11.4234C9.71094 11.9478 9.28534 12.3734 8.76094 12.3734C8.23654 12.3734 7.81094 11.9478 7.81094 11.4234V6.67344C7.81094 6.14904 8.23654 5.72344 8.76094 5.72344Z" fill="black"/>
</svg>
