<svg width="102" height="106" viewBox="0 0 102 106" fill="none" xmlns="http://www.w3.org/2000/svg">
<g filter="url(#filter0_d_2093_4183)">
<circle cx="49" cy="49" r="24" fill="white"/>
</g>
<g filter="url(#filter1_d_2093_4183)">
<path d="M58.0239 23.5039C58.1997 23.0072 57.9399 22.4603 57.4375 22.3015C54.1152 21.2516 50.6233 20.8301 47.1411 21.0618C43.3413 21.3146 39.6331 22.3399 36.2431 24.0749C32.8531 25.8099 29.8527 28.2182 27.4253 31.1525C24.998 34.0867 23.1947 37.4853 22.1257 41.1404C21.0568 44.7955 20.7446 48.6302 21.2084 52.41C21.6722 56.1898 22.9021 59.8353 24.823 63.1235C26.7439 66.4117 29.3154 69.2736 32.3801 71.534C35.1887 73.6054 38.3575 75.1319 41.722 76.0376C42.2308 76.1745 42.7443 75.8538 42.8638 75.3406C42.9834 74.8274 42.6637 74.3162 42.1552 74.178C39.0434 73.332 36.1125 71.9157 33.5128 69.9982C30.6569 67.8919 28.2607 65.2251 26.4707 62.161C24.6807 59.0969 23.5346 55.6998 23.1024 52.1776C22.6703 48.6554 22.9611 45.082 23.9572 41.676C24.9533 38.2701 26.6337 35.1031 28.8957 32.3688C31.1576 29.6345 33.9536 27.3903 37.1125 25.7736C40.2714 24.1568 43.727 23.2014 47.2678 22.9658C50.491 22.7513 53.7231 23.1374 56.8005 24.1015C57.3033 24.2591 57.8481 24.0007 58.0239 23.5039Z" fill="#18C4BA"/>
</g>
<path d="M49 38.5C43.3 38.5 38.5 43.3 38.5 49C38.5 54.7 43.3 59.5 49 59.5C54.7 59.5 59.5 54.7 59.5 49C59.5 43.3 54.7 38.5 49 38.5ZM52.4403 53.5L48.25 49.3075V42.25H49.75V48.6865L53.5 52.4395L52.4403 53.5Z" fill="black"/>
<defs>
<filter id="filter0_d_2093_4183" x="4" y="4" width="98" height="98" filterUnits="userSpaceOnUse" color-interpolation-filters="sRGB">
<feFlood flood-opacity="0" result="BackgroundImageFix"/>
<feColorMatrix in="SourceAlpha" type="matrix" values="0 0 0 0 0 0 0 0 0 0 0 0 0 0 0 0 0 0 127 0" result="hardAlpha"/>
<feOffset dx="4" dy="4"/>
<feGaussianBlur stdDeviation="12.5"/>
<feComposite in2="hardAlpha" operator="out"/>
<feColorMatrix type="matrix" values="0 0 0 0 0 0 0 0 0 0 0 0 0 0 0 0 0 0 0.12 0"/>
<feBlend mode="normal" in2="BackgroundImageFix" result="effect1_dropShadow_2093_4183"/>
<feBlend mode="normal" in="SourceGraphic" in2="effect1_dropShadow_2093_4183" result="shape"/>
</filter>
<filter id="filter1_d_2093_4183" x="0" y="0" width="87.0786" height="105.068" filterUnits="userSpaceOnUse" color-interpolation-filters="sRGB">
<feFlood flood-opacity="0" result="BackgroundImageFix"/>
<feColorMatrix in="SourceAlpha" type="matrix" values="0 0 0 0 0 0 0 0 0 0 0 0 0 0 0 0 0 0 127 0" result="hardAlpha"/>
<feOffset dx="4" dy="4"/>
<feGaussianBlur stdDeviation="12.5"/>
<feComposite in2="hardAlpha" operator="out"/>
<feColorMatrix type="matrix" values="0 0 0 0 0 0 0 0 0 0 0 0 0 0 0 0 0 0 0.12 0"/>
<feBlend mode="normal" in2="BackgroundImageFix" result="effect1_dropShadow_2093_4183"/>
<feBlend mode="normal" in="SourceGraphic" in2="effect1_dropShadow_2093_4183" result="shape"/>
</filter>
</defs>
</svg>
