<svg width="16" height="17" viewBox="0 0 16 17" fill="none" xmlns="http://www.w3.org/2000/svg">
<path d="M2.89297 1.15625C1.89297 1.15625 0.891719 1.90625 0.891719 3.40625L2.89297 7.40625L4.89297 3.40625C4.89297 1.90625 3.89297 1.15625 2.89297 1.15625ZM11.7148 2.375C11.4992 2.38406 11.2898 2.425 11.1148 2.4625L11.2336 3.0125C11.4086 2.97344 11.5898 2.94875 11.743 2.9375L11.7148 2.375ZM2.89297 2.40625C3.44609 2.40625 3.89297 2.85406 3.89297 3.40625C3.89297 3.95937 3.44609 4.40625 2.89297 4.40625C2.34078 4.40625 1.89297 3.95937 1.89297 3.40625C1.89297 2.85406 2.34078 2.40625 2.89297 2.40625ZM12.3367 2.4125L12.243 2.96563C12.3961 2.99781 12.5492 3.03813 12.6836 3.11875L12.9555 2.625C12.7648 2.52344 12.5523 2.43219 12.3367 2.4125ZM10.5398 2.62188C10.3492 2.69625 10.1586 2.76281 9.99609 2.82812L10.218 3.34375C10.3898 3.27063 10.5711 3.20688 10.7242 3.15313L10.5398 2.62188ZM13.468 3.04063L13.0398 3.40625C13.1523 3.535 13.2398 3.69375 13.3086 3.82188L13.8117 3.56875C13.7055 3.36406 13.6117 3.20906 13.468 3.04063ZM9.47422 3.06875C9.2836 3.16594 9.12735 3.2525 8.9586 3.3375L9.23359 3.83125C9.3961 3.7375 9.57422 3.64688 9.71797 3.575L9.47422 3.06875ZM8.46484 3.62812C8.29922 3.725 8.13672 3.82187 7.97734 3.92812L8.2836 4.39687C8.43672 4.29688 8.5961 4.20312 8.75235 4.10938L8.46484 3.62812ZM14.0055 4.1875C13.8211 4.21875 13.6336 4.24063 13.4492 4.2625C13.4617 4.41875 13.4523 4.5875 13.4211 4.71875L13.968 4.84688C13.9992 4.62188 14.0273 4.39062 14.0055 4.1875ZM7.50235 4.24062C7.3461 4.34687 7.19297 4.45625 7.03672 4.5625L7.36172 5.02187C7.51172 4.9125 7.66484 4.80938 7.81797 4.70312L7.50235 4.24062ZM6.57734 4.9C6.42109 5.0125 6.25859 5.1375 6.12422 5.24062L6.46484 5.6875C6.63672 5.5625 6.75547 5.46875 6.91172 5.35313L6.57734 4.9ZM13.2336 5.15C13.1398 5.29375 13.0305 5.4375 12.9211 5.54688L13.3305 5.9375C13.4648 5.77812 13.6086 5.61562 13.7086 5.45312L13.2336 5.15ZM5.67734 5.59062C5.52422 5.70937 5.37109 5.83125 5.23672 5.94375L5.59297 6.37813C5.73984 6.25625 5.88984 6.13125 6.02734 6.03125L5.67734 5.59062ZM12.5336 5.90625C12.3898 6.02187 12.2398 6.13438 12.1023 6.22813L12.4242 6.69063C12.5898 6.57812 12.7523 6.45625 12.893 6.34375L12.5336 5.90625ZM4.80234 6.30937C4.65547 6.42812 4.51484 6.55313 4.37109 6.675L4.73672 7.10313C4.87734 6.98125 5.01797 6.85938 5.16172 6.74062L4.80234 6.30937ZM11.643 6.52812C11.4836 6.62187 11.318 6.71875 11.168 6.8L11.4367 7.29688C11.6055 7.19375 11.7961 7.10313 11.9367 7.00938L11.643 6.52812ZM3.94297 7.04688C3.80234 7.17188 3.66484 7.29688 3.52422 7.425L3.90234 7.84375C4.03984 7.71875 4.18047 7.59375 4.31797 7.46875L3.94297 7.04688ZM10.6773 7.05937C10.5117 7.14062 10.3461 7.225 10.1805 7.30625L10.4211 7.8125C10.6148 7.71875 10.7586 7.64062 10.9336 7.55937L10.6773 7.05937ZM9.67735 7.54063C9.50547 7.61875 9.33984 7.69375 9.16484 7.76562L9.39297 8.28125C9.56485 8.20625 9.73672 8.12813 9.9086 8.05L9.67735 7.54063ZM3.11172 7.8125C2.95234 7.95312 2.84141 8.0625 2.69609 8.20312L3.09297 8.60938C3.23984 8.46875 3.35859 8.34688 3.49609 8.22813L3.11172 7.8125ZM8.65234 7.99375C8.48047 8.06563 8.30859 8.14062 8.13672 8.2125L8.35547 8.73438C8.53047 8.6625 8.70234 8.5875 8.87422 8.5125L8.65234 7.99375ZM7.61797 8.43125C7.44609 8.50625 7.27422 8.58125 7.09922 8.65L7.31797 9.17188C7.48984 9.1 7.66484 9.025 7.83672 8.95312L7.61797 8.43125ZM13.393 8.65625C12.393 8.65625 11.393 9.40625 11.393 10.9062L13.393 14.9062L15.393 10.9062C15.393 9.40625 14.393 8.65625 13.393 8.65625ZM6.58047 8.86875C6.40234 8.95 6.21484 9.025 6.06172 9.09062L6.28359 9.60938C6.46797 9.53125 6.64297 9.45625 6.79922 9.3875L6.58047 8.86875ZM5.54297 9.3125C5.37422 9.39062 5.17734 9.47812 5.02734 9.54688L5.25859 10.0594C5.44297 9.97812 5.60547 9.89688 5.76797 9.82812L5.54297 9.3125ZM4.51172 9.78125C4.33672 9.86563 4.15547 9.95312 3.99922 10.0312L4.25234 10.5344C4.42109 10.4469 4.59609 10.3656 4.74922 10.2906L4.51172 9.78125ZM13.393 9.90625C13.9461 9.90625 14.393 10.3531 14.393 10.9062C14.393 11.4594 13.9461 11.9062 13.393 11.9062C12.8398 11.9062 12.393 11.4594 12.393 10.9062C12.393 10.3531 12.8398 9.90625 13.393 9.90625ZM3.49297 10.2906C3.32734 10.3812 3.16172 10.475 2.99297 10.5719L3.27422 11.0594C3.43359 10.9656 3.59609 10.8781 3.75859 10.7906L3.49297 10.2906ZM2.50234 10.875C2.32703 10.975 2.15766 11.1094 2.01172 11.2063L2.35234 11.6562C2.50766 11.5437 2.67484 11.4281 2.80859 11.3469L2.50234 10.875ZM1.56797 11.5813C1.41797 11.7188 1.27016 11.8781 1.15547 12.0125L1.58359 12.3781C1.70391 12.2312 1.80859 12.1219 1.94922 11.9969L1.56797 11.5813ZM8.37422 11.6219L8.42422 12.1812C8.58672 12.1531 8.74922 12.1719 8.91172 12.1969L9.00859 11.6438C8.80234 11.6125 8.58359 11.5906 8.37422 11.6219ZM7.21172 11.9344L7.42422 12.4563C7.58672 12.3844 7.75547 12.3281 7.92734 12.275C7.86797 12.0969 7.82422 11.9156 7.77734 11.7344C7.58047 11.7906 7.38359 11.8656 7.21172 11.9344ZM9.63359 11.9062L9.31485 12.3687C9.4461 12.4656 9.57422 12.5687 9.67735 12.6969L10.1023 12.3281C9.94297 12.1656 9.82109 12.0125 9.63359 11.9062ZM6.68047 12.1875C6.50859 12.275 6.34297 12.375 6.17734 12.4719L6.46172 12.9563C6.62422 12.8688 6.78359 12.7656 6.94297 12.6812L6.68047 12.1875ZM0.812031 12.5312C0.717656 12.7344 0.641094 12.9531 0.605469 13.1469L1.15859 13.2437C1.19234 13.0656 1.24078 12.9375 1.31172 12.7844C1.14016 12.7094 0.976406 12.6187 0.812031 12.5312ZM5.68984 12.775C5.53047 12.8781 5.37422 12.9812 5.21797 13.0875L5.53047 13.5562C5.68672 13.4531 5.83984 13.3469 5.99609 13.2437L5.68984 12.775ZM10.4617 12.8125L9.98985 13.1187C10.0898 13.2687 10.1867 13.425 10.2773 13.5844L10.7648 13.3031C10.6555 13.1281 10.5773 12.9719 10.4617 12.8125ZM4.75234 13.4062C4.59609 13.5094 4.43984 13.6094 4.28672 13.7188L4.59922 14.1875C4.74922 14.0781 4.90859 13.975 5.06797 13.8687L4.75234 13.4062ZM1.16484 13.7031C0.983906 13.7406 0.801406 13.7719 0.619531 13.8062C0.652344 14.025 0.740156 14.2375 0.819531 14.4062L1.32734 14.1625C1.25953 14.0063 1.19516 13.8438 1.16484 13.7031ZM11.043 13.7906L10.5555 14.0719C10.6523 14.2406 10.7648 14.4219 10.8555 14.5656L11.3273 14.2625C11.2211 14.0969 11.1305 13.9406 11.043 13.7906ZM3.82422 14.025C3.66797 14.1219 3.51484 14.2156 3.35234 14.3062L3.63047 14.7969C3.79609 14.7 3.96172 14.6031 4.12109 14.5L3.82422 14.025ZM1.59609 14.5344L1.21172 14.9469C1.38547 15.1125 1.59984 15.2219 1.83359 15.2719L1.95859 14.725C1.81984 14.6969 1.69016 14.6281 1.59609 14.5344ZM2.87734 14.5437C2.72078 14.6156 2.55828 14.6719 2.38984 14.7063L2.51797 15.2563C2.71859 15.2156 2.90734 15.1406 3.09609 15.0625L2.87734 14.5437ZM11.6367 14.6938L11.2023 15.0469C11.3367 15.2125 11.5023 15.3719 11.6461 15.4844L11.993 15.0406C11.8555 14.9344 11.7367 14.8063 11.6367 14.6938ZM12.3898 15.2406L12.2492 15.7875C12.4961 15.8375 12.6805 15.8531 12.9117 15.8281L12.843 15.2688C12.6898 15.2937 12.5398 15.2781 12.3898 15.2406Z" fill="black"/>
</svg>
