<svg width="22" height="22" viewBox="0 0 22 22" fill="none" xmlns="http://www.w3.org/2000/svg">
<path d="M21.7255 10.6337C21.6128 10.138 21.2072 10.0253 21.2072 10.0253L19.3593 10.2281L18.4804 8.17742C18.1199 8.49291 17.6917 8.74079 17.241 8.92107L17.9621 10.6337L3.90037 10.6112L5.54542 6.80279L5.56796 6.75772C5.59049 6.71265 5.70317 6.46477 6.13133 6.39716H11.0214C10.8411 5.969 10.7059 5.49577 10.6383 5H6.08626H6.01865C4.91444 5.11267 4.37361 5.83379 4.21586 6.28449L2.57082 10.2056L0.790559 10.0253C0.790559 10.0253 0.384931 10.138 0.272257 10.6337C0.159583 11.1295 0.0243733 11.9858 1.15112 12.2788L1.75956 12.3464C1.01591 13.7661 0.227187 16.29 2.3004 18.4308C2.34547 18.4759 2.86377 18.8815 3.13419 18.9491V20.1885C3.13419 20.6617 3.51728 21.0448 3.99051 21.0448H5.11726C5.59049 21.0448 5.97358 20.6617 5.97358 20.1885V19.0167H15.9791V20.166C15.9791 20.6392 16.3622 21.0223 16.8354 21.0223H17.9847C18.4579 21.0223 18.841 20.6392 18.841 20.166V18.9266C19.1565 18.8364 19.4269 18.6561 19.6297 18.4083C21.748 16.3125 21.072 13.7886 20.3508 12.3238L20.8691 12.2788C21.9734 11.9858 21.8381 11.152 21.7255 10.6337ZM4.84684 15.5238C4.14826 15.5238 3.60742 14.9604 3.60742 14.2844C3.60742 13.5858 4.17079 13.045 4.84684 13.045C5.54542 13.045 6.08626 13.6083 6.08626 14.2844C6.08626 14.9604 5.52289 15.5238 4.84684 15.5238ZM16.903 15.5238C16.2044 15.5238 15.6636 14.9604 15.6636 14.2844C15.6636 13.5858 16.227 13.045 16.903 13.045C17.6016 13.045 18.1424 13.6083 18.1424 14.2844C18.165 14.9604 17.6016 15.5238 16.903 15.5238Z" fill="white"/>
<path d="M15.4151 0.921875C13.432 0.921875 11.832 2.52185 11.832 4.48239C11.832 6.44292 13.432 8.06543 15.4151 8.06543C17.3981 8.06543 18.9981 6.46546 18.9981 4.48239C18.9981 2.49932 17.3756 0.921875 15.4151 0.921875ZM16.7897 4.86548H15.7982V5.85702C15.7982 6.05983 15.6179 6.24011 15.4151 6.24011C15.2123 6.24011 15.032 6.05983 15.032 5.85702V4.86548H14.0405C13.8376 4.86548 13.6574 4.6852 13.6574 4.48239C13.6574 4.27957 13.8376 4.09929 14.0405 4.09929H15.032V3.10776C15.032 2.90495 15.2123 2.72467 15.4151 2.72467C15.6179 2.72467 15.7982 2.90495 15.7982 3.10776V4.09929H16.7897C16.9925 4.09929 17.1728 4.27957 17.1728 4.48239C17.1728 4.6852 16.9925 4.86548 16.7897 4.86548Z" fill="white"/>
</svg>
